<?xml version="1.0" standalone="no"?>
<!DOCTYPE svg PUBLIC "-//W3C//DTD SVG 1.1//EN" "http://www.w3.org/Graphics/SVG/1.1/DTD/svg11.dtd" >
<svg xmlns="http://www.w3.org/2000/svg">
<metadata></metadata>
<defs>
<font id="TrajanProBold" horiz-adv-x="1048" >
<font-face units-per-em="2048" ascent="1536" descent="-512" />
<missing-glyph horiz-adv-x="497" />
<glyph unicode=" "  horiz-adv-x="497" />
<glyph unicode="&#x09;" horiz-adv-x="497" />
<glyph unicode="&#xa0;" horiz-adv-x="497" />
<glyph unicode="!" horiz-adv-x="530" d="M147 1125q0 11 9 26q26 33 68 60.5t81 44.5t64 17q14 0 14 -22q0 -5 -2.5 -23t-6.5 -42.5t-9 -65.5t-9 -83q-1 -9 -33.5 -348.5t-35.5 -363.5q-3 -30 -7.5 -41.5t-17 -11.5t-17.5 13.5t-8 46.5q-3 39 -12.5 144t-18 200t-10.5 107q-3 41 -14 150t-21 148q-2 10 -8 24.5 t-6 19.5zM174 65q0 21 9 42t31 37t53 16q41 0 67 -24.5t26 -64.5q0 -42 -26.5 -70.5t-67.5 -28.5q-45 0 -68.5 28.5t-23.5 64.5z" />
<glyph unicode="&#x22;" horiz-adv-x="596" d="M96 1228q0 17 18.5 20.5t66.5 3.5h4q23 0 34 -0.5t24 -2.5t18 -7t5 -14q0 -7 -11 -42.5t-26.5 -109t-24.5 -164.5q-9 -83 -23 -83t-23 83q-9 91 -24.5 164.5t-26.5 109t-11 42.5zM332 1228q0 17 18.5 20.5t65.5 3.5h5q23 0 33.5 -0.5t23.5 -2.5t18 -7t5 -14 q0 -7 -11 -42.5t-26 -109t-24 -164.5q-9 -83 -23.5 -83t-23.5 83q-7 71 -18 132.5t-20 94.5t-16 57.5t-7 31.5z" />
<glyph unicode="#" horiz-adv-x="994" d="M48 380v134h216l38 249h-204v136h222l53 352h102l-55 -352h250l52 352h99l-51 -352h177v-136h-195l-37 -249h186v-134h-204l-55 -380h-98l51 380h-252l-56 -380h-100l58 380h-197zM364 514h253l35 249h-249z" />
<glyph unicode="$" horiz-adv-x="994" d="M160 106q0 92 24 201q9 40 25 40q8 0 10.5 -9t0.5 -36q-2 -37 9.5 -79t39.5 -72q33 -36 78 -55.5t84 -19.5l53 489q-58 45 -98.5 80.5t-75 73.5t-54.5 74.5t-31 78.5t-11 89q0 59 22 109t58 84t82.5 58.5t94.5 35.5t94 11l17 133q2 11 18 15l50 11q7 2 11 0t2 -8 l-19 -151q51 0 102 -10t80 -21q18 -6 23.5 -14t5.5 -28q0 -26 -7.5 -91.5t-13.5 -90.5q-1 -7 -2.5 -11.5t-3.5 -7.5t-5 -4t-7 -1q-8 0 -12.5 7t-4.5 25q-1 27 -3.5 43.5t-13.5 40t-32 44.5q-21 22 -55.5 35.5t-57.5 13.5l-51 -449q68 -46 114 -85t85 -87t57.5 -104 t18.5 -122q0 -73 -25 -133t-63 -98t-87 -64t-95 -36.5t-88 -10.5l-15 -134q-2 -11 -17 -13l-51 -11q-8 -1 -10.5 3t-1.5 14l16 141q-20 0 -54.5 3t-80 11.5t-74.5 20.5q-36 16 -45.5 27.5t-9.5 43.5zM365 1004q0 -27 8.5 -52.5t20.5 -45t34 -42t39 -38t46 -38.5l44 401 q-21 0 -43.5 -4t-50 -16.5t-48.5 -32t-35.5 -54t-14.5 -78.5zM514 76q83 5 137 64.5t54 147.5q0 71 -38.5 126t-107.5 102z" />
<glyph unicode="%" horiz-adv-x="1439" d="M62 926q0 47 11 91.5t35.5 86t60.5 72.5t89 49.5t117 18.5q124 0 271 9.5t248.5 19t113.5 9.5q17 0 17 -6q0 -4 -2 -10t-7.5 -17.5t-8.5 -20.5l-476 -1215q-4 -11 -7 -14.5t-10 -4.5l-104 -14q-16 -3 -19.5 1.5t2.5 20.5q46 102 116 261.5t137 314t128.5 296t102 234 t44.5 101.5q-269 -21 -365 -26v-4q44 -26 75 -88.5t31 -139.5q0 -47 -11 -91t-35.5 -85.5t-59.5 -72.5t-87 -50t-114 -19q-61 0 -111.5 18.5t-83.5 47.5t-55.5 68t-32.5 78.5t-10 80.5zM204 949q0 -63 18.5 -121t55.5 -98t83 -40q75 0 117.5 65.5t42.5 171.5 q0 63 -19.5 121.5t-57.5 98t-86 39.5q-75 0 -114.5 -67.5t-39.5 -169.5zM776 292q0 47 10.5 91.5t34 86t58 72t86.5 49t116 18.5q61 0 112 -18t84.5 -47t57 -67.5t34 -79t10.5 -80.5q0 -47 -11 -91t-35 -85.5t-59 -72.5t-87.5 -49.5t-116.5 -18.5q-61 0 -111.5 18 t-83.5 47.5t-56 68t-33 78t-10 80.5zM919 315q0 -37 7 -73.5t20.5 -70t32 -59t44 -40.5t53.5 -15q50 0 86.5 30t55 83t18.5 123q0 63 -19.5 121.5t-57.5 98t-86 39.5q-74 0 -114 -67.5t-40 -169.5z" />
<glyph unicode="&#x26;" horiz-adv-x="1376" d="M96 339q0 68 28 135t71 117t87 85.5t85 54.5q-49 65 -66.5 119t-18.5 117q-1 41 13 82.5t45.5 82t77.5 71.5t115 50.5t152 19.5q118 0 201 -35q14 -5 20 -12t7 -12.5t1 -18.5q0 -38 -7 -115t-11 -98q-2 -12 -5 -18.5t-6.5 -8t-8.5 -1.5q-8 0 -10 6.5t-2 25.5 q0 95 -61.5 154.5t-170.5 59.5q-22 0 -45.5 -6t-47.5 -20.5t-42.5 -35.5t-30.5 -54t-12 -74q0 -25 5 -50.5t15.5 -51t21.5 -48t30 -48.5t34 -46.5t39.5 -48t41.5 -46t44.5 -49t44.5 -48.5q59 -68 292 -277q29 41 54.5 113.5t25.5 141.5q0 49 -32 77q-27 25 -81 25 q-20 0 -20 13q0 17 26 17q83 0 200 -13q56 -5 56 -33q0 -94 -45.5 -201t-117.5 -192q108 -89 231 -162q38 -23 94 -40.5t83 -17.5q24 0 24 -15t-50 -15h-128q-99 0 -156.5 10t-109 35.5t-125.5 82.5q-25 -23 -41 -35.5t-55.5 -38t-77 -40t-96.5 -26t-124 -11.5 q-102 0 -183.5 24.5t-132 62.5t-84.5 88t-47.5 97.5t-13.5 94.5zM296 416q0 -51 11.5 -97t32.5 -83t50.5 -67.5t64.5 -50.5t75.5 -31t83.5 -11q85 0 161 33t111 67q-66 56 -163.5 150t-135.5 135q-40 43 -99 111t-78 96q-31 -23 -55 -54t-41.5 -83t-17.5 -115z" />
<glyph unicode="'" horiz-adv-x="361" d="M96 1228q0 17 18.5 20.5t66.5 3.5h4q23 0 34 -0.5t24 -2.5t18 -7t5 -14q0 -7 -11 -42.5t-26.5 -109t-24.5 -164.5q-9 -83 -23 -83t-23 83q-9 91 -24.5 164.5t-26.5 109t-11 42.5z" />
<glyph unicode="(" horiz-adv-x="596" d="M95 511q0 103 29 206.5t71.5 183t95 149.5t96.5 112.5t79 65.5q13 10 20 10q5 0 8 -4.5t3 -9.5q0 -8 -9 -18q-32 -38 -68.5 -100.5t-75 -150.5t-64 -200.5t-25.5 -222.5q0 -223 60.5 -391.5t168.5 -306.5q13 -17 13 -25q0 -11 -13 -11q-5 0 -16 8q-43 30 -88.5 73 t-98 111t-93 143.5t-67 175t-26.5 202.5z" />
<glyph unicode=")" horiz-adv-x="596" d="M100 -189q0 8 9 18q25 29 53.5 73.5t61 112.5t58 141.5t43 165.5t17.5 181q0 223 -60.5 391.5t-168.5 306.5q-13 18 -13 25q0 12 13 12q6 0 17 -8q43 -31 88.5 -74t98 -111t92.5 -143.5t67 -175t27 -202.5t-29 -206.5t-72 -183t-95.5 -149t-96.5 -112.5t-79 -66 q-13 -9 -20 -9q-5 0 -8 4t-3 9z" />
<glyph unicode="*" horiz-adv-x="630" d="M81 1193q0 14 4.5 17.5t17.5 3.5q32 0 98 -44.5t87 -67.5q5 -6 13 -2q1 3 1 11q-4 50 -50 157q-10 19 -10 26q0 14 48.5 30.5t74.5 16.5q17 0 17 -19q0 -49 -56 -212q-4 -4 -0.5 -8t9.5 -2q15 4 30 11.5t29 16t26 16.5t24 18t18.5 15.5t15 13l8.5 7.5q11 16 23 16 q11 0 25.5 -50t14.5 -78q0 -10 -17 -13q-2 -1 -79.5 -0.5t-110.5 3.5q-6 0 -8.5 -3.5t1.5 -10.5q17 -23 70 -64.5t70 -46.5q22 -6 22 -17q0 -17 -42 -51.5t-56 -34.5q-12 0 -27 23q-12 27 -32 84t-27 87q-4 9 -6 9q-12 0 -39 -78t-27 -102q0 -13 -21 -13q-37 0 -74 16 t-37 27q0 9 17 28q12 17 74.5 70t79.5 63q5 5 5 9.5t-6 4.5q-38 5 -64.5 4.5t-65 -3t-48.5 -2.5q-7 0 -13.5 43.5t-6.5 74.5z" />
<glyph unicode="+" horiz-adv-x="910" d="M66 370v101h336v338h106v-338h336v-101h-336v-338h-106v338h-336z" />
<glyph unicode="," horiz-adv-x="414" d="M106 117q0 42 42.5 78.5t82.5 36.5q5 0 9 -1t9.5 -7.5t9 -11.5t13.5 -21q37 -53 37 -87q0 -27 -22 -79q-65 -146 -131 -221l-7 -7t-7.5 -7t-6.5 -3.5t-7 -1.5q-4 0 -9 5t-5 11q0 3 3 8.5t6.5 11t4.5 8.5q48 82 48 144q0 33 -11 59.5t-24 40t-24 25.5t-11 19z" />
<glyph unicode="-" horiz-adv-x="704" d="M60 386l24 115q4 14 11 17.5t30 3.5h470q26 0 40 -4.5t14 -18.5q0 -16 -16.5 -22.5t-58.5 -13.5q-61 -9 -225 -39t-203 -41q-17 -4 -42 -15.5t-31 -11.5q-19 0 -13 30z" />
<glyph unicode="." horiz-adv-x="414" d="M106 101q0 13 3.5 26.5t11.5 27t19.5 24t29 17t37.5 6.5q29 0 52 -11.5t36.5 -33.5t13.5 -51q0 -45 -28.5 -75.5t-74.5 -30.5q-49 0 -74.5 31t-25.5 70z" />
<glyph unicode="/" horiz-adv-x="899" d="M30 6q-12 8 0 29l757 1228q9 16 22 8l60 -37q11 -5 2 -20l-762 -1236q-9 -17 -21 -10z" />
<glyph unicode="0" horiz-adv-x="994" d="M68 586q0 97 11.5 184.5t35 164.5t60 139t85 106.5t112.5 68.5t139 24q69 0 127 -20.5t100 -55t75 -83t54 -102.5t35 -115.5t19.5 -119t5.5 -117.5q0 -207 -50.5 -361t-151.5 -240.5t-241 -86.5q-59 0 -111 16.5t-91.5 46t-72 69t-55.5 87t-40 97t-27 102.5t-14.5 101 t-4.5 95zM262 649q0 -89 9 -173t28.5 -163t48.5 -137.5t72 -94t96 -35.5q50 0 90.5 41t68.5 113.5t43 173.5t15 221q0 112 -15 216t-45 192.5t-81 141.5t-116 53q-98 0 -156 -138t-58 -411z" />
<glyph unicode="1" horiz-adv-x="994" d="M173 972q0 14 16 23q3 2 85.5 56t177 117t121.5 83q32 22 43 22q19 0 19 -35q0 -3 -1 -25t-2.5 -60.5t-3 -88t-2.5 -118.5t-1 -140v-307q0 -104 0.5 -156.5t2 -117t4.5 -99.5q4 -43 16 -62.5t50 -27.5q9 -1 26 -3t33.5 -3.5t31 -2t19.5 -0.5t10 -4.5t5 -12.5 q0 -15 -27 -15q-73 0 -169 2.5t-108 2.5q-10 0 -116 -2.5t-167 -2.5q-29 0 -29 15q0 17 13 17q19 0 66 3.5t67 7.5q38 8 50.5 26.5t16.5 61.5q10 120 8 373l-2 264v217v4q0 17 -0.5 24.5t-2.5 16.5t-7 12t-14 3q-14 0 -53 -16t-84.5 -37.5t-55.5 -25.5q-16 -7 -24 -7 q-4 0 -8 5.5t-4 12.5z" />
<glyph unicode="2" horiz-adv-x="994" d="M65 23q0 14 33 43q17 16 53 47q57 49 87.5 76.5t86.5 79t88 88.5t76.5 90t70.5 100t51.5 102t37 113t11.5 117q0 75 -16 133t-40 91.5t-55.5 55t-59.5 29t-56 7.5q-56 0 -98.5 -13.5t-77.5 -46.5q-29 -28 -49.5 -77t-20.5 -83q0 -31 -21 -31q-13 0 -15 31q-1 8 -3.5 46.5 t-4.5 85.5t-2 69q0 12 3.5 18.5t16.5 14.5q123 64 300 64q106 0 187.5 -28t130.5 -76.5t73.5 -111.5t24.5 -138q0 -51 -13 -104.5t-32.5 -100t-53.5 -98t-64 -91t-77.5 -88.5t-80 -80t-85.5 -76.5t-80 -67.5t-77 -61q-5 -4 -7 -6q-6 -5 -4.5 -8.5t7.5 -3.5h113q211 0 285 10 q156 18 189 148q7 26 21 26q13 0 13 -31q0 -20 -18 -107t-30 -131q-10 -32 -37 -40.5t-108 -8.5h-650q-8 0 -15.5 7t-7.5 16z" />
<glyph unicode="3" horiz-adv-x="994" d="M96 58q0 144 12 208q5 31 18 31q15 0 15 -23q0 -41 15.5 -79.5t45.5 -70.5t78.5 -51.5t109.5 -19.5q50 0 94 10.5t82 33t65.5 55t43 80t15.5 105.5q0 63 -21.5 116t-53 86.5t-72 59t-73 37t-60.5 16.5q-31 6 -42.5 12t-11.5 16q0 18 30 23q21 4 45.5 13t54.5 24t57 38.5 t50.5 53t37 70.5t13.5 87q0 23 -6.5 48.5t-23 53.5t-40.5 50.5t-63.5 37t-87.5 14.5q-98 0 -164 -51t-66 -125q0 -25 -16 -25q-8 0 -13.5 26.5t-7.5 64.5t-3 61t-1 37q0 8 1.5 12.5t6.5 9.5t16 10q135 60 294 60q66 0 121 -10t93 -25.5t67.5 -37t46.5 -44t28.5 -47t15.5 -44 t4 -38.5q0 -46 -19 -91t-47 -78t-62.5 -61t-63 -44.5t-51.5 -24.5v-3q40 -9 78.5 -25.5t79 -44.5t70.5 -63t49 -85.5t19 -107.5q0 -88 -37 -165.5t-103.5 -135.5t-166 -92t-217.5 -34q-85 0 -152.5 11t-97.5 28q-18 9 -23.5 19.5t-5.5 27.5z" />
<glyph unicode="4" horiz-adv-x="994" d="M25 352q0 4 1.5 9t2.5 8.5t4 8t4.5 6.5t5 6l3.5 4q7 8 323.5 425.5t320.5 423.5q27 30 43 30q20 0 20 -29q0 -2 -0.5 -93t-0.5 -156v-539h127q26 0 51 8.5t26 8.5q14 0 14 -20q0 -7 -4.5 -28t-11.5 -43.5t-12 -33.5q-7 -12 -16 -17t-29 -5h-145q0 -145 5 -200 q4 -42 17.5 -63.5t51.5 -29.5q32 -6 75 -6q14 0 14 -17q0 -6 -2.5 -9t-8 -4.5t-15.5 -1.5q-53 0 -138.5 2.5t-95.5 2.5q-17 0 -96.5 -2.5t-130.5 -2.5q-15 0 -20.5 3t-5.5 12q0 17 13 17q37 0 77 5q44 4 60 27.5t19 66.5q5 55 5 200h-510q-41 0 -41 26zM201 456h375v513h-5 q-33 -47 -182 -254t-188 -259z" />
<glyph unicode="5" horiz-adv-x="994" d="M129.5 168.5q0.5 28.5 2.5 63t8 54t16 19.5q15 0 15 -28q0 -222 225 -222q52 0 99.5 17.5t87 52.5t63.5 95t24 138q0 55 -16.5 104.5t-43.5 86.5t-64 69.5t-75.5 54.5t-80 39t-76 26t-64.5 14q-32 5 -30 33l38 437q3 22 32 22h407q65 0 93 5q10 1 20.5 4t12.5 3 q10 0 13 -6.5t3 -25.5q0 -76 -21 -212q-3 -20 -19 -20q-12 0 -12 23q0 20 -4.5 34t-18 28t-44.5 21t-79 7h-302l-24 -203q79 -12 152.5 -35t147 -62.5t128 -89.5t88 -122t33.5 -155q0 -68 -19 -133t-62.5 -126t-105.5 -106.5t-154.5 -73t-204.5 -27.5q-94 0 -155 30 q-14 7 -21 16t-9 19t-2 29q0 3 -1 38.5t-0.5 64z" />
<glyph unicode="6" horiz-adv-x="994" d="M68 448q0 160 78 321t219.5 292t318.5 202q22 10 36 10q5 0 9.5 -2t7.5 -5.5t3 -8.5q0 -15 -42 -36q-61 -35 -119 -84.5t-113.5 -122t-97.5 -156t-67.5 -190.5t-25.5 -222q0 -74 16.5 -144.5t46.5 -128.5t79.5 -93t109.5 -35q92 0 150.5 70.5t58.5 207.5q0 83 -20.5 149 t-55 104.5t-74.5 58.5t-83 20q-46 0 -87 -11q-4 -1 -17.5 -6t-18.5 -5q-13 0 -13 17q0 14 18 26q84 59 215 59q57 0 106.5 -14.5t86 -40t65 -58.5t46 -71t26.5 -76.5t9 -75.5q0 -126 -57.5 -224t-156 -150.5t-219.5 -52.5q-95 0 -175.5 32.5t-139 92.5t-91 150t-32.5 201z " />
<glyph unicode="7" horiz-adv-x="994" d="M116 966q0 36 12.5 152.5t12.5 119.5q0 22 17 22q2 0 9.5 -1.5t23 -4t38.5 -5t63 -4t90 -1.5h530q41 0 41 -13q0 -14 -13 -30q-66 -94 -162 -310.5t-171.5 -435t-87.5 -321.5q-2 -5 -1 -32.5t1 -28.5q0 -12 -22.5 -30t-54 -33.5t-68.5 -26.5t-64 -11q-13 0 -18 4.5 t-5 15.5q0 28 12 68q40 138 185 453t303 579h-431q-111 0 -155 -30q-14 -10 -26.5 -29t-19.5 -38t-9 -33q-3 -22 -16 -22q-14 0 -14 26z" />
<glyph unicode="8" horiz-adv-x="994" d="M70 297q0 67 24.5 126t68 105t96.5 80.5t116 59.5q-114 59 -177.5 132t-63.5 172q0 40 13.5 81t44.5 81t75 70.5t111.5 49.5t148.5 19q155 0 248 -68t93 -187q0 -50 -17 -95t-42.5 -77.5t-59.5 -60.5t-64.5 -44.5t-60.5 -28.5q33 -18 54 -30t56 -35t58.5 -43.5t51 -50.5 t43.5 -60.5t27.5 -70t11.5 -82.5q0 -74 -30 -140.5t-85 -117t-139 -80.5t-186 -30q-187 0 -301.5 87t-114.5 238zM257 307q0 -110 70.5 -184.5t171.5 -74.5q48 0 91 18t74.5 50t50 79.5t18.5 103.5q0 35 -8.5 66.5t-20.5 56t-36 50.5t-42.5 43t-53.5 40.5t-56.5 36 t-62.5 37.5q-37 -21 -69 -49t-62 -67t-47.5 -92.5t-17.5 -113.5zM307 1005q0 -74 52 -131.5t170 -123.5q15 7 29 15t34 23t36.5 34.5t31.5 45t23.5 61t8.5 75.5q0 60 -25 105.5t-66 68.5t-92 23t-91.5 -17t-64 -46t-35 -62.5t-11.5 -70.5z" />
<glyph unicode="9" horiz-adv-x="994" d="M70 886q0 169 117 278t307 109q99 0 179 -35t132 -96.5t79.5 -143.5t27.5 -177q0 -96 -23.5 -188t-61.5 -167t-91 -144.5t-108.5 -123t-116 -100t-112 -77t-98.5 -53.5q-11 -6 -30 -6q-6 0 -11 5t-5 11q0 12 20 28q56 34 112 82.5t114.5 121t103 155t73 190t28.5 219.5 q0 106 -21 189.5t-57 133.5t-80 75.5t-94 25.5q-88 0 -143.5 -70t-55.5 -177q0 -61 12.5 -111.5t32.5 -83t44 -57.5t50 -37.5t46 -18.5t36 -6q67 0 113 20q7 4 14.5 9t11.5 7.5t7 2.5q5 0 9 -5t4 -11q0 -10 -8 -18q-35 -37 -94 -57t-125 -20q-69 0 -126.5 20t-96 53 t-65 75.5t-38.5 86t-12 86.5z" />
<glyph unicode=":" horiz-adv-x="414" d="M106 151q0 36 26.5 68.5t74.5 32.5q44 0 73 -26.5t29 -69.5q0 -45 -28.5 -76t-74.5 -31q-49 0 -74.5 31t-25.5 71zM106 712q0 38 26 69.5t75 31.5q44 0 73 -26t29 -70q0 -29 -13 -53.5t-36.5 -38.5t-53.5 -14q-48 0 -74 31.5t-26 69.5z" />
<glyph unicode=";" horiz-adv-x="414" d="M106 134q0 17 8 34.5t21.5 31.5t30 25t33.5 17.5t32 6.5q10 0 16.5 -7t24.5 -35q37 -53 37 -85q0 -29 -22 -81q-64 -144 -131 -220l-7.5 -7.5t-7 -6.5t-6.5 -4t-7 -2q-4 0 -9 5.5t-5 11.5q0 4 6.5 15t7.5 13q48 82 48 144q0 33 -11 59.5t-24 40t-24 25.5t-11 19zM106 710 q0 24 10 46.5t34 39.5t57 17q44 0 73 -26t29 -70q0 -46 -29 -76t-74 -30q-48 0 -74 30.5t-26 68.5z" />
<glyph unicode="&#x3c;" horiz-adv-x="910" d="M66 364v116l778 331v-111l-651 -279l651 -278v-111z" />
<glyph unicode="=" horiz-adv-x="910" d="M66 212v101h778v-101h-778zM66 526v101h778v-101h-778z" />
<glyph unicode="&#x3e;" horiz-adv-x="910" d="M66 32v111l652 278l-652 279v111l778 -331v-116z" />
<glyph unicode="?" horiz-adv-x="882" d="M103 1179q0 16 19 27q44 27 119 47t174 20q57 0 105.5 -9t84 -23t63.5 -34.5t46 -42.5t30 -46.5t17 -47.5t5 -46q0 -44 -8 -84t-25 -76t-36 -66t-47.5 -64t-52 -59.5t-57 -61.5t-56.5 -62q-84 -99 -84 -146q0 -50 26 -85q14 -21 14 -30q0 -2 -1 -4t-3 -4t-5 -3.5t-7 -1.5 q-18 0 -84 52q-43 34 -58.5 57.5t-15.5 46.5q0 41 33 85q15 18 53.5 63t55.5 69q83 113 114.5 186.5t31.5 155.5q0 31 -6 59t-20.5 55.5t-36.5 48t-56.5 33t-78.5 12.5q-53 0 -94 -19t-63 -46q-52 -69 -58 -138q-3 -33 -15 -33q-7 0 -10.5 5t-6.5 17q-6 31 -6 193zM293 65 q0 35 24 65t69 30q41 0 67.5 -24.5t26.5 -64.5q0 -42 -26.5 -70.5t-68.5 -28.5q-45 0 -68.5 28.5t-23.5 64.5z" />
<glyph unicode="@" horiz-adv-x="1496" d="M109 396q0 99 30.5 197t82.5 181t124 154.5t154 121t174 78t182 28.5q134 0 237 -35t168.5 -98.5t98.5 -149.5t33 -191q0 -125 -59 -233t-164 -182q-55 -37 -115.5 -57.5t-112.5 -20.5q-55 0 -88 39t-39 115q-4 52 5 102q-30 -41 -54 -71t-57 -65.5t-62 -58.5t-63 -38.5 t-65 -15.5q-37 0 -62 23t-34.5 53t-9.5 63q0 241 195 403q51 42 128.5 81t131.5 39q43 0 89 -14q14 16 37 32t44 23q12 3 17 -6t2 -19q-23 -52 -42 -129t-30 -157t-11 -142q0 -81 23 -115.5t67 -34.5q26 0 57.5 13.5t65 44t60 73.5t43.5 107t17 139q0 90 -29.5 167.5 t-86 136t-146 92t-201.5 33.5q-135 0 -250 -53.5t-195 -145.5t-125 -219.5t-45 -273.5q0 -114 34.5 -206.5t96.5 -154.5t147.5 -95t187.5 -33q64 0 118 7t95.5 19t81 32t69.5 40.5t66 50.5q19 15 33.5 17.5t19.5 -8.5q7 -14 -29 -49q-72 -73 -204 -127t-286 -54 q-91 0 -172 20.5t-150.5 64.5t-119.5 107.5t-79 154t-29 200.5zM579 402q0 -38 8 -63.5t24 -25.5q37 0 98.5 65t123.5 151q34 145 69 237q-30 24 -76 24q-64 0 -116.5 -38.5t-85.5 -118.5q-45 -103 -45 -231z" />
<glyph unicode="A" horiz-adv-x="1160" d="M-106 11q0 14 20 14q44 0 74 8.5t51.5 30t35.5 46t31 67.5l416 1029q12 26 18.5 39t13.5 20.5t15 7.5q10 0 19.5 -12.5t22.5 -41.5q17 -40 185.5 -455t225.5 -552q23 -53 44.5 -89.5t40 -54.5t32 -25.5t29.5 -10.5q34 -7 70 -7q21 0 21 -14q0 -9 -15 -12.5t-61 -3.5 q-181 0 -314 3q-2 1 -7 1q-12 0 -18 0.5t-12.5 2t-9 4t-2.5 5.5q0 13 22 16q10 3 15.5 13.5t0.5 24.5l-133 342q-5 11 -17 11h-369q-11 0 -16 -13l-89 -228q-25 -64 -25 -101q0 -51 66 -51h26q14 0 19 -3t5 -11q0 -9 -6.5 -12.5t-21.5 -3.5q-27 0 -88.5 2.5t-87.5 2.5 l-72 -2q-72 -3 -124 -3q-17 0 -24 3.5t-7 12.5zM365 513q-1 -3 -1 -5q0 -7 8 -7h305q9 0 9 6q0 2 -1 4l-149 408q-3 15 -9 15t-9 -15z" />
<glyph unicode="B" horiz-adv-x="1172" d="M104 1234q0 15 37 15q51 0 133.5 -2.5t92.5 -2.5q43 0 109.5 2.5t92.5 2.5q72 0 130 -12t95 -33t64 -46t40 -54.5t19 -54t6 -49.5q0 -49 -13 -91.5t-38.5 -78t-52.5 -62.5t-66 -58q36 -12 70 -29t69 -40.5t64 -54t51.5 -65.5t35 -78.5t12.5 -90.5q0 -55 -16 -106.5 t-51.5 -98t-86.5 -81.5t-125.5 -55.5t-163.5 -20.5q-22 0 -119.5 5t-120.5 5q-55 0 -95 -2q-20 0 -59 -1.5t-55 -1.5q-33 0 -33 16q0 14 26 14q30 0 59 7q23 4 33 26.5t16 64.5q8 70 8 353v292q0 298 -3 351q-3 45 -17.5 66t-53.5 29q-20 5 -65 5q-29 0 -29 15zM471 244 q0 -86 9.5 -115t48.5 -45q46 -19 121 -19q25 0 50 5t53 20t49 37.5t35 61.5t14 88q0 57 -13 112t-50.5 116t-97.5 103q-49 35 -138 39q-30 2 -71 2q-10 0 -10 -12v-393zM471 740q0 -5 1.5 -9t5 -6.5t7 -4t9.5 -2.5t11 -1.5t12.5 -0.5h13.5t14.5 0.5t15.5 0.5q84 0 119 31 q68 56 68 176q0 44 -12.5 87.5t-37 82.5t-65.5 63t-92 24q-5 1 -15 1h-9h-7q-4 0 -12 -1t-11.5 -3t-7.5 -5.5t-6 -9.5t-2 -14v-409z" />
<glyph unicode="C" horiz-adv-x="1326" d="M92 642q0 48 8 99.5t28 114t60.5 126t96.5 115.5q94 86 220 131t304 45q108 0 241 -17q30 -4 85 -15t81 -13q25 -2 25 -20q0 -5 -1.5 -15.5t-3.5 -31t-3 -45.5q-2 -27 -2.5 -94.5t-2.5 -84.5q-1 -13 -3 -21t-6 -12.5t-11 -4.5q-17 0 -17 37q-2 39 -18 80t-46 72 q-43 45 -134.5 74t-202.5 29q-199 0 -312 -103q-58 -53 -93.5 -126t-47.5 -144.5t-12 -158.5q0 -114 33 -212.5t87 -166.5t123 -117t140.5 -72t139.5 -23q79 0 131 7t95.5 28t76.5 58q20 23 35.5 54t21.5 56q3 20 7.5 26.5t14.5 6.5q14 0 14 -25q0 -11 -5.5 -52.5t-14.5 -92 t-16 -76.5q-7 -21 -14.5 -30.5t-28.5 -17.5q-47 -19 -129.5 -28.5t-169.5 -9.5q-178 0 -318.5 42.5t-250.5 137.5q-205 180 -205 490z" />
<glyph unicode="D" horiz-adv-x="1551" d="M104 1234q0 15 37 15q49 0 135 -2.5t104 -2.5q19 0 109 2.5t146 2.5h72.5t74 -2t79 -5t77.5 -9.5t80 -16t75.5 -23.5t75.5 -32.5t67.5 -44t64.5 -56.5q70 -73 115 -179t45 -243q0 -145 -51 -264t-129 -198q-33 -34 -78 -64.5t-112 -62t-162 -50.5t-204 -19 q-54 0 -179.5 10t-173.5 10q-55 0 -95 -2q-20 0 -59 -1.5t-55 -1.5q-33 0 -33 16q0 14 26 14q30 0 59 7q23 4 33 26.5t16 64.5q8 70 8 353v292q0 298 -3 351q-3 45 -17.5 66t-53.5 29q-20 5 -65 5q-29 0 -29 15zM480 586q0 -273 3 -336q4 -106 18 -125q19 -28 73 -47.5 t144 -19.5q129 0 218.5 28t163.5 91q139 121 139 413q0 61 -10 118t-25.5 100t-37 82t-42.5 66t-44 49q-174 166 -471 166q-28 0 -63.5 -3.5t-44.5 -7.5q-20 -9 -20 -33q-1 -57 -1 -332v-209z" />
<glyph unicode="E" d="M104 1234q0 15 37 15q23 0 68.5 -1t65.5 -1q86 -3 105 -3q383 0 415 2q55 5 71 10q3 0 12.5 3.5t14.5 3.5q9 0 9 -16q0 -3 -2 -14t-5 -35.5t-6 -57.5q0 -5 -0.5 -22t-1.5 -33.5t-3 -34t-7 -28t-13 -10.5q-14 0 -14 23q0 34 -11 60q-9 26 -31 39t-80 20q-19 2 -111.5 5 t-124.5 3q-11 0 -11 -17v-420q0 -19 11 -19q219 0 266 4q62 5 80 25q19 22 26 22q12 0 12 -13q-20 -198 -20 -233q0 -31 -15 -31t-15 14v7q-3 26 -5 38.5t-8 29.5t-15.5 25t-27 15t-43.5 10q-48 5 -236 5q-10 0 -10 -16v-132v-257q1 -26 3.5 -44t8 -33.5t15.5 -25.5 t24 -17.5t35.5 -11.5t48.5 -6t64 -2q113 0 156 21q32 15 49 43t25 79q3 14 7 19.5t12 5.5q9 0 11 -7t2 -23q0 -28 -7.5 -93.5t-13.5 -90.5q-8 -30 -23.5 -36.5t-66.5 -6.5q-103 0 -245 5t-214 5q-55 0 -95 -2q-20 0 -59 -1.5t-55 -1.5q-33 0 -33 16q0 14 26 14q30 0 59 7 q23 4 33 26.5t16 64.5q8 70 8 353v292q0 298 -3 351q-3 45 -17.5 66t-53.5 29q-20 5 -65 5q-29 0 -29 15z" />
<glyph unicode="F" horiz-adv-x="1031" d="M104 1233q0 16 39 16q21 0 67 -1t67 -1q86 -3 105 -3q400 0 438 2q56 3 68 6q3 1 8.5 4t9.5 5t8 2q5 0 8.5 -5t3.5 -11q0 -4 -5.5 -27t-8.5 -47q0 -5 -3 -64t-5 -71q-3 -23 -16 -23q-15 0 -17 27q0 57 -26 84t-93 28l-256 6q-15 0 -15 -24v-414q0 -16 11 -16l213 2h19.5 h20.5h18.5t18.5 1t16.5 2.5t16.5 4t13.5 5.5t13 8t9.5 11q2 1 4.5 4.5t4 5l3.5 3.5t4.5 3t4.5 1q11 0 11 -16q0 -4 -2.5 -18.5t-6 -38.5t-5.5 -46q-6 -66 -6 -120q0 -32 -17 -32q-13 0 -13 23q0 99 -95 111q-41 5 -246 5q-11 0 -11 -14v-135q0 -283 8 -353q4 -42 17.5 -64.5 t47.5 -26.5q47 -7 83 -7q28 0 28 -14q0 -16 -36 -16q-60 0 -149.5 2.5t-102.5 2.5q-19 0 -98 -2.5t-113 -2.5q-18 0 -26.5 3.5t-8.5 12.5q0 14 25 14q30 0 59 7q23 4 33 26.5t16 64.5q8 70 8 353v292q0 298 -3 351q-2 31 -8 48.5t-21 29.5t-42 17q-20 5 -65 5q-29 0 -29 14z " />
<glyph unicode="G" horiz-adv-x="1469" d="M92 622q0 96 23.5 183t64.5 154.5t91 118.5t109 87q108 65 213.5 86.5t232.5 21.5q75 0 165 -10t128 -17q86 -16 132 -18q9 -1 14.5 -3.5t7 -6.5t1.5 -10q0 -3 -3 -29t-5.5 -89t-2.5 -154q0 -20 -4.5 -27.5t-14.5 -7.5q-13 0 -16 22q-11 89 -57 137q-45 49 -144 89 t-226 40q-43 0 -75.5 -3t-77.5 -12t-89.5 -31.5t-85.5 -56.5q-153 -128 -153 -406q0 -106 26 -201.5t76.5 -172t120 -132.5t160.5 -86.5t194 -30.5t141 18q32 14 32 61v156q0 146 -2 196q-1 44 -16 65t-55 29q-19 5 -65 5q-25 0 -25 13q0 17 35 17q48 0 134 -2.5t107 -2.5 q25 0 95.5 2.5t98.5 2.5q33 0 33 -17q0 -13 -22 -13q-37 0 -59.5 -8.5t-34.5 -30.5t-13 -60q-2 -50 -2 -200v-182q0 -33 -3.5 -42t-18.5 -18q-75 -39 -182 -56.5t-217 -17.5q-125 0 -236.5 23t-209 74t-168.5 126t-111.5 184t-40.5 243z" />
<glyph unicode="H" horiz-adv-x="1611" d="M104 1234q0 15 35 15q51 0 137 -2.5t102.5 -2.5t95 2.5t113.5 2.5t35 -15t-30 -15q-57 0 -81.5 -21t-27.5 -79q-3 -53 -3 -351v-35q0 -11 9 -11h634q10 0 10 11v35q0 298 -3 351q-3 45 -17.5 66t-53.5 29q-20 5 -65 5q-28 0 -28 15t34 15q51 0 137 -2.5t102.5 -2.5 t95 2.5t113.5 2.5t35 -15t-30 -15q-57 0 -81.5 -21t-27.5 -79q-3 -53 -3 -351v-292v-148.5t2 -111t6 -94.5q4 -41 17.5 -63.5t46.5 -26.5q47 -7 85 -7q26 0 26 -14q0 -16 -33 -16q-61 0 -152 2.5t-106 2.5q-16 0 -94 -2.5t-114 -2.5q-34 0 -34 16q0 14 26 14q30 0 59 7 q23 4 33 26.5t16 64.5q8 70 8 353v146q0 10 -10 10h-634q-9 0 -9 -10v-146v-148.5t2 -111t6 -94.5q4 -41 17 -63.5t47 -26.5q47 -7 85 -7q26 0 26 -14q0 -16 -33 -16q-61 0 -152 2.5t-106.5 2.5t-93.5 -2.5t-115 -2.5q-33 0 -33 16q0 14 26 14q30 0 59 7q23 4 33 26.5 t16 64.5q8 70 8 353v292q0 298 -3 351q-3 45 -17.5 66t-53.5 29q-20 5 -65 5q-29 0 -29 15z" />
<glyph unicode="I" horiz-adv-x="749" d="M126 1236q0 13 40 13q34 0 114 -2.5t102 -2.5q17 0 92.5 2.5t109.5 2.5q35 0 35 -13q0 -17 -27 -17q-39 0 -61.5 -8t-35 -30t-14.5 -62q-3 -53 -3 -351v-292v-94.5t0.5 -80.5t1 -77.5t1.5 -59.5t3 -51q4 -38 18 -57.5t49 -23.5q47 -7 84 -7q27 0 27 -14q0 -16 -32 -16 q-63 0 -153.5 2.5t-104.5 2.5q-16 0 -94 -2.5t-115 -2.5q-33 0 -33 16q0 14 26 14q59 0 80.5 17t27.5 72q8 70 8 362v292q0 298 -3 351q-4 60 -30 80t-87 20q-26 0 -26 17z" />
<glyph unicode="J" horiz-adv-x="689" d="M32 -420q0 12 36 30q34 18 79 64q21 21 37.5 44.5t29 45t21.5 54t15.5 55.5t10.5 66t6.5 70t3.5 82t1 87.5v100.5v13v476q0 298 -3 351q-3 45 -17.5 66t-53.5 29q-20 5 -65 5q-29 0 -29 15t37 15q50 0 135 -2.5t101 -2.5t94.5 2.5t114.5 2.5q34 0 34 -15t-30 -15 q-57 0 -81.5 -21t-27.5 -79q-3 -53 -3 -351v-307q0 -34 2.5 -112.5t2.5 -120.5q0 -183 -40 -294q-28 -82 -98 -163t-184 -151q-32 -19 -83 -43q-19 -10 -33 -10q-4 0 -7 1.5t-4.5 5t-1.5 6.5z" />
<glyph unicode="K" horiz-adv-x="1273" d="M104 1234q0 15 37 15q50 0 134.5 -2.5t97.5 -2.5q18 0 94.5 2.5t106.5 2.5q35 0 35 -15t-23 -15q-57 0 -81 -21t-27 -79q-3 -53 -3 -351v-73h8q16 18 167.5 175t178.5 190q5 5 13 15q25 30 37 45t22.5 33.5t10.5 30.5q0 29 -23 33q-21 5 -21 17q0 15 26 15q16 0 82 -2.5 t89 -2.5q26 0 97 2.5t97 2.5q28 0 28 -15t-24 -15q-47 0 -97 -18q-86 -34 -179 -125q-48 -47 -184 -182t-174 -176q42 -55 219.5 -247t229.5 -242q5 -5 15 -14q46 -44 72 -67.5t68.5 -53t81.5 -45.5q60 -24 103 -24q22 0 22 -14q0 -8 -8.5 -12t-31.5 -4h-144q-80 0 -115 3 q-62 6 -102.5 29.5t-102.5 78.5q-50 44 -226.5 247.5t-208.5 248.5l-18 25h-8v-151q0 -283 5 -354q5 -82 59 -90q47 -7 81 -7q22 0 22 -14q0 -16 -31 -16q-53 0 -139 2.5t-100 2.5q-16 0 -94 -2.5t-115 -2.5q-33 0 -33 16q0 14 26 14q30 0 59 7q23 4 33 26.5t16 64.5 q8 70 8 353v292q0 298 -3 351q-3 45 -17.5 66t-53.5 29q-20 5 -65 5q-29 0 -29 15z" />
<glyph unicode="L" horiz-adv-x="1003" d="M114 1234q0 15 37 15q43 0 126 -2.5t101 -2.5q17 0 103.5 2.5t121.5 2.5t35 -15t-29 -15q-34 0 -65 -5q-32 -6 -45.5 -27.5t-15.5 -67.5q-3 -53 -3 -351v-292q0 -188 5 -262t29 -95q23 -20 65.5 -28t135.5 -8q79 0 122.5 8t71.5 39q15 16 28 46t16 53q2 25 17 25 q9 0 11 -6t2 -22q0 -20 -7.5 -90t-16.5 -101q-4 -15 -8 -22.5t-15.5 -13.5t-29.5 -7.5t-51 -1.5q-105 0 -252.5 5t-230.5 5q-55 0 -95 -2q-20 0 -59 -1.5t-55 -1.5q-33 0 -33 16q0 14 26 14q30 0 59 7q23 4 33 26.5t16 64.5q8 70 8 353v292q0 298 -3 351q-3 45 -17.5 66 t-53.5 29q-20 5 -55 5q-29 0 -29 15z" />
<glyph unicode="M" horiz-adv-x="1730" d="M25 13q0 12 26 12q25 0 50 5q17 3 29 15.5t19.5 33t12 39t7.5 43.5l165 1069q7 43 27 43q7 0 13 -4t14 -15.5t19 -32.5l452 -922l452 934q10 21 18 30.5t18 9.5q23 0 30 -52l151 -1015q11 -82 28.5 -119.5t52.5 -48.5q54 -16 103 -16q26 0 26 -12q0 -18 -43 -18 q-48 0 -170.5 2.5t-166.5 5.5q-47 4 -47 19q0 10 17 17q12 4 12 35q0 15 -3 37l-99 721h-7l-362 -739q-29 -60 -40 -76.5t-21 -16.5q-9 0 -19.5 15t-30.5 53q-2 3 -3 5t-2.5 4.5t-2.5 4.5q-164 314 -191 377q-6 14 -36 75.5t-71 144t-66 135.5h-6l-87 -647q-5 -45 -5 -78 q0 -61 120 -61q25 0 25 -12q0 -18 -40 -18t-102 2.5t-72 2.5q-13 0 -73.5 -2.5t-90.5 -2.5t-30 18z" />
<glyph unicode="N" horiz-adv-x="1570" d="M78 11q0 14 26 14q28 0 46 2.5t32.5 6t22.5 17t13.5 24t8 40t3 52.5t1.5 72l14 977q0 57 22 57q6 0 11 -2.5t11 -8t11 -10.5t14 -15t15 -16q5 -6 22 -23.5t46.5 -49t65.5 -69t82 -85t93 -95.5t101 -102t103 -104q49 -48 135 -137.5t153 -159.5t78 -81h8l-16 745 q-1 55 -7.5 85.5t-24.5 47.5t-42.5 21.5t-70.5 4.5q-26 0 -26 15t43 15q49 0 119 -2.5t82 -2.5q1 0 57.5 2.5t104.5 2.5q38 0 38 -15t-30 -15q-66 0 -87.5 -28.5t-23.5 -117.5l-18 -1046q0 -52 -22 -52q-19 0 -56 36q-59 57 -244 242.5t-245 245.5q-62 62 -134 136.5 t-120 125t-93 99.5t-48 52h-5l19 -692q3 -92 16.5 -133t40.5 -51q33 -11 86 -11q29 0 29 -14q0 -16 -39 -16q-63 0 -131.5 2.5t-74.5 2.5q-3 0 -15 -0.5t-29.5 -1t-38 -1.5t-46.5 -1.5t-50 -0.5q-12 0 -19 1t-12 4.5t-5 10.5z" />
<glyph unicode="O" horiz-adv-x="1537" d="M92 622q0 62 11.5 125t37 127.5t63.5 122.5t94 108.5t124.5 87.5t159 58.5t194.5 21.5q153 0 278.5 -44t212 -124t133.5 -196t47 -257q0 -142 -49 -266.5t-136.5 -216t-217.5 -144.5t-284 -53q-100 0 -187 20.5t-154 56.5t-122 86t-92.5 108t-63.5 122t-37.5 128.5 t-11.5 128.5zM320 673q0 -103 22 -196.5t65.5 -170t104.5 -133t142.5 -87.5t174.5 -31q29 0 58.5 4.5t68.5 18.5t73.5 36.5t69.5 64t59.5 96t40 136t15.5 179.5q0 137 -37.5 251t-103 190.5t-154.5 119t-191 42.5q-43 0 -83 -7t-81.5 -24t-76.5 -43.5t-66.5 -67.5t-53.5 -94 t-34.5 -125.5t-12.5 -158.5z" />
<glyph unicode="P" horiz-adv-x="1086" d="M104 1234q0 15 37 15q49 0 135 -2.5t104 -2.5q33 0 117 2.5t123 2.5q208 0 309 -95q32 -31 57.5 -83.5t25.5 -113.5q0 -116 -53 -208t-146 -142.5t-210 -50.5q-1 0 -8.5 -0.5t-10.5 0t-9.5 0.5t-10 1.5t-7.5 3t-6 5t-2 7.5q0 9 10 13t36 4q36 0 74.5 19.5t72 53.5 t55 87.5t21.5 113.5q0 162 -98 249q-70 65 -166 65h-13.5h-13.5t-12 -0.5t-11.5 -1.5t-9 -2.5t-8 -4.5t-5.5 -7t-4 -9.5t-1 -12.5v-664q0 -283 8 -354q5 -41 18 -63.5t47 -26.5q47 -7 84 -7q27 0 27 -14q0 -16 -31 -16q-63 0 -153.5 2.5t-103.5 2.5q-16 0 -94 -2.5 t-115 -2.5q-33 0 -33 16q0 14 26 14q30 0 59 7q23 4 33 26.5t16 64.5q8 70 8 353v292q0 298 -3 351q-3 45 -17.5 66t-53.5 29q-20 5 -65 5q-29 0 -29 15z" />
<glyph unicode="Q" horiz-adv-x="1542" d="M92 630q0 60 11.5 121t38 124.5t64.5 121t94 108t123.5 88t157 59t190.5 21.5q148 0 272 -44.5t212.5 -124.5t138 -198.5t49.5 -261.5q0 -70 -13.5 -136.5t-38 -120t-53.5 -99.5t-62.5 -82.5t-63 -62.5t-58.5 -45l334 -171q386 -198 684 -198q173 0 323 59q24 8 25 8 q4 0 7.5 -2t5 -5.5t1.5 -7.5q0 -12 -19 -20q-260 -125 -526 -125q-183 0 -337 51t-365 175l-260 153q-50 -19 -122.5 -31t-138.5 -12q-89 0 -168.5 16t-142 45t-116 68.5t-93 87.5t-69.5 101.5t-48.5 111t-27.5 114.5t-9 114zM322 668q0 -143 41 -261t111.5 -194t161.5 -117 t192 -41q32 0 63 4.5t70.5 18.5t73 37.5t67 65.5t57 97t38 137.5t14.5 183.5q0 116 -27.5 215t-74.5 168t-108.5 117.5t-129.5 71t-138 22.5q-67 0 -126 -17t-112 -57t-91 -99.5t-60 -149.5t-22 -202z" />
<glyph unicode="R" horiz-adv-x="1252" d="M104 1234q0 15 37 15q51 0 134 -2.5t94 -2.5q29 0 118.5 2.5t114.5 2.5q93 0 168.5 -14.5t136.5 -56.5q42 -29 78 -90.5t36 -136.5q0 -64 -19.5 -121t-69 -120.5t-131.5 -130.5q15 -19 69 -86.5t70.5 -88.5t57.5 -71.5t61.5 -75t49.5 -57t53 -57.5q32 -34 62.5 -57.5 t56.5 -34.5t38 -14.5t28 -6.5q28 -5 46 -5q20 0 20 -14q0 -16 -31 -16h-158q-69 0 -107 7t-70 25q-35 18 -71.5 53t-70 77t-85.5 114q-25 34 -64.5 90t-65 91.5t-35.5 46.5q-10 12 -30 12l-144 3q-13 0 -13 -13v-23q0 -285 8 -355q5 -42 18 -64.5t47 -26.5q50 -7 81 -7 q20 0 20 -14q0 -16 -33 -16q-57 0 -148.5 2.5t-95.5 2.5q-11 0 -88 -2.5t-114 -2.5q-33 0 -33 16q0 14 26 14q30 0 59 7q23 4 33 26.5t16 64.5q8 70 8 353v292q0 298 -3 351q-3 45 -17.5 66t-53.5 29q-20 5 -65 5q-29 0 -29 15zM468 637q0 -10 1.5 -15.5t4.5 -8.5t9 -5 q52 -18 126 -18q49 0 71.5 6t46.5 23q42 31 70 92.5t28 156.5q0 67 -17.5 121t-44 87.5t-61 55.5t-67 30.5t-64.5 8.5q-7 0 -21.5 0.5t-21.5 0.5t-18.5 -1t-17.5 -3t-12.5 -5t-9 -8.5t-2.5 -13.5v-504z" />
<glyph unicode="S" horiz-adv-x="964" d="M149 71q0 70 9 217q3 44 19 44q17 0 17 -28q0 -34 15 -85q26 -87 89.5 -127.5t147.5 -40.5q54 0 97.5 17t70 45t40.5 61t14 67q0 68 -33 129t-129 136l-77 59q-133 105 -189 197.5t-56 196.5q0 138 105.5 226t277.5 88q114 0 221 -29q23 -5 23 -20q0 -6 -1 -22.5 t-2.5 -36t-2.5 -57.5t-1 -83q0 -50 -17 -50t-17 30q0 18 -10.5 50t-32.5 60q-65 81 -181 81q-91 0 -144.5 -47.5t-53.5 -123.5q0 -58 37.5 -110t138.5 -128l47 -35q150 -113 210.5 -208.5t60.5 -214.5q0 -82 -36 -158.5t-119 -130.5q-105 -68 -264 -68q-146 0 -242 43 q-20 8 -26 18.5t-6 37.5z" />
<glyph unicode="T" horiz-adv-x="1177" d="M23 1050q0 17 15 94t20 97q7 32 20 32q4 0 25.5 -9.5t45.5 -11.5q80 -8 166 -8h657q51 0 114 8q42 8 46 8q8 0 10.5 -7t2.5 -27q0 -17 -2.5 -93.5t-2.5 -98.5q-3 -27 -15 -27q-3 0 -5.5 1t-4 3l-3 4t-2.5 5.5t-2 6t-1.5 7.5t-0.5 8t-0.5 8.5t-0.5 8.5q-3 37 -49 63.5 t-147 28.5l-209 5v-680v-148.5t2 -111t6 -94.5q4 -41 17.5 -63.5t47.5 -26.5q47 -7 85 -7q27 0 27 -14q0 -16 -32 -16q-63 0 -154.5 2.5t-106.5 2.5t-93.5 -2.5t-115.5 -2.5q-33 0 -33 16q0 14 27 14q60 0 80.5 19t26.5 79q8 70 8 353v680l-247 -7q-75 -2 -109 -11.5 t-52 -35.5q-21 -33 -27 -59q-5 -19 -19 -19q-8 0 -11.5 5.5t-3.5 20.5z" />
<glyph unicode="U" horiz-adv-x="1412" d="M33 1234q0 15 37 15q49 0 135.5 -2.5t106.5 -2.5q17 0 94 2.5t110 2.5q36 0 36 -15t-26 -15q-58 0 -82 -21t-28 -79q-3 -53 -3 -351v-232q0 -171 32 -262.5t98 -145.5q82 -68 207 -68q61 0 121.5 21.5t106.5 67.5q27 27 45.5 63t28.5 71t15.5 86t6.5 90.5t1 101.5v207 q0 298 -3 351q-3 45 -17.5 66t-54.5 29q-19 5 -60 5q-28 0 -28 15t35 15q17 0 37 -0.5t37.5 -0.5t35 -0.5t32 -1t25.5 -1t18 -1.5h6q5 0 78 2.5t111 2.5q35 0 35 -15t-30 -15q-58 0 -82 -20.5t-28 -79.5q-3 -53 -3 -351v-178q0 -79 -5.5 -140.5t-20.5 -131t-48 -127 t-83 -99.5q-81 -70 -165.5 -95t-179.5 -25q-45 0 -80.5 2.5t-89 12.5t-105 35t-94.5 64q-45 41 -76 94t-51 141.5t-20 204.5v242q0 298 -3 351q-3 45 -17.5 66t-54.5 29q-19 5 -64 5q-29 0 -29 15z" />
<glyph unicode="V" horiz-adv-x="1200" d="M-92 1234q0 15 44 15q48 0 131.5 -2.5t109.5 -2.5q15 0 86 2.5t117 2.5q39 0 39 -15t-25 -15q-40 0 -60.5 -9t-20.5 -37q0 -31 38 -128l285 -753h7q26 68 103 259.5t141.5 355t82.5 211.5q14 39 14 61q0 14 -8 22.5t-23 12t-27 4.5t-30 1q-27 0 -27 14q0 9 10.5 12.5 t35.5 3.5q49 0 109.5 -2.5t64.5 -2.5q11 0 69.5 2.5t85.5 2.5q35 0 35 -15t-26 -15q-53 0 -82 -19q-18 -13 -38.5 -45t-51.5 -105q-37 -90 -103.5 -236.5t-96.5 -213.5q-58 -132 -131 -301t-89 -204q-2 -5 -7 -15q-30 -69 -42 -88.5t-28 -19.5q-15 0 -25.5 18t-36.5 83 l-419 1013q-27 66 -52.5 90t-72.5 37q-26 6 -65 6q-21 0 -21 15z" />
<glyph unicode="W" horiz-adv-x="1799" d="M-30 1234q0 15 36 15q38 0 83 -1t75.5 -2.5t34.5 -1.5t30.5 1.5t69 2.5t84.5 1q35 0 35 -15t-30 -15t-44.5 -9t-14.5 -34q0 -18 36 -152q10 -38 41 -142.5t65 -217t64.5 -211.5t42.5 -135h4l322 866q21 60 41 60q12 0 20 -13t23 -51q2 -3 2.5 -4.5t1.5 -4t2 -5.5 l345 -836h5q22 84 220 743q17 57 17 97q0 49 -80 49q-28 0 -28 15t38 15q39 0 78.5 -1t65 -2.5t29.5 -1.5l52 2q53 3 86 3q30 0 30 -13q0 -17 -24 -17q-35 0 -58 -8q-8 -3 -15.5 -9t-14.5 -16.5t-12 -19.5t-12 -27t-11.5 -29.5t-13 -36t-13.5 -38.5q-104 -285 -333 -986 q-10 -33 -15.5 -47t-13.5 -22t-18 -8q-7 0 -12 3.5t-11 14t-12.5 24.5t-16.5 39l-345 833h-4q-256 -683 -323 -826q-2 -4 -5 -12q-23 -48 -32 -62t-23 -14q-11 0 -18.5 12.5t-19.5 48.5l-351 1053q-1 2 -2 6q-9 27 -13.5 39.5t-13 30.5t-16 26t-19.5 16.5t-27.5 11.5 t-36.5 3q-27 0 -27 15z" />
<glyph unicode="X" horiz-adv-x="1180" d="M-35 10q0 15 24 15q29 0 60 8q35 10 63.5 36.5t72.5 88.5l318 453l-286 472q-41 68 -87.5 102t-119.5 34q-16 0 -16 17q0 13 33 13q15 0 111.5 -2.5t140.5 -2.5q7 0 74 2.5t103 2.5q33 0 33 -15t-25 -15t-44.5 -7.5t-19.5 -25.5q0 -17 16 -48q32 -59 68 -122t79.5 -136.5 t63.5 -108.5q209 320 226 350q18 32 18 63q0 35 -81 35q-20 0 -20 15t34 15q37 0 96 -2.5t70 -2.5q13 0 71 2.5t92 2.5q30 0 30 -15t-27 -15q-24 0 -60 -10q-26 -6 -51 -35.5t-69 -93.5l-272 -392q19 -28 179 -290.5t184 -293.5q61 -79 159 -79q22 0 22 -14q0 -16 -32 -16 h-50q-170 0 -298 3q-33 2 -45 5t-12 12q0 10 12.5 15.5t18.5 10.5t-4 30q-151 269 -262 451l-246 -396q-10 -16 -15.5 -30.5t-7.5 -28.5t6 -24.5t25 -14.5q20 -3 38 -3q8 0 14.5 -4t6.5 -11q0 -15 -34 -15h-30l-65 3q-65 2 -90 2q-16 0 -71.5 -2.5t-67.5 -2.5h-29 q-25 0 -25 15z" />
<glyph unicode="Y" horiz-adv-x="1111" d="M-81 1234q0 15 32 15q11 0 94.5 -2.5t114.5 -2.5q12 0 73.5 2.5t103.5 2.5q24 0 24 -15q0 -6 -7 -9t-29 -9q-11 -3 -17 -11.5t-6 -18.5q0 -16 20 -56q25 -54 281 -497q9 21 124 227t126 230q23 51 23 86q0 33 -35 41q-30 7 -30 17q0 9 6.5 12t21.5 3q29 0 81.5 -2.5 t74.5 -2.5q19 0 91 2.5t87 2.5q30 0 30 -13q0 -17 -32 -17q-35 0 -73 -19q-24 -12 -41.5 -28.5t-48.5 -53.5q-40 -49 -166.5 -260.5t-149.5 -267.5q-9 -21 -14.5 -41.5t-7.5 -44t-2.5 -38t-0.5 -42.5v-136q0 -95 4 -165q6 -83 69 -91q47 -7 83 -7q27 0 27 -14q0 -16 -35 -16 q-60 0 -150 2.5t-104 2.5q-19 0 -97 -2.5t-111 -2.5q-36 0 -36 16q0 14 26 14q59 0 82.5 20.5t27.5 77.5q5 70 5 165v136q0 43 -6 76t-12.5 51t-19.5 48q-9 20 -129.5 217.5t-162.5 259.5q-60 89 -115 122q-41 21 -70 21q-24 0 -24 15z" />
<glyph unicode="Z" horiz-adv-x="1177" d="M98 16q0 13 25 50q89 138 333 515.5t369 574.5h-326q-176 0 -238 -35q-38 -21 -62 -58.5t-28 -70.5q-4 -30 -20 -30q-8 0 -10.5 6t-2.5 23q0 36 33 239q4 30 20 30q6 0 13.5 -2.5t21 -5t31.5 -3.5q118 -5 305 -5h506q29 0 29 -13q0 -7 -14 -31q-42 -68 -89.5 -144 t-83.5 -132.5t-95 -148t-85 -132t-95.5 -147t-85 -130t-95 -144.5t-85.5 -130h407q212 0 261 90q21 40 30 80q5 26 16 26q10 0 13.5 -10.5t3.5 -40.5q0 -36 -11.5 -100t-21.5 -102q-4 -16 -10 -25t-16 -13.5t-24 -4.5q-132 0 -424 4t-467 4q-28 0 -28 16z" />
<glyph unicode="[" horiz-adv-x="596" d="M168 -176v1392q0 14 4.5 18t21.5 4h317q20 0 20 -16q0 -14 -28 -16q-132 -13 -180 -35q-11 -49 -11 -147v-1005q0 -106 11 -155q44 -22 178 -35q15 -1 21.5 -4.5t6.5 -11.5q0 -15 -20 -15h-315q-18 0 -22 3.5t-4 22.5z" />
<glyph unicode="\" horiz-adv-x="899" d="M30 1214q-10 15 2 20l60 37q12 8 22 -8l757 -1228q12 -21 0 -29l-58 -38q-12 -7 -22 10z" />
<glyph unicode="]" horiz-adv-x="596" d="M66 -187q0 14 29 16q133 13 179 35q11 49 11 147v1006q0 105 -11 154q-44 22 -178 35q-15 1 -21.5 4.5t-6.5 11.5q0 16 20 16h315q11 0 15.5 -0.5t7.5 -4t3 -7.5v-15v-1392q0 -14 -4 -17.5t-22 -3.5h-317q-20 0 -20 15z" />
<glyph unicode="^" horiz-adv-x="910" d="M78 497l318 744h117l318 -744h-113l-264 618l-263 -618h-113z" />
<glyph unicode="_" horiz-adv-x="829" d="M0 -125h829v-82h-829v82z" />
<glyph unicode="`" horiz-adv-x="1537" d="M481 1556q0 9 22 15q53 16 111 42q26 11 32 11q3 0 5.5 -3.5t8 -14t11.5 -18.5t25 -27.5t44.5 -44t57 -51.5t58.5 -47q6 -4 16 -10t14.5 -10.5t4.5 -9.5t-6 -8t-13 -3q-16 0 -147 55.5t-189 82.5q-15 6 -28 14t-20 15t-7 12z" />
<glyph unicode="a" d="M-92 10q0 15 17 15q7 0 22 1t21 1q47 6 72 34.5t50 89.5l381 881q23 56 43 56q11 0 18.5 -5.5t12 -13t12.5 -26.5q18 -39 172 -398.5t200 -463.5q20 -46 39 -77t35 -45.5t27 -20.5t23 -8q33 -5 55 -5q20 0 20 -15q0 -6 -4 -9t-17.5 -4.5t-41.5 -1.5q-157 0 -280 3 q-3 1 -7 1q-11 0 -16 0.5t-11 2t-8 3.5t-2 5q0 13 19 15q8 1 12.5 10.5t0.5 21.5l-113 285q-4 10 -14 10h-344q-10 0 -14 -10l-77 -191q-22 -53 -22 -86q0 -20 13 -30t45 -10h22q21 0 21 -15t-23 -15q-24 0 -82 2.5t-81 2.5q-4 0 -31 -1t-65.5 -2.5t-72.5 -1.5q-27 0 -27 15 zM326 432q2 -3 6 -3h282q7 0 7 5q0 2 -1 4l-137 353q-5 13 -7 13q-4 0 -8 -13l-142 -351q-1 -2 -1 -4t1 -4z" />
<glyph unicode="b" horiz-adv-x="1061" d="M92 1048q0 14 33 14q44 0 116 -1.5t81 -1.5q39 0 118 1.5t101 1.5q75 0 133 -15t90.5 -37.5t53 -52.5t27 -55t6.5 -51q0 -75 -46.5 -138.5t-117.5 -109.5q48 -15 92.5 -40.5t85.5 -62.5t66 -89.5t25 -111.5q0 -58 -23.5 -111.5t-69.5 -98t-122.5 -71t-173.5 -26.5 q-19 0 -119 4t-122 4q-5 0 -33.5 -1t-48.5 -1q-70 -3 -101 -3q-29 0 -29 15t24 15q52 0 70.5 15.5t23.5 63.5q7 60 7 301v249q0 254 -2 299q-3 46 -31.5 63.5t-89.5 17.5q-24 0 -24 14zM428 215q0 -72 9 -98.5t43 -40.5q42 -16 104 -16q32 0 61.5 9.5t57 30.5t44 62t16.5 96 q0 27 -6.5 57t-21 64.5t-43 69t-67.5 60.5q-50 37 -126 37h-62q-9 0 -9 -10v-321zM428 630q0 -5 2 -8.5t7 -5.5t9.5 -3.5t13.5 -2t14.5 -0.5t16 0.5t15.5 0.5q84 0 114 24q67 52 67 150q0 37 -11 73.5t-32.5 68t-57.5 51t-81 19.5q-49 0 -64 -3q-13 -2 -13 -24v-340z" />
<glyph unicode="c" horiz-adv-x="1168" d="M79 546q0 41 8 85t25.5 96.5t53 106.5t84.5 98q84 74 195.5 111.5t268.5 37.5q92 0 212 -14q23 -4 72.5 -12.5t73.5 -11.5q22 -2 22 -16q0 -4 -1.5 -13t-3 -26.5t-3.5 -38.5q-2 -27 -3 -85t-2 -68q-2 -35 -19 -35q-15 0 -15 30q-3 79 -56 132q-39 37 -112.5 59.5 t-170.5 22.5q-65 0 -114 -8t-88 -25.5t-73 -45.5q-134 -116 -134 -367q0 -97 28.5 -180t75 -139.5t106.5 -97t122 -59t122 -18.5q106 0 161.5 14t97.5 60q18 21 32 48t18 47q2 17 5.5 22.5t12.5 5.5q4 0 8 -3.5t6 -9.5t3 -12q0 -16 -11 -86t-21 -102q-5 -18 -12 -26t-26 -15 q-78 -31 -264 -31q-317 0 -501 153q-183 154 -183 416z" />
<glyph unicode="d" horiz-adv-x="1377" d="M92 1048q0 14 33 14q42 0 118 -1.5t92 -1.5q17 0 102.5 1.5t135.5 1.5q53 0 82.5 -0.5t84.5 -3.5t91 -8.5t87 -17.5t88.5 -29t79 -43t74.5 -59q61 -61 99.5 -151t38.5 -207q0 -124 -45.5 -225t-114.5 -169q-28 -28 -68 -54t-99 -52.5t-143 -42.5t-179 -16q-48 0 -164 8 t-159 8q-5 0 -33.5 -1t-48.5 -1q-70 -3 -101 -3q-29 0 -29 15t24 15q52 0 70.5 15.5t23.5 63.5q7 60 7 301v249q0 254 -2 299q-3 46 -31.5 63.5t-89.5 17.5q-24 0 -24 14zM435 497q0 -228 3 -285q4 -84 16 -99q17 -23 65 -39.5t127 -16.5q69 0 122.5 8.5t103 29.5t92.5 57 q124 102 124 351q0 123 -39.5 212.5t-95.5 139.5q-48 42 -103 70.5t-111 41.5t-100 17.5t-95 4.5h-5q-24 0 -37 -0.5t-31 -4t-26 -11.5t-8 -22q-2 -48 -2 -275v-179z" />
<glyph unicode="e" horiz-adv-x="954" d="M92 1048q0 14 33 14q42 0 118 -1.5t92 -1.5q6 0 110 -0.5t189.5 -0.5t98.5 1q8 0 62 8q3 0 7.5 2t8.5 3t7 1q10 0 10 -13q0 -3 -2 -12t-5 -30t-5 -49q0 -5 -0.5 -21t-1.5 -30.5t-3.5 -30t-7.5 -25t-12 -9.5q-11 0 -11 18q0 31 -10 52q-6 11 -10.5 17.5t-14.5 14t-28 12 t-44 7.5q-16 2 -106 4t-122 2q-10 0 -10 -13v-348q0 -16 10 -16q213 0 255 5q51 4 70 21l8.5 8.5t8.5 7.5t6 2q5 0 8 -4.5t3 -10.5q-17 -169 -17 -197q0 -32 -16 -32q-13 0 -13 12q0 3 -1.5 21.5t-3.5 29.5q-4 15 -12 25.5t-25.5 19t-44.5 10.5q-17 2 -104.5 4t-123.5 2 q-8 0 -8 -14v-113q0 -13 -0.5 -62t-0.5 -88.5t1 -58.5q2 -71 42.5 -94.5t154.5 -23.5q94 0 138 19q27 12 41 36t22 68q4 21 17 21t13 -33q0 -24 -7.5 -79.5t-13.5 -76.5q-7 -26 -20 -31t-57 -5q-90 0 -231 4t-208 4q-5 0 -33.5 -1t-48.5 -1q-70 -3 -101 -3q-29 0 -29 15 t24 15q52 0 70.5 15.5t23.5 63.5q7 60 7 301v249q0 254 -2 299q-3 46 -31.5 63.5t-89.5 17.5q-24 0 -24 14z" />
<glyph unicode="f" horiz-adv-x="940" d="M92 1048q0 14 34 14q42 0 117.5 -1.5t91.5 -1.5q20 0 105.5 -1t149.5 -2h26q51 0 105 2q67 2 88 7q4 1 11.5 4.5t12.5 3.5q3 0 6 -4t3 -9q0 -4 -1.5 -11.5t-4.5 -21.5t-5 -30q0 -3 -1 -45t-5.5 -69.5t-15.5 -27.5q-18 0 -18 22q0 48 -21.5 71.5t-79.5 25.5l-242 4 q-13 0 -13 -19v-342q0 -14 10 -14l204 3h21h22.5t20 0.5t20.5 2t16.5 4.5t16 7.5t10.5 11.5l5.5 5.5l5 5t4 3t5.5 1.5q8 0 8 -14q0 -3 -1.5 -15.5t-4.5 -34.5t-5 -40q-5 -43 -5 -103q0 -32 -17 -32q-4 0 -7 3t-4.5 7.5t-1.5 9.5q0 19 -10 43q-15 47 -69 51q-55 5 -234 5 q-10 0 -10 -11v-116q0 -221 8 -296q4 -34 16 -52t42 -22q30 -5 72 -5q24 0 24 -15t-32 -15q-53 0 -137 2.5t-96 2.5q-17 0 -87 -2.5t-99 -2.5q-30 0 -30 15q0 6 5.5 10.5t16.5 4.5q52 0 70.5 15.5t23.5 63.5q7 60 7 301v249q0 254 -2 299q-3 47 -31 64t-90 17q-24 0 -24 14z " />
<glyph unicode="g" horiz-adv-x="1298" d="M79 529q0 82 21 156t57.5 131t81 100.5t96.5 74.5q95 55 188 72.5t205 17.5q29 0 63 -1.5t64 -4t57.5 -6t46.5 -6t28 -4.5q87 -14 116 -16q12 -1 16 -4.5t4 -11.5q0 -2 -2.5 -24.5t-5 -76t-2.5 -131.5q0 -32 -19 -32q-13 0 -16 19q-7 72 -49 115q-40 42 -123 75t-194 33 q-40 0 -65.5 -1.5t-65.5 -9t-78 -25.5t-74 -46q-133 -110 -133 -344q0 -151 61 -270t177 -186.5t269 -67.5q68 0 103 15q28 12 28 49v130q0 123 -2 166q-1 46 -30 63.5t-89 17.5q-9 0 -16 4.5t-7 10.5q0 8 7.5 10.5t23.5 2.5q43 0 125 -1.5t99 -1.5q23 0 85 1.5t86 1.5 q16 0 23 -2.5t7 -10.5q0 -6 -5.5 -10.5t-12.5 -4.5q-49 0 -72 -17.5t-24 -63.5q-2 -43 -2 -170v-155q0 -29 -2.5 -36t-16.5 -14q-129 -63 -356 -63q-110 0 -208 19.5t-184.5 62.5t-149 106.5t-98.5 156.5t-36 207z" />
<glyph unicode="h" horiz-adv-x="1437" d="M92 1048q0 14 31 14q44 0 121.5 -1.5t92.5 -1.5q14 0 87.5 1.5t106.5 1.5q30 0 30 -14t-27 -14q-49 0 -71 -17t-25 -64q-3 -45 -3 -311v-30q0 -10 10 -10h550q9 0 9 10v30q0 221 -4 311q-3 46 -31 63.5t-89 17.5q-24 0 -24 14t32 14q44 0 124 -1.5t94 -1.5q15 0 85.5 1.5 t102.5 1.5q31 0 31 -14t-26 -14q-16 0 -43.5 -5t-39 -22t-13.5 -54q-3 -45 -3 -299v-249q0 -241 6 -302q4 -34 16 -51.5t42 -21.5q31 -5 75 -5q10 0 16.5 -5t6.5 -10q0 -15 -30 -15q-54 0 -135.5 2.5t-94.5 2.5q-14 0 -88 -2.5t-105 -2.5q-32 0 -32 15q0 5 6.5 10t17.5 5 q37 0 55 6t27.5 22.5t13.5 50.5q7 60 7 298v107q0 4 -3 6.5t-6 2.5h-550q-10 0 -10 -9v-107q0 -222 8 -299q4 -34 15 -51.5t41 -21.5q30 -5 75 -5q11 0 17 -5t6 -10q0 -15 -30 -15q-54 0 -138.5 2.5t-98.5 2.5q-13 0 -84 -2.5t-103 -2.5q-29 0 -29 15t24 15q52 0 70.5 15.5 t23.5 63.5q7 60 7 301v249q0 254 -2 299q-3 46 -31.5 63.5t-89.5 17.5q-24 0 -24 14z" />
<glyph unicode="i" horiz-adv-x="674" d="M111 1050q0 12 35 12q29 0 103 -1.5t93 -1.5q16 0 86 1.5t101 1.5q30 0 30 -12q0 -16 -23 -16q-51 0 -73 -16.5t-25 -64.5q-3 -45 -3 -299v-249q0 -249 6 -309q4 -31 16 -46t42 -20t75 -5q11 0 17 -5t6 -10q0 -15 -28 -15q-56 0 -139.5 2.5t-95.5 2.5q-14 0 -86.5 -2.5 t-104.5 -2.5q-29 0 -29 15t24 15q51 0 70 13.5t24 59.5q7 58 7 307v249q0 254 -2 299q-3 47 -27 64t-76 17q-23 0 -23 16z" />
<glyph unicode="j" horiz-adv-x="618" d="M28 -355q0 10 32 25q28 13 70 55q20 19 35.5 40t27 48t19.5 48.5t13 59t8 62.5t4.5 76t1.5 82v96v12v405q0 254 -2 299q-3 46 -31.5 63.5t-89.5 17.5q-24 0 -24 14t33 14q43 0 124.5 -1.5t95.5 -1.5q15 0 84 1.5t102 1.5q30 0 30 -14t-27 -14q-50 0 -71.5 -17t-24.5 -64 q-3 -45 -3 -299v-263q0 -28 2.5 -94.5t2.5 -103.5q0 -157 -35 -250q-25 -66 -92.5 -137t-169.5 -131q-47 -24 -73 -36q-15 -8 -30 -8q-3 0 -6 2.5t-4.5 5.5t-1.5 6z" />
<glyph unicode="k" horiz-adv-x="1135" d="M92 1048q0 14 33 14q43 0 117.5 -1.5t86.5 -1.5q16 0 88.5 1.5t98.5 1.5q32 0 32 -14t-21 -14q-33 0 -52 -6.5t-30.5 -24.5t-13.5 -50q-2 -45 -2 -299v-64h8q23 26 152.5 156t151.5 155q4 4 12 13q23 25 33 37.5t19.5 28t9.5 25.5q0 23 -20.5 28.5t-20.5 14.5q0 14 24 14 q15 0 72.5 -1.5t78.5 -1.5q22 0 85 1.5t85 1.5q26 0 26 -14t-22 -14q-38 0 -85 -17q-69 -25 -153 -105q-33 -30 -91.5 -85.5t-128 -123.5t-89.5 -91q23 -30 109.5 -123t171 -180t113.5 -115q12 -10 39.5 -36t42.5 -39.5t43 -34.5t50 -31.5t52.5 -19t61.5 -8.5q5 0 10 -2 t7.5 -5.5t2.5 -7.5q0 -15 -35 -15h-128q-111 0 -166.5 18t-123.5 77q-42 37 -193.5 210t-181.5 213l-14 19h-8v-127q0 -225 4 -302q6 -65 53 -73q30 -5 71 -5q8 0 14.5 -5t6.5 -10q0 -15 -29 -15q-46 0 -128 2.5t-95 2.5t-82 -2.5t-101 -2.5q-29 0 -29 15t24 15 q52 0 70.5 15.5t23.5 63.5q7 60 7 301v249q0 254 -2 299q-3 46 -31.5 63.5t-89.5 17.5q-24 0 -24 14z" />
<glyph unicode="l" horiz-adv-x="915" d="M101 1048q0 14 32 14q37 0 110.5 -1.5t90.5 -1.5q14 0 96.5 1.5t113.5 1.5q32 0 32 -14t-27 -14q-32 0 -57 -5q-14 -3 -24 -8t-16.5 -14.5t-9.5 -22t-4 -31.5q-3 -45 -3 -299v-249v-13q0 -151 5 -208.5t26 -75.5q34 -30 194 -30q47 0 72.5 1.5t53.5 10.5t45 27 q13 14 23.5 39t13.5 46q2 22 17 22q12 0 12 -31q0 -17 -7 -76.5t-14 -86.5q-6 -17 -12.5 -24t-24 -10.5t-56.5 -3.5q-90 0 -236 4t-221 4q-5 0 -33.5 -1t-48.5 -1q-70 -3 -101 -3q-29 0 -29 15t24 15q52 0 70.5 15.5t23.5 63.5q7 60 7 301v249q0 254 -2 299q-2 30 -15 48 t-36 25.5t-60 7.5q-25 0 -25 14z" />
<glyph unicode="m" horiz-adv-x="1530" d="M22 11q0 6 6 10t17 4q21 0 45 3q45 6 59 108l144 914q3 16 11 26t18 10q11 0 21 -8.5t24 -35.5l391 -780l391 789q17 35 38 35q10 0 20 -12t14 -32l133 -868q10 -69 24.5 -99.5t46.5 -39.5q47 -13 83 -13q10 0 16.5 -4t6.5 -10q0 -16 -38 -16q-32 0 -147 3t-155 5 q-43 2 -43 16q0 10 17 16q13 5 6 60l-81 608h-5l-314 -624q-25 -51 -35.5 -65t-21.5 -14q-13 0 -25.5 16.5t-33.5 54.5q-97 181 -151.5 288.5t-161.5 327.5h-5l-70 -545q-5 -37 -5 -66q0 -14 10 -24.5t25.5 -15t30 -6.5t30.5 -2q9 0 16.5 -4.5t7.5 -9.5q0 -16 -35 -16 t-90 2.5t-64 2.5q-12 0 -66 -2.5t-79 -2.5q-26 0 -26 16z" />
<glyph unicode="n" horiz-adv-x="1394" d="M68 10q0 6 7 10.5t17 4.5q17 0 29 0.5t23.5 3t18.5 4t13.5 8.5t10 11.5t7 17.5t4.5 22t2.5 30t1.5 35.5v44.5l13 836q0 14 3.5 25t9 17t13.5 6q11 0 23.5 -9.5t33.5 -30.5l6 -6q0 -1 48 -49t104 -105t140 -140.5t157 -155.5q43 -41 118 -117t132 -133.5t65 -65.5h7 l-15 627q-1 46 -6.5 72t-22 40t-37 17.5t-60.5 3.5q-24 0 -24 14t37 14q44 0 110 -1.5t76 -1.5q1 0 50.5 1.5t92.5 1.5q33 0 33 -14t-25 -14q-58 0 -77.5 -24t-20.5 -98l-16 -889q0 -15 -4 -25.5t-9 -15t-11 -4.5q-30 0 -60 30q-122 113 -426 407q-69 66 -149 148 t-131.5 136.5t-61.5 63.5h-5l17 -576q2 -39 4 -64.5t8.5 -44.5t14 -28.5t23 -15.5t32 -7.5t44.5 -1.5q12 0 18.5 -4.5t6.5 -10.5q0 -15 -33 -15q-56 0 -120.5 2.5t-69.5 2.5q-3 0 -27.5 -1t-60.5 -2.5t-69 -1.5q-17 0 -25 3t-8 12z" />
<glyph unicode="o" horiz-adv-x="1371" d="M79 529q0 75 20.5 150t68 148t116.5 129t174.5 90.5t233.5 34.5q182 0 317.5 -64t207.5 -183t72 -280q0 -121 -43 -226.5t-121 -183.5t-194 -122.5t-254 -44.5q-123 0 -224.5 33.5t-169.5 88.5t-115 127.5t-68 148.5t-21 154zM296 573q0 -109 30.5 -204t86 -165 t139 -110.5t184.5 -40.5q26 0 51.5 4t60 15.5t64.5 31t60 54t51.5 80.5t35 114t13.5 151q0 114 -33 209.5t-90 159.5t-134.5 99.5t-165.5 35.5q-53 0 -100 -11.5t-94.5 -41.5t-81.5 -77.5t-55.5 -125.5t-21.5 -178z" />
<glyph unicode="p" horiz-adv-x="988" d="M92 1048q0 14 33 14q42 0 118 -1.5t92 -1.5q30 0 119.5 1.5t123.5 1.5q51 0 96 -7t71.5 -15t51 -21.5t33 -20t20.5 -16.5q28 -27 50.5 -72t22.5 -97q0 -98 -48.5 -176.5t-132.5 -122t-186 -43.5q-37 0 -43 2q-5 0 -9 1.5t-7 5t-3 8.5q0 18 49 18q31 0 64.5 16t63 44 t48.5 72.5t19 96.5q0 135 -86 209q-62 53 -146 53h-11h-11.5h-10.5t-10 -0.5t-8.5 -2t-8 -3t-6 -4t-5.5 -6t-3 -8t-1 -9.5v-559q0 -233 7 -302q4 -34 15 -51.5t41 -21.5q33 -5 75 -5q11 0 17 -5t6 -10q0 -15 -27 -15q-56 0 -141.5 2.5t-97.5 2.5q-13 0 -82 -2.5t-101 -2.5 q-29 0 -29 15t24 15q52 0 70.5 15.5t23.5 63.5q7 60 7 301v249q0 254 -2 299q-3 46 -31.5 63.5t-89.5 17.5q-24 0 -24 14z" />
<glyph unicode="q" horiz-adv-x="1369" d="M79 536q0 72 21.5 145.5t69.5 146t116.5 128.5t172 90.5t226.5 34.5q175 0 310 -63.5t212 -185.5t77 -284q0 -71 -18 -138t-44.5 -116t-62 -92.5t-65.5 -70t-60 -47.5l286 -139q344 -167 597 -167q168 0 286 45q16 6 21 6t9.5 -4t4.5 -9q0 -9 -19 -18 q-237 -111 -467 -111q-168 0 -303 41.5t-316 148.5l-227 134q-14 -5 -31 -9.5t-36 -8.5t-40 -7t-42 -5t-42 -3t-39 -1q-124 0 -226 34t-169.5 89.5t-114 129.5t-67 150.5t-20.5 155.5zM297 569q0 -123 35 -222t95.5 -162.5t139 -97.5t168.5 -34q28 0 55 4t61.5 16t63 31.5 t57.5 54.5t48.5 81.5t32 115.5t12.5 153q0 82 -16.5 154t-46 125.5t-68.5 95.5t-85.5 68.5t-96 40.5t-100.5 14q-59 0 -110.5 -14.5t-97 -47.5t-77.5 -83t-51 -124.5t-19 -168.5z" />
<glyph unicode="r" horiz-adv-x="1137" d="M92 1048q0 14 33 14q44 0 116.5 -1.5t81.5 -1.5q26 0 116 1.5t112 1.5q185 0 277 -60q23 -16 45 -41.5t40 -67t18 -85.5q0 -79 -48 -153t-155 -159q88 -108 126.5 -155t95.5 -112.5t98 -106.5q28 -29 53.5 -48t48 -28t30.5 -11.5t24 -6.5q15 -3 35 -3q8 0 13 -5t5 -10 q0 -15 -27 -15h-140q-59 0 -94.5 6.5t-64.5 21.5q-45 23 -88.5 70t-111.5 138q-31 41 -80 111.5t-57 80.5q-11 10 -27 10l-130 4q-13 0 -13 -13v-19q0 -218 9 -301q5 -36 15.5 -53t40.5 -21q33 -5 72 -5q7 0 12.5 -5t5.5 -10q0 -15 -30 -15q-50 0 -137 2.5t-90 2.5 q-11 0 -79 -2.5t-100 -2.5q-29 0 -29 15t24 15q52 0 70.5 15.5t23.5 63.5q7 60 7 301v249q0 254 -2 299q-3 46 -31.5 63.5t-89.5 17.5q-24 0 -24 14zM424 544q0 -18 14 -25q42 -13 111 -13q30 0 47.5 2t30 6.5t25.5 14.5q95 67 95 209q0 57 -15 102t-38.5 72.5t-54 45.5 t-59 24.5t-56.5 6.5h-17h-13h-11.5h-11.5t-10.5 -0.5t-10 -1.5t-8.5 -2.5t-7.5 -3.5t-5 -4.5t-4 -5.5t-1.5 -7v-420z" />
<glyph unicode="s" horiz-adv-x="895" d="M131 62q0 69 8 187q0 16 5 26t14 10q15 0 15 -23q0 -33 12 -73q12 -38 37 -66t57.5 -43.5t67.5 -23t71 -7.5q92 0 147 51.5t55 128.5q0 27 -4.5 47.5t-18.5 46t-44 51.5t-77 54l-85 50q-126 74 -177 148.5t-51 171.5q0 51 18.5 95.5t52.5 78.5t79.5 59t101 37.5 t116.5 12.5q118 0 207 -22q20 -5 20 -19q0 -5 -1 -25t-2.5 -57.5t-1.5 -86.5q0 -45 -18 -45q-15 0 -15 25q0 16 -8.5 42.5t-29.5 50.5q-54 66 -163 66q-82 0 -140.5 -40.5t-58.5 -110.5q0 -52 31 -93.5t124 -92.5l59 -32q138 -77 195.5 -159t57.5 -183q0 -81 -34.5 -145.5 t-111.5 -118.5q-83 -58 -245 -58q-155 0 -236 36q-18 7 -23.5 16t-5.5 33z" />
<glyph unicode="t" horiz-adv-x="1049" d="M20 885q0 15 13.5 86.5t17.5 83.5q5 26 17 26q4 0 23.5 -6.5t39.5 -9.5q57 -6 146 -6h592q56 0 100 6q10 2 19 3.5t13.5 2.5t6.5 1q4 0 6.5 -1.5t4 -5.5t1.5 -9.5t1 -13.5q0 -15 -2 -83.5t-2 -87.5q-3 -23 -13 -23q-4 0 -6.5 1t-4 4t-3 5t-2 7t-1 8t-1 9t-0.5 9 q-3 33 -43 56.5t-130 24.5l-184 3v-570q0 -225 8 -302q4 -34 15.5 -51.5t40.5 -21.5q31 -5 75 -5q11 0 17 -5t6 -10q0 -15 -28 -15q-55 0 -138.5 2.5t-97.5 2.5q-13 0 -85.5 -2.5t-104.5 -2.5q-28 0 -28 15t23 15q36 0 54 6.5t27 22.5t13 50q7 68 7 301v570l-218 -5 q-57 -1 -89 -10t-48.5 -27.5t-28.5 -53.5q-5 -18 -16 -18q-13 0 -13 24z" />
<glyph unicode="u" horiz-adv-x="1260" d="M30 1048q0 14 32 14q43 0 122 -1.5t96 -1.5q16 0 87.5 1.5t100.5 1.5q31 0 31 -14t-23 -14q-49 0 -71 -17t-25 -64q-3 -45 -3 -299v-198q0 -146 26.5 -221t84.5 -121q71 -56 183 -56q120 0 197 75q29 27 47 63t25.5 85t10 89.5t2.5 105.5v178q0 187 -4 299q-3 36 -15 51 t-46 25q-17 5 -54 5q-25 0 -25 14t30 14h33t34 -0.5l32 -1t29.5 -0.5t23.5 -0.5t16 -0.5h6q3 0 70.5 1.5t100.5 1.5q30 0 30 -14t-25 -14q-15 0 -43 -5q-29 -5 -39.5 -21.5t-12.5 -54.5q-4 -90 -4 -299v-151q0 -68 -4.5 -120.5t-18 -111.5t-43 -108t-73.5 -85 q-121 -101 -309 -101q-39 0 -71 2t-82 10.5t-96.5 29.5t-83.5 54q-63 54 -98 142.5t-35 230.5v208q0 276 -2 299q-3 47 -31 64t-88 17q-25 0 -25 14z" />
<glyph unicode="v" horiz-adv-x="1056" d="M-79 1048q0 14 36 14q42 0 116 -1.5t96 -1.5q14 0 79.5 1.5t106.5 1.5q35 0 35 -14t-23 -14q-35 0 -53 -7.5t-18 -31.5q0 -25 33 -106l245 -632h5q48 110 153.5 367.5t131.5 326.5q13 37 13 51q0 11 -7 18t-21 9.5t-23.5 3.5t-26.5 1q-25 0 -25 14t42 14q44 0 98.5 -1.5 t57.5 -1.5q10 0 61.5 1.5t76.5 1.5q30 0 30 -14t-24 -14q-48 0 -71 -17q-17 -12 -33.5 -37.5t-42.5 -86.5q-26 -59 -51 -113t-60.5 -129.5t-64.5 -139.5q-38 -84 -81.5 -181.5t-71 -158.5t-41.5 -92q-29 -62 -42 -82t-28 -20t-26 16.5t-33 68.5l-369 862q-24 56 -44.5 75 t-62.5 30q-22 5 -57 5q-16 0 -16 14z" />
<glyph unicode="w" horiz-adv-x="1583" d="M-27 1048q0 14 33 14t72.5 -1t66.5 -1.5t31 -0.5q3 0 28.5 0.5t64.5 1.5t76 1q32 0 32 -14t-27 -14q-21 0 -37 -7q-14 -5 -14 -28q0 -20 31 -130q18 -64 89.5 -296t89.5 -288h5l279 722q19 52 43 52q12 0 23 -16t26 -51l291 -696h5q10 28 35.5 109t51 165.5t57.5 189 t47 152.5q15 50 15 82q0 19 -15.5 29.5t-56.5 10.5q-9 0 -17 4t-8 10q0 14 35 14q34 0 70 -1t59.5 -1.5t26.5 -0.5q1 0 47 1.5t74 1.5q27 0 27 -12q0 -16 -20 -16q-30 0 -51 -7q-6 -2 -11 -5.5t-10 -9.5t-9 -11t-9 -15l-8 -16t-8 -20t-8 -21t-9 -24.5t-9 -25.5 q-53 -139 -290 -836q-12 -39 -21 -52.5t-25 -13.5q-14 0 -23.5 13t-27.5 55l-297 696h-3q-7 -16 -67 -167.5t-123.5 -308.5t-90.5 -214q-21 -47 -31 -60.5t-25 -13.5q-13 0 -21 11t-19 40l-309 896q-2 8 -7.5 23.5t-7.5 21t-7 17t-8.5 15.5t-9 11.5t-11.5 10t-14.5 6 t-18.5 4.5t-23 1q-24 0 -24 14z" />
<glyph unicode="x" horiz-adv-x="1053" d="M-30 8q0 3 1.5 6t4.5 5.5t6.5 4t7.5 1.5q24 0 53 7q31 8 55 29t62 73l285 385l-258 402q-37 58 -76 85.5t-103 27.5q-4 0 -7.5 2t-5 5.5t-1.5 8.5q0 12 29 12q14 0 98.5 -1.5t123.5 -1.5q6 0 69.5 1.5t95.5 1.5q30 0 30 -14t-24 -14q-19 0 -37 -6.5t-18 -19.5t16 -41 q68 -118 182 -307q168 248 198 294q16 29 16 51q0 29 -72 29q-6 0 -11.5 3.5t-5.5 10.5q0 14 31 14q32 0 87 -1.5t66 -1.5q10 0 60.5 1.5t81.5 1.5q27 0 27 -14q0 -6 -6.5 -10t-17.5 -4q-19 0 -52 -9q-23 -5 -43.5 -27.5t-61.5 -79.5l-242 -331q14 -21 92 -143t147.5 -228 t85.5 -126q26 -33 58 -49t78 -16q7 0 13 -4.5t6 -10.5q0 -15 -29 -15h-43q-151 0 -270 3q-29 2 -40.5 5t-11.5 10q0 9 11.5 14.5t17 10t-3.5 24.5q-32 52 -113 184.5t-118 193.5l-214 -332q-24 -39 -22 -60q2 -10 10.5 -15.5t18.5 -5.5q3 0 14 -1t17.5 -1t12.5 -5.5t6 -11.5 q0 -13 -30 -13h-27l-60 3q-59 2 -81 2q-14 0 -63 -2.5t-60 -2.5h-24q-22 0 -22 13z" />
<glyph unicode="y" horiz-adv-x="978" d="M-75 1048q0 14 29 14q10 0 82.5 -1.5t99.5 -1.5q12 0 70.5 1.5t95.5 1.5q21 0 21 -14q0 -6 -8 -10t-18 -6t-18 -8t-8 -16q0 -16 17 -47q13 -21 121.5 -207t121.5 -206q0 1 102 176.5t115 201.5q22 45 22 74q0 26 -32 32q-1 0 -5.5 1t-5.5 1.5t-4.5 1.5t-4.5 2t-3 2.5 t-2.5 3.5t-0.5 4q0 14 24 14q25 0 73.5 -1.5t69.5 -1.5q16 0 79 1.5t77 1.5q27 0 27 -12q0 -7 -8 -11.5t-20 -4.5q-25 0 -64 -17q-22 -11 -36.5 -23.5t-39.5 -42.5q-22 -27 -86.5 -126t-124 -198t-72.5 -128q-6 -12 -9.5 -26l-5.5 -22t-3 -25t-1 -21v-25v-22v-113 q0 -81 3 -141q3 -33 16.5 -51t43.5 -23q33 -5 73 -5q11 0 18 -5t7 -10q0 -15 -31 -15q-53 0 -134.5 2.5t-95.5 2.5q-15 0 -86.5 -2.5t-101.5 -2.5q-32 0 -32 15q0 5 6 10t18 5q51 0 71 16t24 63q5 60 5 141v116q0 53 -7.5 83t-24.5 65q-5 11 -59.5 96.5t-115.5 179 t-86 130.5q-58 81 -95 100q-36 19 -61 19q-22 0 -22 14z" />
<glyph unicode="z" horiz-adv-x="1036" d="M83 15q0 13 18 42q360 542 614 918h-275q-54 0 -80.5 -0.5t-66 -6t-61.5 -17.5q-33 -19 -54 -50t-24 -59q-4 -24 -18 -24t-14 23q0 49 29 204q2 27 17 27q4 0 20.5 -4.5t37.5 -5.5q93 -3 268 -3h450q7 0 12.5 -2t9 -4.5t3.5 -5.5q0 -10 -8 -26q-256 -401 -627 -937h350 q104 0 154 19t71 55q21 41 27 64q5 23 17 23q8 0 11 -9t3 -34q0 -31 -9.5 -85.5t-18.5 -86.5q-7 -20 -16.5 -28t-28.5 -8q-115 0 -373.5 3t-412.5 3q-25 0 -25 15z" />
<glyph unicode="{" horiz-adv-x="596" d="M79 573q0 9 5 12.5t19 4.5q2 1 15.5 1.5t20.5 1t19 3t21.5 7.5t18.5 13q19 15 19 81q0 33 -8 97.5t-8 82.5q0 81 14 138t35.5 89.5t56.5 65.5q37 33 85 50.5t96 17.5q33 0 33 -12q0 -3 -1 -4.5t-3 -3t-3.5 -2.5t-6 -2t-7.5 -1.5l-9 -1.5q-17 -3 -38 -15.5t-43 -35.5 t-37 -63.5t-15 -89.5q0 -31 0.5 -80.5t0.5 -71.5t-1 -53.5t-4.5 -52.5t-8.5 -41q-10 -42 -47 -78.5t-72 -47.5v-1q36 -13 69.5 -48t46.5 -82q5 -17 8 -35.5t5 -32t2.5 -39t0.5 -38.5v-49v-55q0 -99 11 -172.5t30 -113.5t39.5 -60t44.5 -25q24 -6 31.5 -10.5t7.5 -11.5 t-10.5 -9.5t-48.5 -2.5q-22 0 -49.5 9.5t-63.5 36t-65 65.5q-26 36 -42 73t-29 116t-13 190q0 27 6.5 93.5t6.5 83.5q0 26 -7.5 43t-24.5 26.5t-33.5 14t-45.5 8.5q-15 2 -19.5 5t-4.5 12z" />
<glyph unicode="|" horiz-adv-x="829" d="M365 -415v1659h101v-1659h-101z" />
<glyph unicode="}" horiz-adv-x="596" d="M75 -191q0 5 3.5 8t11.5 6t24 8q24 5 44.5 25t39.5 60t30 113.5t11 172.5v55v49t0.5 38.5t2.5 39t5 32t8 35.5q9 32 28.5 59.5t42.5 44.5t46 26q-23 7 -47.5 25.5t-45 46t-27.5 55.5q-6 20 -9 41t-4 52.5t-1 53.5t0.5 71.5t0.5 80.5q0 49 -15 89.5t-37 63.5t-43 35.5 t-38 15.5q-9 1 -13.5 2t-9 2.5t-6 4t-1.5 6.5q0 12 33 12q47 0 95.5 -17.5t85.5 -50.5q35 -33 56.5 -65.5t35.5 -89.5t14 -138q0 -18 -8 -82.5t-8 -97.5q0 -65 20 -81q7 -7 16 -11.5t16 -7t17 -4t16 -2t15.5 -0.5t13.5 -1q14 -1 19 -4.5t5 -12.5t-4.5 -12t-19.5 -5 q-29 -4 -45.5 -8.5t-33.5 -14t-24.5 -26.5t-7.5 -43q0 -17 6.5 -83.5t6.5 -93.5q0 -111 -13 -190t-29 -116t-42 -73q-42 -56 -92 -83t-86 -27q-38 0 -48.5 2t-10.5 9z" />
<glyph unicode="~" horiz-adv-x="910" d="M62 326q-4 121 49 181t143 60q47 0 92.5 -15.5t129.5 -55.5q51 -24 76.5 -35t59.5 -21.5t59 -10.5q40 0 61.5 36.5t22.5 101.5h95q3 -66 -11 -115t-41 -75.5t-60.5 -39t-74.5 -12.5q-47 0 -96 16t-129 55q-48 24 -73.5 35.5t-59.5 22t-60 10.5q-84 0 -89 -138h-94z" />
<glyph unicode="&#xa1;" horiz-adv-x="530" d="M147 -6q0 5 4.5 31.5t11 77.5t11.5 104q1 9 34 349t36 363q2 20 4 30t7 16.5t14 6.5q13 0 17 -13.5t7 -46.5q5 -59 22.5 -245.5t19.5 -205.5q3 -41 14.5 -150t20.5 -148q2 -9 7.5 -24t5.5 -20q0 -12 -8 -26q-26 -33 -68 -60.5t-81 -43.5q-38 -17 -63 -17q-7 0 -11.5 6.5 t-4.5 15.5zM185 1173q0 42 26.5 71t68.5 29q45 0 68.5 -29t23.5 -65q0 -35 -24 -64.5t-69 -29.5q-41 0 -67.5 24t-26.5 64z" />
<glyph unicode="&#xa2;" horiz-adv-x="994" d="M101 630q0 57 13 109t34.5 90t41.5 64t41 43q46 39 96.5 63.5t111 36.5t134.5 12l17 166q2 8 5 12t13 5l52 7q10 1 15 -1.5t4 -8.5l-24 -180q41 0 102.5 -10.5t116.5 -32.5q8 -3 10 -8.5t2 -26.5q0 -31 -10 -171q-3 -17 -17 -17q-12 0 -15 17q-4 65 -40 110 q-20 25 -62 43t-98 18l-75 -686q37 -7 69 -7q42 0 71.5 5.5t57.5 20t47.5 43.5t31.5 74q6 26 22 26q12 0 12 -20q0 -21 -7 -84.5t-14 -96.5q-2 -13 -7 -18.5t-16 -9.5q-95 -28 -204 -28q-39 0 -75 2l-23 -223q-2 -15 -13 -17l-62 -9q-8 -2 -12 1t-2 9l30 249 q-169 29 -271.5 141.5t-102.5 287.5zM282 676q0 -78 21 -147t53.5 -114t66 -73.5t63.5 -39.5l75 668q-77 5 -141.5 -34t-101 -108.5t-36.5 -151.5z" />
<glyph unicode="&#xa3;" horiz-adv-x="994" d="M-16 20q0 21 49 33q32 8 57 24t43.5 41.5t32.5 55.5t24 71t17 80.5t13 92.5l22 179h-117q-13 0 -23.5 -1.5t-13.5 -1.5q-5 0 -6.5 5.5t1.5 14.5l17 48q3 11 25 11h127l14 88q6 42 13 77.5t17.5 75t24.5 73.5t31.5 67t41.5 62.5t52 53.5q72 61 138 82t149 21q88 0 150 -21 q35 -7 44 -8q10 -1 13.5 -8.5t3.5 -26.5q0 -124 -13 -196q-3 -22 -17 -22q-17 0 -17 26q-1 27 -11.5 64.5t-27.5 58.5q-49 61 -153 61q-90 0 -151.5 -75.5t-83.5 -226.5l-32 -223h209q20 0 36 1.5t25.5 3t11.5 1.5q5 0 8 -2.5t4 -6.5t-1 -8l-19 -56q-5 -14 -42 -14h-242 l-8 -74q-4 -35 -14 -77.5t-30 -99t-56 -111.5t-83 -94l4 -11l419 5q125 1 174 31t63 110q5 19 18 19q8 0 12 -5t4 -21q0 -28 -9.5 -110t-22.5 -132q-4 -16 -10 -22t-26.5 -8.5t-67.5 -2.5q-75 0 -203 4t-223 4h-336q-28 0 -38.5 3.5t-10.5 16.5z" />
<glyph unicode="&#xa4;" horiz-adv-x="994" d="M108 869l79 84l117 -128q77 66 192 66t191 -65l119 127l82 -84l-133 -119q56 -83 56 -194q0 -126 -58 -204l127 -123l-81 -82l-114 132q-35 -34 -88.5 -52t-106 -18t-104 17.5t-84.5 47.5l-113 -127l-78 82l123 118q-27 36 -44 88t-17 111q0 116 63 204zM304 549 q0 -56 17.5 -100.5t45.5 -70.5t60 -39.5t64 -13.5q35 0 67.5 13t60.5 39.5t44.5 72t16.5 104.5q0 58 -21.5 107.5t-65.5 81t-102 31.5q-84 0 -135.5 -64t-51.5 -161z" />
<glyph unicode="&#xa5;" horiz-adv-x="994" d="M-103 1233q0 16 28 16q16 0 91.5 -2.5t91.5 -2.5t75.5 2.5t101.5 2.5q24 0 24 -16q0 -14 -32 -19q-28 -4 -28 -30q0 -14 18 -56q10 -19 130 -241t134 -250q33 60 125 237.5t110 217.5q22 52 22 89q0 24 -41 33q-1 0 -3 1q-9 3 -13 4.5t-7.5 5t-3.5 8.5q0 16 24 16 q33 0 82.5 -2.5t64.5 -2.5q10 0 80 2.5t88 2.5q26 0 26 -15q0 -17 -25 -17q-49 0 -77 -14q-6 -3 -12 -6.5t-10.5 -6.5t-10.5 -9t-9 -8.5t-10.5 -11.5t-9.5 -11.5t-11.5 -14.5t-12.5 -16q-35 -48 -149.5 -255.5t-163.5 -309.5h267q16 0 13 -16l-11 -50q-3 -13 -22 -13h-253 v-201q0 -120 1 -157q1 -39 18.5 -59t57.5 -26q36 -5 83 -5q23 0 23 -17q0 -15 -23 -15q-64 0 -152.5 2.5t-94.5 2.5t-92.5 -2.5t-149.5 -2.5q-15 0 -20 3t-5 12q0 17 21 17q50 0 85 5q41 6 59 26t19 59q2 37 2 157v201h-269q-12 0 -10 13l15 56q2 10 18 10h236 q-14 29 -57.5 106t-88.5 154t-92.5 158.5t-61.5 107.5q-51 89 -105 118q-38 19 -76 19q-22 0 -22 16z" />
<glyph unicode="&#xa6;" horiz-adv-x="829" d="M365 -290v580h101v-580h-101zM365 539v580h101v-580h-101z" />
<glyph unicode="&#xa7;" horiz-adv-x="988" d="M119 506q0 49 18 97t45.5 84t56 62.5t54.5 40.5q-47 49 -69.5 95.5t-22.5 103.5q0 83 51 148t136 99.5t186 34.5q114 0 206 -24q19 -4 19 -17q0 -6 -1 -25.5t-2 -57.5t-1 -87q0 -45 -19 -45q-15 0 -15 25q0 16 -8.5 42.5t-29.5 50.5q-54 67 -161 67q-54 0 -100 -18 t-76.5 -56.5t-30.5 -91.5q0 -50 31 -85t127 -96l60 -38q74 -47 125 -87.5t92 -86.5t61 -96.5t20 -107.5q0 -73 -47 -153t-121 -128q43 -54 63.5 -100.5t20.5 -96.5q0 -158 -149 -258q-85 -57 -248 -57q-155 0 -236 36q-18 7 -23 15.5t-5 32.5q0 70 8 188q0 36 18 36 q16 0 16 -23q0 -33 13 -73q15 -50 54 -82.5t83.5 -45t94.5 -12.5q62 0 110.5 24t74.5 63t26 86q0 69 -30 111.5t-123 105.5l-85 58q-40 28 -66.5 47t-57.5 44t-50.5 44.5t-39 44.5t-30 49t-17 53t-6.5 60zM261 573q0 -23 4 -41.5t16 -37t22.5 -31t36 -32t43 -32t55.5 -37.5 q20 -13 30 -20l59 -40q94 -62 119 -85q77 65 77 161q0 24 -4 43.5t-16 38t-22.5 31.5t-33 31.5t-37 29t-45.5 32.5t-49 35l-85 61q-39 27 -73 55q-44 -28 -70.5 -64.5t-26.5 -97.5z" />
<glyph unicode="&#xa8;" horiz-adv-x="1537" d="M518 1455q0 28 19.5 52t56.5 24q33 0 55 -19.5t22 -51.5q0 -23 -9.5 -42t-28 -30t-41.5 -11q-37 0 -55.5 24t-18.5 54zM868 1455q0 18 7 35t25.5 30t43.5 13q33 0 55.5 -20t22.5 -53q0 -36 -22.5 -59.5t-57.5 -23.5q-37 0 -55.5 24t-18.5 54z" />
<glyph unicode="&#xa9;" horiz-adv-x="1496" d="M92 620q0 134 51 254.5t139 208t210 139t258 51.5q139 0 260.5 -50t208 -136t136.5 -207.5t50 -259.5q0 -132 -51 -252t-138.5 -207t-209 -138t-256.5 -51q-140 0 -262 49.5t-209 135t-137 206t-50 257.5zM198 622q0 -92 27.5 -179.5t78.5 -158t118.5 -123.5t152.5 -82.5 t175 -29.5q117 0 219.5 45t174.5 121.5t113.5 182.5t41.5 224q0 114 -42.5 219.5t-115.5 183t-175.5 124t-215.5 46.5q-117 0 -220 -44t-176 -120.5t-114.5 -182.5t-41.5 -226zM370 637q0 88 34.5 159.5t75.5 109.5q55 50 125 72t166 22q58 0 136 -13q11 -1 35.5 -6t44 -9.5 t20.5 -4.5q3 0 9.5 1t8.5 1t2.5 -1.5t0.5 -4.5v-6.5t-0.5 -9t-0.5 -10.5q0 -15 -3 -71.5t-6 -72.5q-3 -17 -13 -17q-11 0 -14 25q-3 44 -32 78q-18 20 -66 40t-120 20q-108 0 -173.5 -70.5t-65.5 -192.5q0 -82 26 -151t67 -111.5t89.5 -66.5t96.5 -24t80 7.5t52 24t31 38 t19 55.5q7 20 17 20q12 0 12 -18q0 -39 -19 -130q-5 -28 -10 -34.5t-25 -11.5q-73 -20 -177 -20q-190 0 -306.5 103.5t-116.5 279.5z" />
<glyph unicode="&#xaa;" horiz-adv-x="704" d="M-8 688.5q0 11.5 11 11.5q3 0 12 0.5t13 0.5q14 2 24 6.5t18 12.5t14 18t14 25l231 478q14 32 27 32q14 0 26 -26q2 -6 32.5 -73.5t60 -133t65 -142.5t55.5 -118q36 -74 67 -77q22 -3 35 -3q9 0 9 -11.5t-38 -11.5q-90 0 -172 3q-25 0 -25 8q0 13 12 13q3 0 5 5.5t0 10.5 l-55 114q-5 10 -12 10h-195q-7 0 -12 -10l-32 -71q-6 -20 -6 -38q0 -8 6.5 -15t21.5 -7h11q14 0 14 -12q0 -4 -4.5 -7.5t-10.5 -3.5q-13 0 -44.5 1.5t-47.5 1.5q-11 0 -51.5 -1.5t-64.5 -1.5q-14 0 -14 11.5zM242 902q-2 -5 5 -5h155q3 0 3 5l-66 165q-8 21 -14 21 q-7 0 -13 -16z" />
<glyph unicode="&#xab;" horiz-adv-x="912" d="M70 476q0 9 31 37q14 11 91 81.5t148.5 135.5t80.5 71q24 19 32 19q7 0 13.5 -4.5t6.5 -9.5q0 -11 -10 -21q-34 -38 -128.5 -152t-117.5 -149q20 -26 95 -102t138 -135q23 -20 23 -25q0 -4 -7 -11l-63 -72q-11 -11 -17 -11t-52 54q-21 24 -70 77.5t-99 107.5t-65 70 q-19 18 -24.5 25.5t-5.5 13.5zM396 476q0 9 32 37q13 11 90.5 81.5t149.5 135.5t80 71q24 19 32 19q7 0 13 -4.5t6 -9.5q0 -11 -9 -21q-34 -38 -128.5 -152t-117.5 -149q20 -27 95 -103t137 -134q23 -20 23 -25t-6 -11l-63 -72q-12 -11 -16 -11q-8 0 -54 54 q-36 41 -123.5 136.5t-110.5 118.5q-18 18 -24 25.5t-6 13.5z" />
<glyph unicode="&#xac;" horiz-adv-x="910" d="M66 526v101h778v-415h-106v314h-672z" />
<glyph unicode="&#xad;" horiz-adv-x="704" d="M60 386l24 115q4 14 11 17.5t30 3.5h470q26 0 40 -4.5t14 -18.5q0 -16 -16.5 -22.5t-58.5 -13.5q-61 -9 -225 -39t-203 -41q-17 -4 -42 -15.5t-31 -11.5q-19 0 -13 30z" />
<glyph unicode="&#xae;" horiz-adv-x="341" d="M19 1125q0 63 43 104.5t109 41.5t109 -41.5t43 -104.5q0 -61 -43 -103t-109 -42t-109 42t-43 103zM49 1127q0 -53 34.5 -86t89.5 -33q52 0 85.5 33.5t33.5 85.5q0 53 -33.5 84.5t-87.5 31.5t-88 -31.5t-34 -84.5zM84 1055q0 5 6 5q7 0 11 2t6 4.5t2.5 7.5t0 10t-1 13.5 t-0.5 15.5v78q0 12 -20 12q-4 0 -4 5q0 6 9 6h7q1 0 5.5 -0.5t11 -0.5h11.5q7 0 18.5 0.5t19.5 0.5q73 0 73 -44q0 -26 -35 -51l30 -34q21 -25 28 -25q5 0 5 -5q0 -7 -15 -7t-22 1t-19 8t-24 23l-23 31h-20v-14q0 -31 1.5 -34t18.5 -3q5 0 5 -5q0 -7 -6 -7h-7q-1 0 -11.5 1 t-14.5 1q-3 0 -13.5 -1t-12.5 -1h-8q-3 0 -7.5 2t-4.5 5zM144 1133q7 -5 24 -5q13 0 21.5 9t8.5 23q0 16 -10.5 26t-27.5 10q-13 0 -16 -3v-60z" />
<glyph unicode="&#xaf;" horiz-adv-x="1537" d="M548 1433l13 60q4 15 18 15h398q18 0 14 -17l-14 -60q-3 -9 -18 -9h-398q-9 0 -12 2.5t-1 8.5z" />
<glyph unicode="&#xb0;" horiz-adv-x="601" d="M86 953q0 59 28.5 108.5t78.5 78t111 28.5q95 0 153.5 -61t58.5 -146q0 -94 -65 -155t-152 -61q-93 0 -153 61t-60 147zM179 954q0 -54 35 -91t87 -37q53 0 87.5 37.5t34.5 93.5q0 33 -12 61t-41 49t-71 21q-55 0 -87.5 -40.5t-32.5 -93.5z" />
<glyph unicode="&#xb1;" horiz-adv-x="910" d="M66 0v101h778v-101h-778zM66 526v101h336v339h106v-339h336v-101h-336v-337h-106v337h-336z" />
<glyph unicode="&#xb2;" horiz-adv-x="736" d="M66 519q0 7 20 27q96 80 158.5 138.5t112.5 121t73 121.5t23 121q0 36 -10 65.5t-26 48t-36 31.5t-40 18t-39 5q-61 0 -104 -35.5t-46 -95.5q0 -18 -14 -18q-9 0 -12 27l-2 22t-3.5 50t-1.5 42q0 11 2.5 15.5t9.5 7.5q84 42 199 42q134 0 203.5 -57.5t69.5 -139.5 q0 -37 -9 -73t-23 -66.5t-42 -66t-52 -62.5t-68.5 -66.5t-77 -66.5t-89.5 -73q-2 -3 -2 -5.5t4 -2.5h48q15 0 96.5 2.5t94.5 3.5q38 3 62.5 13.5t38 27.5t22.5 44q4 10 7 13t9 3q10 0 10 -14q0 -9 -5.5 -35.5t-14.5 -59.5t-18 -58q-8 -16 -26.5 -22t-54.5 -6h-429 q-18 0 -18 13z" />
<glyph unicode="&#xb3;" horiz-adv-x="701" d="M86 574q0 124 15 124q6 0 9 -3t4 -13q15 -123 170 -123q69 0 119.5 40.5t52.5 117.5q2 45 -16 80.5t-48 56.5t-60 33t-58 15q-37 4 -37 17q0 4 1 6.5t3.5 4.5t6.5 3.5t9.5 3t13.5 2.5q12 1 34.5 12t48.5 30t45 51t19 68q0 17 -6.5 35.5t-21 38.5t-42.5 32.5t-64 12.5 q-38 0 -70.5 -14t-51.5 -38.5t-19 -53.5q0 -21 -10 -21q-24 0 -24 124q0 18 24 27q92 30 187 30q56 0 100 -10.5t69 -25.5t41 -35t21.5 -37t5.5 -33q0 -35 -17 -67t-44 -54t-51.5 -37t-45.5 -23v-4q21 -3 46 -11.5t53 -24.5t50.5 -37t37 -51.5t14.5 -65.5q0 -107 -98 -182.5 t-252 -75.5q-44 0 -86 6t-60 16q-13 7 -15.5 15t-2.5 38z" />
<glyph unicode="&#xb4;" horiz-adv-x="1537" d="M657 1387q0 7 14 22q45 42 143.5 117.5t124.5 91.5q21 14 33 14q8 0 12.5 -4t10.5 -15q15 -26 48 -100q12 -25 -8 -25q-1 0 -9.5 0.5t-20.5 0.5t-27 -1q-62 -8 -145.5 -38.5t-137.5 -59.5q-26 -13 -28 -13t-4 1t-4 3.5t-2 5.5z" />
<glyph unicode="&#xb5;" horiz-adv-x="954" d="M92 -407q24 361 24 656v498h158v-332q0 -160 49 -237.5t158 -77.5q26 0 47 4.5t40 15t33.5 28t25 43t15.5 61t5 80.5v415h157v-579q0 -93 54 -93q33 0 56 38l25 -12q-10 -57 -47.5 -91.5t-87.5 -34.5q-123 0 -133 191q-19 -88 -78 -139.5t-145 -51.5q-90 0 -139 26 t-85 99q5 -130 26.5 -243t48.5 -180l-183 -92z" />
<glyph unicode="&#xb6;" horiz-adv-x="1180" d="M83 858q0 33 6 66.5t17 61.5t26 54.5t31.5 47t34.5 37.5q130 124 383 124q15 0 113 -2.5t117 -2.5q1 0 103 2.5t146 2.5q26 0 26 -15q0 -3 -2 -6t-5 -5t-6 -2q-37 0 -59 -8.5t-33.5 -29t-13.5 -56.5q-3 -54 -3 -359v-652q0 -279 3 -325q0 -25 -42 -45t-67 -20 q-10 0 -10 8q0 2 3.5 22.5t4.5 41.5q8 91 8 318v1005q0 65 -58 65q-64 0 -68 -61q-2 -32 -2 -357v-645q0 -343 5 -395q2 -10 -10 -21q-16 -15 -49 -28.5t-52 -13.5q-13 0 -13 10q0 1 1.5 6.5t4 20.5t4.5 36q10 102 10 385v996q0 25 -2 37.5t-9.5 21t-22.5 8.5q-36 0 -75 -22 t-67 -66q-32 -49 -45 -116.5t-13 -123.5q0 -114 30 -198.5t80 -116.5q8 -6 17.5 -10.5t13 -6.5t6 -6t2.5 -11q0 -20 -55 -20q-117 0 -211 45.5t-148.5 130t-54.5 193.5z" />
<glyph unicode="&#xb7;" horiz-adv-x="414" d="M106 445q0 22 10 44.5t34 39.5t57 17q44 0 73 -26.5t29 -69.5q0 -45 -28.5 -76t-74.5 -31q-49 0 -74.5 31t-25.5 71z" />
<glyph unicode="&#xb8;" horiz-adv-x="1537" d="M599 -408q0 10 12.5 16t30.5 6q29 0 60.5 12.5t55.5 39t24 59.5q0 14 -3 27.5t-11.5 29t-22.5 27.5t-38.5 22t-56.5 15q-36 5 -36 13q0 5 27 25l155 116h95l-155 -114q93 -9 144.5 -43.5t51.5 -89.5q0 -22 -8.5 -44.5t-30.5 -46.5t-55.5 -43t-88 -31t-122.5 -12 q-28 0 -28 16z" />
<glyph unicode="&#xb9;" horiz-adv-x="563" d="M38 1080q0 9 8 14q3 2 62.5 38t124.5 75.5t74 44.5q36 21 45 21q13 0 13 -22q0 -6 -1.5 -38.5t-2.5 -93t-1 -132.5v-183q0 -160 5 -210q3 -24 12 -35.5t36 -17.5q37 -9 76 -9q25 0 25 -13q0 -16 -30 -16q-50 0 -117 1.5t-83 1.5q-14 0 -85 -1.5t-116 -1.5q-30 0 -30 14.5 t23 14.5q52 0 95 9q19 4 29.5 11.5t14.5 16.5t5 25q6 50 6 210v183q0 10 0.5 26t0.5 27v25t-1.5 23t-4 17.5t-7 13t-10.5 4.5q-8 0 -28.5 -7.5t-38 -14.5t-42.5 -18t-29 -13q-9 -5 -18 -5q-1 0 -3 1t-3.5 3t-2.5 5t-1 6z" />
<glyph unicode="&#xba;" horiz-adv-x="782" d="M49 972q0 41 11.5 82t38.5 81t65.5 70t98 49t131.5 19q157 0 248 -77t91 -210q0 -135 -95 -225t-252 -90q-58 0 -107.5 12.5t-86 35t-64.5 51t-45 62.5t-25.5 69t-8.5 71zM199 991q0 -69 28.5 -130.5t78 -99.5t107.5 -38q20 0 40 4.5t44.5 19.5t43 39.5t31 69.5t12.5 105 q0 56 -16 105t-44.5 82.5t-68 53t-85.5 19.5q-32 0 -60 -11t-54 -36t-41.5 -72t-15.5 -111z" />
<glyph unicode="&#xbb;" horiz-adv-x="912" d="M113 141q0 11 10 22q17 19 67 77.5t106.5 128t72.5 94.5q-20 26 -95 102t-138 135q-23 20 -23 25t6 11l63 72q12 12 17 12q6 0 53 -55q20 -23 69.5 -77t99.5 -107.5t65 -69.5q18 -18 24 -25.5t6 -14.5q0 -9 -32 -36q-12 -11 -160 -146t-160 -143q-22 -18 -31 -18 q-8 0 -14 4t-6 9zM440 141q0 12 10 22q34 39 128 152t117 148q-20 26 -95 102t-137 135q-23 20 -23 25t6 11l63 72q13 12 17 12q6 0 53 -55q21 -23 70 -77t99 -107.5t65 -69.5q18 -17 23.5 -25t5.5 -15q0 -9 -31 -36q-13 -11 -161 -146t-159 -143q-23 -18 -32 -18 q-7 0 -13 4t-6 9z" />
<glyph unicode="&#xbc;" horiz-adv-x="1394" d="M38 1080q0 9 8 14q3 2 62.5 38t124.5 75.5t74 44.5q36 21 45 21q13 0 13 -22q0 -6 -1.5 -38.5t-2.5 -93t-1 -132.5v-183q0 -160 5 -210q3 -24 12 -35.5t36 -17.5q37 -9 76 -9q25 0 25 -13q0 -16 -30 -16q-50 0 -117 1.5t-83 1.5q-14 0 -85 -1.5t-116 -1.5q-30 0 -30 14.5 t23 14.5q52 0 95 9q19 4 29.5 11.5t14.5 16.5t5 25q6 50 6 210v183q0 10 0.5 26t0.5 27v25t-1.5 23t-4 17.5t-7 13t-10.5 4.5q-8 0 -28.5 -7.5t-38 -14.5t-42.5 -18t-29 -13q-9 -5 -18 -5q-1 0 -3 1t-3.5 3t-2.5 5t-1 6zM220 10q-11 8 4 28l889 1222q10 15 22 8l49 -34 q8 -5 -1 -20l-895 -1230q-12 -15 -19 -9zM655 220q0 12 16 29q49 56 459 499q15 18 30 18q16 0 16 -16v-468h90q13 0 25.5 3t20 5.5t8.5 2.5q4 0 7 -3.5t3 -7.5q0 -2 -3.5 -14t-8 -29t-6.5 -24q-4 -13 -22 -13h-114q0 -104 2 -126q2 -24 11.5 -34t34.5 -12q44 -5 49 -5 q3 0 6 -5t3 -9t-4 -9t-12 -5q-26 0 -68.5 0.5t-75 1.5t-34.5 1q-1 0 -21.5 -1t-51.5 -1.5t-58 -0.5q-13 0 -13 14q0 6 4 10t9 4q4 0 12 1t19.5 2t16.5 2q27 2 37 12.5t11 33.5q2 67 2 126h-376q-10 0 -17 6t-7 12zM780 282h275v294h-7z" />
<glyph unicode="&#xbd;" horiz-adv-x="1532" d="M38 1080q0 9 8 14q2 1 40.5 24.5t83.5 51t87.5 53t49.5 29.5q36 21 45 21q13 0 13 -22q0 -6 -1.5 -38.5t-2.5 -93t-1 -132.5v-183q0 -160 5 -210q3 -24 12 -35.5t36 -17.5q37 -9 76 -9q25 0 25 -13q0 -16 -30 -16q-50 0 -117 1.5t-83 1.5q-14 0 -85 -1.5t-116 -1.5 q-30 0 -30 14.5t23 14.5q52 0 95 9q28 6 37.5 17.5t11.5 35.5q6 50 6 210v183q0 10 0.5 26t0.5 27v25t-1.5 23t-4 17.5t-7 13t-10.5 4.5q-8 0 -28.5 -7.5t-38 -14.5t-42.5 -18t-29 -13q-9 -5 -18 -5q-1 0 -2.5 1t-2.5 2t-2.5 3t-2 4t-0.5 5zM220 10q-11 8 4 28l889 1222 q10 15 22 8l49 -34q8 -5 -1 -20l-895 -1230q-12 -15 -19 -9zM863 13q0 3 2.5 7.5t4.5 7t7 7t6 5.5q96 79 158.5 138.5t112.5 121.5t72.5 121t22.5 122q0 45 -15 79t-38.5 52.5t-48 27t-49.5 8.5q-39 0 -72 -15t-54.5 -45.5t-22.5 -70.5q0 -18 -15 -18q-9 0 -11 26 q-1 0 -3 22.5t-3.5 50.5t-1.5 41q0 8 1 12t3.5 6.5t7.5 5.5q84 41 200 41q133 0 203 -57t70 -138q0 -37 -9 -73.5t-23 -66.5t-42 -66t-52 -62.5t-69 -66t-77 -66.5t-90 -74q-2 -2 -1.5 -5t3.5 -3h48q15 0 96.5 3t94.5 4q57 5 84 24t39 60q4 10 7 13.5t9 3.5q10 0 10 -15 t-12 -64.5t-26 -88.5q-8 -16 -26.5 -22t-54.5 -6h-429q-17 0 -17 13z" />
<glyph unicode="&#xbe;" horiz-adv-x="1462" d="M86 574q0 124 15 124q6 0 9 -3t4 -13q15 -123 170 -123q69 0 119.5 40.5t52.5 117.5q2 45 -16 80.5t-48 56.5t-60 33t-58 15q-37 4 -37 17q0 4 1 6.5t3.5 4.5t6.5 3.5t9.5 3t13.5 2.5q12 1 34.5 12t48.5 30t45 51t19 68q0 17 -6.5 35.5t-21 38.5t-42.5 32.5t-64 12.5 q-38 0 -70.5 -14t-51.5 -38.5t-19 -53.5q0 -21 -10 -21q-24 0 -24 124q0 18 24 27q92 30 187 30q56 0 100 -10.5t69 -25.5t41 -35t21.5 -37t5.5 -33q0 -35 -17 -67t-44 -54t-51.5 -37t-45.5 -23v-4q21 -3 46 -11.5t53 -24.5t50.5 -37t37 -51.5t14.5 -65.5q0 -107 -98 -182.5 t-252 -75.5q-44 0 -86 6t-60 16q-13 7 -15.5 15t-2.5 38zM287 10q-12 8 3 28l889 1222q11 15 22 8l50 -34q8 -5 -2 -20l-894 -1230q-12 -15 -20 -9zM722 220q0 12 16 29q48 56 458 499q16 18 30 18q3 0 6 -1t5.5 -3t4 -5t1.5 -7v-468h89q14 0 26 3t19.5 5.5t9.5 2.5 t4.5 -1.5t3.5 -4.5t1 -5t-3 -14t-8 -29t-6 -24q-5 -13 -22 -13h-114q0 -104 1 -126q3 -24 12 -34t34 -12q44 -5 49 -5q3 0 6.5 -5t3.5 -9t-4.5 -9t-12.5 -5q-26 0 -68.5 0.5t-75 1.5t-34.5 1q-1 0 -21.5 -1t-51.5 -1.5t-57 -0.5q-14 0 -14 14q0 4 2 7.5t5.5 5t6.5 1.5t11 1 t19.5 2t17.5 2q26 2 36 12.5t11 33.5q2 45 2 126h-376q-6 0 -11.5 3t-8.5 7t-3 8zM846 282h275v294h-6z" />
<glyph unicode="&#xbf;" horiz-adv-x="882" d="M116 220q0 51 12.5 98.5t31 83t50 77.5t57.5 70t66.5 72t65.5 72q84 99 84 146q0 49 -27 85q-13 20 -13 30q0 5 4 9t11 4q19 0 85 -52q43 -34 58.5 -57t15.5 -47q0 -41 -33 -84q-15 -19 -53.5 -64t-55.5 -69q-57 -77 -88 -132t-44.5 -104t-13.5 -104q0 -39 10 -74 t31.5 -66.5t61.5 -50t94 -18.5q53 0 94 18.5t64 45.5q51 68 57 138q3 33 16 33q5 0 8 -3t4.5 -6.5t3.5 -12.5q7 -35 7 -193q0 -16 -19 -27q-44 -27 -119 -46.5t-174 -19.5q-78 0 -141 16t-101.5 41.5t-64 59.5t-35.5 66.5t-10 64.5zM396 1173q0 42 26.5 71t68.5 29 q30 0 52 -15.5t30.5 -35.5t8.5 -43q0 -21 -8.5 -42t-31 -36.5t-53.5 -15.5q-40 0 -66.5 24t-26.5 64z" />
<glyph unicode="&#xc0;" horiz-adv-x="1160" d="M-106 11q0 14 20 14q44 0 74 8.5t51.5 30t35.5 46t31 67.5l416 1029q12 26 18.5 39t13.5 20.5t15 7.5q10 0 19.5 -12.5t22.5 -41.5q17 -40 185.5 -455t225.5 -552q23 -53 44.5 -89.5t40 -54.5t32 -25.5t29.5 -10.5q34 -7 70 -7q21 0 21 -14q0 -9 -15 -12.5t-61 -3.5 q-181 0 -314 3q-2 1 -7 1q-12 0 -18 0.5t-12.5 2t-9 4t-2.5 5.5q0 13 22 16q10 3 15.5 13.5t0.5 24.5l-133 342q-5 11 -17 11h-369q-11 0 -16 -13l-89 -228q-25 -64 -25 -101q0 -51 66 -51h26q14 0 19 -3t5 -11q0 -9 -6.5 -12.5t-21.5 -3.5q-27 0 -88.5 2.5t-87.5 2.5 l-72 -2.5t-124 -2.5q-17 0 -24 3.5t-7 12.5zM293 1556q0 9 22 15q53 16 111 42q26 11 32 11q2 0 4 -1.5t4 -4.5t4 -7t6 -10.5t8 -12.5q14 -20 73.5 -76.5t110.5 -93.5q5 -4 12.5 -8.5t11.5 -7t7.5 -6.5t3.5 -8q0 -5 -6 -8t-12 -3q-16 0 -148 56t-189 82q-23 9 -39 21.5 t-16 19.5zM365 513q-3 -12 7 -12h305q12 0 8 10l-149 408q-3 15 -9 15t-9 -15z" />
<glyph unicode="&#xc1;" horiz-adv-x="1160" d="M-106 11q0 14 20 14q44 0 74 8.5t51.5 30t35.5 46t31 67.5l416 1029q12 26 18.5 39t13.5 20.5t15 7.5q10 0 19.5 -12.5t22.5 -41.5q17 -40 185.5 -455t225.5 -552q23 -53 44.5 -89.5t40 -54.5t32 -25.5t29.5 -10.5q34 -7 70 -7q21 0 21 -14q0 -9 -15 -12.5t-61 -3.5 q-181 0 -314 3q-2 1 -7 1q-12 0 -18 0.5t-12.5 2t-9 4t-2.5 5.5q0 13 22 16q10 3 15.5 13.5t0.5 24.5l-133 342q-5 11 -17 11h-369q-11 0 -16 -13l-89 -228q-25 -64 -25 -101q0 -51 66 -51h26q14 0 19 -3t5 -11q0 -9 -6.5 -12.5t-21.5 -3.5q-27 0 -88.5 2.5t-87.5 2.5 l-72 -2.5t-124 -2.5q-17 0 -24 3.5t-7 12.5zM365 513q-3 -12 7 -12h305q12 0 8 10l-149 408q-3 15 -9 15t-9 -15zM470 1387q0 7 14 22q45 42 143 117.5t125 91.5q21 14 33 14q8 0 12 -3.5t11 -15.5q18 -34 48 -100q12 -25 -8 -25q-1 0 -9.5 0.5t-20.5 0.5t-27 -1 q-42 -5 -99.5 -23t-104 -37.5t-79.5 -37.5q-26 -13 -28 -13q-4 0 -7 2.5t-3 7.5z" />
<glyph unicode="&#xc2;" horiz-adv-x="1160" d="M-106 11q0 14 20 14q44 0 74 8.5t51.5 30t35.5 46t31 67.5l416 1029q12 26 18.5 39t13.5 20.5t15 7.5q10 0 19.5 -12.5t22.5 -41.5q17 -40 185.5 -455t225.5 -552q23 -53 44.5 -89.5t40 -54.5t32 -25.5t29.5 -10.5q34 -7 70 -7q21 0 21 -14q0 -9 -15 -12.5t-61 -3.5 q-181 0 -314 3q-2 1 -7 1q-12 0 -18 0.5t-12.5 2t-9 4t-2.5 5.5q0 13 22 16q10 3 15.5 13.5t0.5 24.5l-133 342q-5 11 -17 11h-369q-11 0 -16 -13l-89 -228q-25 -64 -25 -101q0 -51 66 -51h26q14 0 19 -3t5 -11q0 -9 -6.5 -12.5t-21.5 -3.5q-27 0 -88.5 2.5t-87.5 2.5 l-72 -2.5t-124 -2.5q-17 0 -24 3.5t-7 12.5zM322 1377q0 7 15 25q13 14 106 101.5t113 104.5q21 19 34 19q5 0 30 -18q25 -21 198 -149q23 -16 23 -23q0 -9 -8 -17l-48 -48q-12 -12 -22 -12q-6 0 -25 19q-20 20 -74.5 65t-71.5 57q-13 10 -21 10q-7 0 -25 -8 q-105 -61 -176 -123q-22 -20 -33 -20q-6 0 -10.5 5t-4.5 12zM365 513q-3 -12 7 -12h305q12 0 8 10l-149 408q-3 15 -9 15t-9 -15z" />
<glyph unicode="&#xc3;" horiz-adv-x="1160" d="M-106 11q0 14 20 14q44 0 74 8.5t51.5 30t35.5 46t31 67.5l416 1029q12 26 18.5 39t13.5 20.5t15 7.5q10 0 19.5 -12.5t22.5 -41.5q17 -40 185.5 -455t225.5 -552q23 -53 44.5 -89.5t40 -54.5t32 -25.5t29.5 -10.5q34 -7 70 -7q21 0 21 -14q0 -9 -15 -12.5t-61 -3.5 q-181 0 -314 3q-2 1 -7 1q-12 0 -18 0.5t-12.5 2t-9 4t-2.5 5.5q0 13 22 16q10 3 15.5 13.5t0.5 24.5l-133 342q-5 11 -17 11h-369q-11 0 -16 -13l-89 -228q-25 -64 -25 -101q0 -51 66 -51h26q14 0 19 -3t5 -11q0 -9 -6.5 -12.5t-21.5 -3.5q-27 0 -88.5 2.5t-87.5 2.5 l-72 -2.5t-124 -2.5q-17 0 -24 3.5t-7 12.5zM292 1395q0 13 13 31q12 19 27.5 38t38 41t51 35.5t56.5 13.5q9 0 18 -0.5t18 -2.5t15.5 -3.5t15.5 -5.5t13.5 -5.5t14 -6.5t12.5 -7t13.5 -8t12.5 -7q64 -36 119 -36q62 0 101 49q16 22 27 22q5 0 9 -4t4 -10q0 -9 -10 -28 q-7 -13 -21.5 -32t-36 -40.5t-50 -36.5t-55.5 -15q-11 0 -22 1t-21 3t-18 3.5t-18 5.5t-16 6t-15.5 7t-13 6.5t-13.5 7t-12 6.5q-3 2 -11 6.5t-12 6.5l-12 6t-13 5.5t-12.5 4.5t-14 4.5t-15 2.5t-16.5 1q-62 -2 -113 -60q-17 -17 -26 -17q-5 0 -8.5 3.5t-3.5 8.5zM365 513 q-3 -12 7 -12h305q12 0 8 10l-149 408q-3 15 -9 15t-9 -15z" />
<glyph unicode="&#xc4;" horiz-adv-x="1160" d="M-106 11q0 14 20 14q44 0 74 8.5t51.5 30t35.5 46t31 67.5l416 1029q12 26 18.5 39t13.5 20.5t15 7.5q10 0 19.5 -12.5t22.5 -41.5q17 -40 185.5 -455t225.5 -552q23 -53 44.5 -89.5t40 -54.5t32 -25.5t29.5 -10.5q34 -7 70 -7q21 0 21 -14q0 -9 -15 -12.5t-61 -3.5 q-181 0 -314 3q-2 1 -7 1q-12 0 -18 0.5t-12.5 2t-9 4t-2.5 5.5q0 13 22 16q10 3 15.5 13.5t0.5 24.5l-133 342q-5 11 -17 11h-369q-11 0 -16 -13l-89 -228q-25 -64 -25 -101q0 -51 66 -51h26q14 0 19 -3t5 -11q0 -9 -6.5 -12.5t-21.5 -3.5q-27 0 -88.5 2.5t-87.5 2.5 l-72 -2.5t-124 -2.5q-17 0 -24 3.5t-7 12.5zM330 1455q0 28 20 52t57 24q33 0 55 -19.5t22 -51.5q0 -36 -22 -59.5t-57 -23.5q-25 0 -42.5 12.5t-25 29.5t-7.5 36zM365 513q-3 -12 7 -12h305q12 0 8 10l-149 408q-3 15 -9 15t-9 -15zM680 1455q0 29 20 53.5t57 24.5 q21 0 38.5 -8.5t28 -25.5t10.5 -39q0 -23 -9.5 -42t-28 -30t-41.5 -11q-37 0 -56 24t-19 54z" />
<glyph unicode="&#xc5;" horiz-adv-x="1160" d="M-106 11q0 14 20 14q44 0 74 8.5t51.5 30t35.5 46t31 67.5l416 1029q12 26 18.5 39t13.5 20.5t15 7.5q10 0 19.5 -12.5t22.5 -41.5q17 -40 185.5 -455t225.5 -552q23 -53 44.5 -89.5t40 -54.5t32 -25.5t29.5 -10.5q34 -7 70 -7q21 0 21 -14q0 -9 -15 -12.5t-61 -3.5 q-181 0 -314 3q-2 1 -7 1q-12 0 -18 0.5t-12.5 2t-9 4t-2.5 5.5q0 13 22 16q10 3 15.5 13.5t0.5 24.5l-133 342q-5 11 -17 11h-369q-11 0 -16 -13l-89 -228q-25 -64 -25 -101q0 -51 66 -51h26q14 0 19 -3t5 -11q0 -9 -6.5 -12.5t-21.5 -3.5q-27 0 -88.5 2.5t-87.5 2.5 l-72 -2.5t-124 -2.5q-17 0 -24 3.5t-7 12.5zM365 513q-3 -12 7 -12h305q12 0 8 10l-149 408q-3 15 -9 15t-9 -15zM390 1460q0 58 66 101.5t161 43.5q72 0 114.5 -26t42.5 -69q1 -34 -20.5 -63t-56.5 -47.5t-76.5 -29t-82.5 -10.5q-68 0 -108 28t-40 72zM491 1483 q0 -35 26 -58t57 -23q41 0 70 25.5t29 60.5q0 32 -22.5 54t-64.5 22q-34 0 -64.5 -21t-30.5 -60z" />
<glyph unicode="&#xc6;" horiz-adv-x="1537" d="M-154 11q0 14 23 14q31 0 61.5 11t52.5 26.5t45 39t36 41t29.5 40t22.5 29.5q15 19 80 118.5t152 234t166.5 259t144.5 226t66 103.5q28 45 36 73q6 23 22 23q3 0 12 -1t16 -1q29 -3 60 -3q383 0 414 2q55 5 72 10q3 0 8 2t10 3.5t8 1.5q10 0 10 -16q0 -3 -2 -14 t-5.5 -35.5t-5.5 -57.5q0 -5 -0.5 -22.5t-1 -33.5t-2.5 -33.5t-7.5 -28t-13.5 -10.5q-14 0 -14 23q0 34 -11 60q-10 26 -32 39t-79 20q-19 2 -111.5 5t-124.5 3q-11 0 -11 -17v-474q0 -17 11 -17q228 0 266 3q61 5 79 25q19 21 27 21q12 0 12 -15q0 -2 -0.5 -6.5t-1.5 -10 t-2.5 -15.5t-2.5 -22t-3 -29.5t-3 -37.5q-1 -13 -2.5 -39.5t-3 -46.5t-1.5 -25q0 -32 -15 -32t-15 16q0 2 -1 6q-2 26 -4 38.5t-8 29.5t-15.5 25t-27.5 15t-44 10q-11 1 -44 2.5t-70.5 2.5t-71.5 1.5t-49 0.5q-10 0 -10 -17v-78q0 -25 -0.5 -87t-1 -115t-0.5 -55 q1 -31 4 -50.5t12 -36.5t22 -26t36 -15.5t52.5 -9t73.5 -2.5q112 0 155 21q32 15 49.5 43t25.5 79q3 14 6.5 19.5t11.5 5.5q9 0 11 -7t2 -23q0 -28 -7.5 -93.5t-13.5 -90.5q-8 -30 -23 -36.5t-67 -6.5q-103 0 -244.5 5t-214.5 5q-8 0 -38.5 -1t-49.5 -1q-73 -3 -105 -3 q-18 0 -24.5 3t-6.5 12q0 8 4 11.5t18 3.5q29 0 58 7q23 4 32.5 26.5t15.5 64.5q8 70 8 353v80q0 13 -15 13h-267q-21 0 -28 -12q-11 -14 -89.5 -151.5t-90.5 -156.5q-72 -122 -72 -163q0 -61 112 -61q25 0 25 -14q0 -16 -31 -16q-62 0 -146 2.5t-92 2.5t-84 -2.5t-126 -2.5 q-9 0 -14 2t-7 5t-2 9zM525 650.5q2 -3.5 11 -3.5h222q15 0 15 13v402h-8q-14 -24 -72 -120t-108.5 -180.5t-57.5 -98.5q-4 -9 -2 -12.5z" />
<glyph unicode="&#xc7;" horiz-adv-x="1326" d="M92 642q0 48 8 99.5t28 114t60.5 126t96.5 115.5q94 86 220 131t304 45q108 0 241 -17q30 -4 85 -15t81 -13q25 -2 25 -20q0 -5 -1.5 -15.5t-3.5 -31t-3 -45.5q-2 -27 -2.5 -94.5t-2.5 -84.5q-1 -13 -3 -21t-6 -12.5t-11 -4.5q-17 0 -17 37q-2 39 -18 80t-46 72 q-43 45 -134.5 74t-202.5 29q-199 0 -312 -103q-58 -53 -93.5 -126t-47.5 -144.5t-12 -158.5q0 -114 33 -212.5t87 -166.5t123 -117t140.5 -72t139.5 -23q79 0 131 7t95.5 28t76.5 58q20 23 35.5 54t21.5 56q3 20 7.5 26.5t14.5 6.5q14 0 14 -25q0 -11 -5.5 -52.5t-14.5 -92 t-16 -76.5q-7 -21 -14.5 -30.5t-28.5 -17.5q-47 -19 -129.5 -28.5t-169.5 -9.5q-34 0 -88 3l-119 -89q92 -9 144 -43.5t52 -89.5q0 -22 -9 -44.5t-31 -46.5t-55.5 -43t-88 -31t-122.5 -12q-28 0 -28 16q0 10 12 16t31 6q29 0 60.5 12.5t55 39t23.5 59.5q0 102 -130 121 q-37 5 -37 13q0 6 26 25l133 100q-96 13 -181.5 43.5t-164 84.5t-135 127t-89.5 176.5t-33 226.5z" />
<glyph unicode="&#xc8;" d="M104 1234q0 15 37 15q23 0 68.5 -1t65.5 -1q86 -3 105 -3q383 0 415 2q55 5 71 10q3 0 12.5 3.5t14.5 3.5q9 0 9 -16q0 -3 -2 -14t-5 -35.5t-6 -57.5q0 -5 -0.5 -22t-1.5 -33.5t-3 -34t-7 -28t-13 -10.5q-14 0 -14 23q0 34 -11 60q-9 26 -31 39t-80 20q-19 2 -111.5 5 t-124.5 3q-11 0 -11 -17v-420q0 -19 11 -19q219 0 266 4q62 5 80 25q19 22 26 22q12 0 12 -13q-20 -198 -20 -233q0 -31 -15 -31t-15 14v7q-3 26 -5 38.5t-8 29.5t-15.5 25t-27 15t-43.5 10q-48 5 -236 5q-10 0 -10 -16v-132v-257q1 -26 3.5 -44t8 -33.5t15.5 -25.5 t24 -17.5t35.5 -11.5t48.5 -6t64 -2q113 0 156 21q32 15 49 43t25 79q3 14 7 19.5t12 5.5q9 0 11 -7t2 -23q0 -28 -7.5 -93.5t-13.5 -90.5q-8 -30 -23.5 -36.5t-66.5 -6.5q-103 0 -245 5t-214 5q-55 0 -95 -2q-20 0 -59 -1.5t-55 -1.5q-33 0 -33 16q0 14 26 14q30 0 59 7 q23 4 33 26.5t16 64.5q8 70 8 353v292q0 298 -3 351q-3 45 -17.5 66t-53.5 29q-20 5 -65 5q-29 0 -29 15zM269 1556q0 9 21 15q55 17 112 42q26 11 31 11q4 0 6.5 -3.5t8 -14t11.5 -18.5q14 -20 74 -76.5t111 -93.5q5 -4 12 -8.5t11.5 -7t8 -6.5t3.5 -8q0 -5 -6.5 -8 t-12.5 -3q-16 0 -148 56t-189 82q-23 9 -38.5 21t-15.5 20z" />
<glyph unicode="&#xc9;" d="M104 1234q0 15 37 15q23 0 68.5 -1t65.5 -1q86 -3 105 -3q383 0 415 2q55 5 71 10q3 0 12.5 3.5t14.5 3.5q9 0 9 -16q0 -3 -2 -14t-5 -35.5t-6 -57.5q0 -5 -0.5 -22t-1.5 -33.5t-3 -34t-7 -28t-13 -10.5q-14 0 -14 23q0 34 -11 60q-9 26 -31 39t-80 20q-19 2 -111.5 5 t-124.5 3q-11 0 -11 -17v-420q0 -19 11 -19q219 0 266 4q62 5 80 25q19 22 26 22q12 0 12 -13q-20 -198 -20 -233q0 -31 -15 -31t-15 14v7q-3 26 -5 38.5t-8 29.5t-15.5 25t-27 15t-43.5 10q-48 5 -236 5q-10 0 -10 -16v-132v-257q1 -26 3.5 -44t8 -33.5t15.5 -25.5 t24 -17.5t35.5 -11.5t48.5 -6t64 -2q113 0 156 21q32 15 49 43t25 79q3 14 7 19.5t12 5.5q9 0 11 -7t2 -23q0 -28 -7.5 -93.5t-13.5 -90.5q-8 -30 -23.5 -36.5t-66.5 -6.5q-103 0 -245 5t-214 5q-55 0 -95 -2q-20 0 -59 -1.5t-55 -1.5q-33 0 -33 16q0 14 26 14q30 0 59 7 q23 4 33 26.5t16 64.5q8 70 8 353v292q0 298 -3 351q-3 45 -17.5 66t-53.5 29q-20 5 -65 5q-29 0 -29 15zM428 1387q0 6 15 22q30 29 91 77t111.5 85.5t64.5 46.5q21 14 34 14q8 0 12 -3.5t10 -15.5q19 -34 49 -100q5 -15 2 -20t-11 -5q-2 0 -10 0.5t-19.5 0.5t-26.5 -1 q-63 -8 -146.5 -38.5t-137.5 -59.5q-26 -13 -28 -13t-4 1t-4 3.5t-2 5.5z" />
<glyph unicode="&#xca;" d="M104 1234q0 15 37 15q23 0 68.5 -1t65.5 -1q86 -3 105 -3q383 0 415 2q55 5 71 10q3 0 12.5 3.5t14.5 3.5q9 0 9 -16q0 -3 -2 -14t-5 -35.5t-6 -57.5q0 -5 -0.5 -22t-1.5 -33.5t-3 -34t-7 -28t-13 -10.5q-14 0 -14 23q0 34 -11 60q-9 26 -31 39t-80 20q-19 2 -111.5 5 t-124.5 3q-11 0 -11 -17v-420q0 -19 11 -19q219 0 266 4q62 5 80 25q19 22 26 22q12 0 12 -13q-20 -198 -20 -233q0 -31 -15 -31t-15 14v7q-3 26 -5 38.5t-8 29.5t-15.5 25t-27 15t-43.5 10q-48 5 -236 5q-10 0 -10 -16v-132v-257q1 -26 3.5 -44t8 -33.5t15.5 -25.5 t24 -17.5t35.5 -11.5t48.5 -6t64 -2q113 0 156 21q32 15 49 43t25 79q3 14 7 19.5t12 5.5q9 0 11 -7t2 -23q0 -28 -7.5 -93.5t-13.5 -90.5q-8 -30 -23.5 -36.5t-66.5 -6.5q-103 0 -245 5t-214 5q-55 0 -95 -2q-20 0 -59 -1.5t-55 -1.5q-33 0 -33 16q0 14 26 14q30 0 59 7 q23 4 33 26.5t16 64.5q8 70 8 353v292q0 298 -3 351q-3 45 -17.5 66t-53.5 29q-20 5 -65 5q-29 0 -29 15zM297 1377q0 8 15 25q13 14 106 101.5t113 104.5q21 19 34 19q5 0 30 -18q25 -21 198 -149q23 -17 23 -23q0 -8 -8 -17l-48 -48q-12 -12 -22 -12q-6 0 -24 19 q-20 20 -74.5 64.5t-72.5 57.5q-13 10 -21 10q-7 0 -25 -8q-105 -61 -176 -123q-22 -20 -33 -20q-6 0 -10.5 5t-4.5 12z" />
<glyph unicode="&#xcb;" d="M104 1234q0 15 37 15q23 0 68.5 -1t65.5 -1q86 -3 105 -3q383 0 415 2q55 5 71 10q3 0 12.5 3.5t14.5 3.5q9 0 9 -16q0 -3 -2 -14t-5 -35.5t-6 -57.5q0 -5 -0.5 -22t-1.5 -33.5t-3 -34t-7 -28t-13 -10.5q-14 0 -14 23q0 34 -11 60q-9 26 -31 39t-80 20q-19 2 -111.5 5 t-124.5 3q-11 0 -11 -17v-420q0 -19 11 -19q219 0 266 4q62 5 80 25q19 22 26 22q12 0 12 -13q-20 -198 -20 -233q0 -31 -15 -31t-15 14v7q-3 26 -5 38.5t-8 29.5t-15.5 25t-27 15t-43.5 10q-48 5 -236 5q-10 0 -10 -16v-132v-257q1 -26 3.5 -44t8 -33.5t15.5 -25.5 t24 -17.5t35.5 -11.5t48.5 -6t64 -2q113 0 156 21q32 15 49 43t25 79q3 14 7 19.5t12 5.5q9 0 11 -7t2 -23q0 -28 -7.5 -93.5t-13.5 -90.5q-8 -30 -23.5 -36.5t-66.5 -6.5q-103 0 -245 5t-214 5q-55 0 -95 -2q-20 0 -59 -1.5t-55 -1.5q-33 0 -33 16q0 14 26 14q30 0 59 7 q23 4 33 26.5t16 64.5q8 70 8 353v292q0 298 -3 351q-3 45 -17.5 66t-53.5 29q-20 5 -65 5q-29 0 -29 15zM305 1455q0 28 20 52t57 24q33 0 55 -19.5t22 -51.5q0 -36 -22 -59.5t-57 -23.5q-25 0 -42.5 12.5t-25 29.5t-7.5 36zM655 1455q0 29 20 53.5t56 24.5q34 0 56 -20 t22 -53q0 -36 -22 -59.5t-57 -23.5q-37 0 -56 24t-19 54z" />
<glyph unicode="&#xcc;" horiz-adv-x="749" d="M88 1556q0 9 21 15q53 16 111 42q26 11 32 11q4 0 6.5 -3.5t8.5 -14t12 -18.5q5 -8 24 -27.5t44 -44t57 -51.5t59 -47q4 -4 11.5 -8.5t12 -7t7.5 -6.5t3 -8q0 -5 -5.5 -8t-11.5 -3q-16 0 -148.5 56t-188.5 82q-23 9 -39 21t-16 20zM126 1236q0 13 40 13q34 0 114 -2.5 t102 -2.5q17 0 92.5 2.5t109.5 2.5q35 0 35 -13q0 -17 -27 -17q-39 0 -61.5 -8t-35 -30t-14.5 -62q-3 -53 -3 -351v-292v-94.5t0.5 -80.5t1 -77.5t1.5 -59.5t3 -51q4 -38 18 -57.5t49 -23.5q47 -7 84 -7q27 0 27 -14q0 -16 -32 -16q-63 0 -153.5 2.5t-104.5 2.5 q-16 0 -94 -2.5t-115 -2.5q-33 0 -33 16q0 14 26 14q59 0 80.5 17t27.5 72q8 70 8 362v292q0 298 -3 351q-4 60 -30 80t-87 20q-26 0 -26 17z" />
<glyph unicode="&#xcd;" horiz-adv-x="749" d="M126 1236q0 13 40 13q34 0 114 -2.5t102 -2.5q17 0 92.5 2.5t109.5 2.5q35 0 35 -13q0 -17 -27 -17q-39 0 -61.5 -8t-35 -30t-14.5 -62q-3 -53 -3 -351v-292v-94.5t0.5 -80.5t1 -77.5t1.5 -59.5t3 -51q4 -38 18 -57.5t49 -23.5q47 -7 84 -7q27 0 27 -14q0 -16 -32 -16 q-63 0 -153.5 2.5t-104.5 2.5q-16 0 -94 -2.5t-115 -2.5q-33 0 -33 16q0 14 26 14q59 0 80.5 17t27.5 72q8 70 8 362v292q0 298 -3 351q-4 60 -30 80t-87 20q-26 0 -26 17zM264 1387q0 7 15 22q44 42 142.5 117.5t124.5 91.5q21 14 33 14q8 0 12 -3.5t11 -15.5 q19 -34 48 -100q12 -25 -8 -25q-1 0 -9.5 0.5t-20.5 0.5t-26 -1q-63 -8 -146 -38.5t-138 -59.5q-26 -13 -28 -13q-3 0 -6.5 2.5t-3.5 7.5z" />
<glyph unicode="&#xce;" horiz-adv-x="749" d="M116 1377q0 7 15 25q13 14 106.5 101.5t112.5 104.5q22 19 35 19q4 0 30 -18q24 -21 197 -149q23 -16 23 -23q0 -9 -8 -17l-48 -48q-12 -12 -22 -12q-6 0 -25 19q-13 14 -46.5 42t-61.5 50.5t-38 29.5q-13 10 -21 10q-7 0 -25 -8q-105 -61 -176 -123q-22 -20 -33 -20 q-6 0 -10.5 5t-4.5 12zM126 1236q0 13 40 13q34 0 114 -2.5t102 -2.5q17 0 92.5 2.5t109.5 2.5q35 0 35 -13q0 -17 -27 -17q-39 0 -61.5 -8t-35 -30t-14.5 -62q-3 -53 -3 -351v-292v-94.5t0.5 -80.5t1 -77.5t1.5 -59.5t3 -51q4 -38 18 -57.5t49 -23.5q47 -7 84 -7 q27 0 27 -14q0 -16 -32 -16q-63 0 -153.5 2.5t-104.5 2.5q-16 0 -94 -2.5t-115 -2.5q-33 0 -33 16q0 14 26 14q59 0 80.5 17t27.5 72q8 70 8 362v292q0 298 -3 351q-4 60 -30 80t-87 20q-26 0 -26 17z" />
<glyph unicode="&#xcf;" horiz-adv-x="749" d="M125 1455q0 28 19.5 52t56.5 24q33 0 55.5 -19.5t22.5 -51.5q0 -36 -22 -59.5t-58 -23.5q-37 0 -55.5 24t-18.5 54zM126 1236q0 13 40 13q34 0 114 -2.5t102 -2.5q17 0 92.5 2.5t109.5 2.5q35 0 35 -13q0 -17 -27 -17q-39 0 -61.5 -8t-35 -30t-14.5 -62q-3 -53 -3 -351 v-292v-94.5t0.5 -80.5t1 -77.5t1.5 -59.5t3 -51q4 -38 18 -57.5t49 -23.5q47 -7 84 -7q27 0 27 -14q0 -16 -32 -16q-63 0 -153.5 2.5t-104.5 2.5q-16 0 -94 -2.5t-115 -2.5q-33 0 -33 16q0 14 26 14q59 0 80.5 17t27.5 72q8 70 8 362v292q0 298 -3 351q-4 60 -30 80t-87 20 q-26 0 -26 17zM475 1455q0 29 19.5 53.5t56.5 24.5q33 0 55.5 -20t22.5 -53q0 -23 -10 -42t-28 -30t-42 -11q-25 0 -42.5 12.5t-24.5 29.5t-7 36z" />
<glyph unicode="&#xd0;" horiz-adv-x="1551" d="M96 606l8 49q3 16 22 16h146v97q0 298 -3 351q-3 45 -17.5 66t-53.5 29q-20 5 -65 5q-29 0 -29 15t37 15q49 0 135 -2.5t104 -2.5q19 0 109 2.5t146 2.5h72.5t74 -2t79 -5t77.5 -9.5t80 -16t75.5 -23.5t75.5 -32.5t67.5 -44t64.5 -56.5q70 -73 115 -179t45 -243 q0 -99 -26 -191.5t-64.5 -157.5t-88.5 -116q-31 -32 -80.5 -64t-117 -62t-155 -48.5t-177.5 -18.5q-47 0 -193.5 10t-186.5 10q-55 0 -95 -2q-20 0 -59 -1.5t-55 -1.5q-33 0 -33 16q0 14 26 14q30 0 59 7q23 4 33 26.5t16 64.5q8 70 8 353v110h-168q-11 0 -8 20zM480 508 q0 -193 3 -256q4 -106 18 -126q12 -17 36 -31.5t72 -25.5t109 -11q128 0 222 29.5t166 94.5q133 118 133 408q0 61 -10 118t-25.5 100t-37 82t-42.5 66t-44 49q-174 166 -471 166q-28 0 -63.5 -3.5t-44.5 -7.5q-20 -9 -20 -33q-1 -57 -1 -332v-122h331q14 0 12 -19l-10 -55 q-2 -15 -20 -15h-313v-76z" />
<glyph unicode="&#xd1;" horiz-adv-x="1570" d="M78 11q0 14 26 14q28 0 46 2.5t32.5 6t22.5 17t13.5 24t8 40t3 52.5t1.5 72l14 977q0 57 22 57q6 0 11 -2.5t11 -8t11 -10.5t14 -15t15 -16q5 -6 22 -23.5t46.5 -49t65.5 -69t82 -85t93 -95.5t101 -102t103 -104q49 -48 135 -137.5t153 -159.5t78 -81h8l-16 745 q-1 55 -7.5 85.5t-24.5 47.5t-42.5 21.5t-70.5 4.5q-26 0 -26 15t43 15q49 0 119 -2.5t82 -2.5q1 0 57.5 2.5t104.5 2.5q38 0 38 -15t-30 -15q-66 0 -87.5 -28.5t-23.5 -117.5l-18 -1046q0 -52 -22 -52q-19 0 -56 36q-59 57 -244 242.5t-245 245.5q-62 62 -134 136.5 t-120 125t-93 99.5t-48 52h-5l18 -692q3 -92 17 -133t41 -51q33 -11 86 -11q29 0 29 -14q0 -16 -39 -16q-63 0 -131.5 2.5t-74.5 2.5q-3 0 -15 -0.5t-29.5 -1t-38 -1.5t-46.5 -1.5t-50 -0.5q-12 0 -19 1t-12 4.5t-5 10.5zM513 1395q0 14 13 31q11 19 26.5 38t38.5 41 t51 35.5t56 13.5q11 0 21.5 -1t18 -2.5t18.5 -5.5t15.5 -5t16.5 -7.5t14 -7.5t15.5 -9l13.5 -8q64 -36 120 -36q61 0 100 49q17 22 27 22q5 0 9.5 -4t4.5 -10q0 -7 -11 -28q-5 -10 -14.5 -24t-26 -32t-34.5 -32.5t-41.5 -25t-45.5 -10.5q-32 0 -64.5 9.5t-43.5 15t-41 21.5 q-3 2 -11.5 6.5t-12 6.5t-11.5 6t-13 5.5t-13 4.5t-14.5 4.5t-14.5 2.5t-17 1q-62 -2 -112 -60q-17 -17 -27 -17q-11 0 -11 12z" />
<glyph unicode="&#xd2;" horiz-adv-x="1537" d="M92 622q0 62 11.5 125t37 127.5t63.5 122.5t94 108.5t124.5 87.5t159 58.5t194.5 21.5q153 0 278.5 -44t212 -124t133.5 -196t47 -257q0 -142 -49 -266.5t-136.5 -216t-217.5 -144.5t-284 -53q-100 0 -187 20.5t-154 56.5t-122 86t-92.5 108t-63.5 122t-37.5 128.5 t-11.5 128.5zM320 673q0 -103 22 -196.5t65.5 -170t104.5 -133t142.5 -87.5t174.5 -31q29 0 58.5 4.5t68.5 18.5t73.5 36.5t69.5 64t59.5 96t40 136t15.5 179.5q0 137 -37.5 251t-103 190.5t-154.5 119t-191 42.5q-43 0 -83 -7t-81.5 -24t-76.5 -43.5t-66.5 -67.5t-53.5 -94 t-34.5 -125.5t-12.5 -158.5zM481 1556q0 9 22 15q53 16 111 42q26 11 32 11q3 0 5.5 -3.5t8 -14t11.5 -18.5t25 -27.5t44.5 -44t57 -51.5t58.5 -47q6 -4 16 -10t14.5 -10.5t4.5 -9.5t-6 -8t-13 -3q-16 0 -147 55.5t-189 82.5q-15 6 -28 14t-20 15t-7 12z" />
<glyph unicode="&#xd3;" horiz-adv-x="1537" d="M92 622q0 62 11.5 125t37 127.5t63.5 122.5t94 108.5t124.5 87.5t159 58.5t194.5 21.5q153 0 278.5 -44t212 -124t133.5 -196t47 -257q0 -142 -49 -266.5t-136.5 -216t-217.5 -144.5t-284 -53q-100 0 -187 20.5t-154 56.5t-122 86t-92.5 108t-63.5 122t-37.5 128.5 t-11.5 128.5zM320 673q0 -103 22 -196.5t65.5 -170t104.5 -133t142.5 -87.5t174.5 -31q29 0 58.5 4.5t68.5 18.5t73.5 36.5t69.5 64t59.5 96t40 136t15.5 179.5q0 137 -37.5 251t-103 190.5t-154.5 119t-191 42.5q-43 0 -83 -7t-81.5 -24t-76.5 -43.5t-66.5 -67.5t-53.5 -94 t-34.5 -125.5t-12.5 -158.5zM657 1387q0 7 14 22q45 42 143.5 117.5t124.5 91.5q21 14 33 14q8 0 12.5 -4t10.5 -15q15 -26 48 -100q12 -25 -8 -25q-1 0 -9.5 0.5t-20.5 0.5t-27 -1q-62 -8 -145.5 -38.5t-137.5 -59.5q-26 -13 -28 -13t-4 1t-4 3.5t-2 5.5z" />
<glyph unicode="&#xd4;" horiz-adv-x="1537" d="M92 622q0 62 11.5 125t37 127.5t63.5 122.5t94 108.5t124.5 87.5t159 58.5t194.5 21.5q153 0 278.5 -44t212 -124t133.5 -196t47 -257q0 -142 -49 -266.5t-136.5 -216t-217.5 -144.5t-284 -53q-100 0 -187 20.5t-154 56.5t-122 86t-92.5 108t-63.5 122t-37.5 128.5 t-11.5 128.5zM320 673q0 -103 22 -196.5t65.5 -170t104.5 -133t142.5 -87.5t174.5 -31q29 0 58.5 4.5t68.5 18.5t73.5 36.5t69.5 64t59.5 96t40 136t15.5 179.5q0 137 -37.5 251t-103 190.5t-154.5 119t-191 42.5q-43 0 -83 -7t-81.5 -24t-76.5 -43.5t-66.5 -67.5t-53.5 -94 t-34.5 -125.5t-12.5 -158.5zM509 1377q0 8 15 25q9 10 58.5 56.5t99.5 93t62 56.5q21 19 34 19q4 0 30 -18q24 -21 197 -149q24 -17 24 -23q0 -9 -8 -17l-49 -48q-12 -12 -21 -12q-7 0 -25 19q-20 20 -74.5 65t-71.5 57q-13 10 -22 10q-7 0 -25 -8q-105 -61 -176 -123 q-22 -20 -33 -20q-6 0 -10.5 5t-4.5 12z" />
<glyph unicode="&#xd5;" horiz-adv-x="1537" d="M92 622q0 62 11.5 125t37 127.5t63.5 122.5t94 108.5t124.5 87.5t159 58.5t194.5 21.5q153 0 278.5 -44t212 -124t133.5 -196t47 -257q0 -142 -49 -266.5t-136.5 -216t-217.5 -144.5t-284 -53q-100 0 -187 20.5t-154 56.5t-122 86t-92.5 108t-63.5 122t-37.5 128.5 t-11.5 128.5zM320 673q0 -103 22 -196.5t65.5 -170t104.5 -133t142.5 -87.5t174.5 -31q29 0 58.5 4.5t68.5 18.5t73.5 36.5t69.5 64t59.5 96t40 136t15.5 179.5q0 137 -37.5 251t-103 190.5t-154.5 119t-191 42.5q-43 0 -83 -7t-81.5 -24t-76.5 -43.5t-66.5 -67.5t-53.5 -94 t-34.5 -125.5t-12.5 -158.5zM480 1395q0 14 12 31q12 19 27.5 38t38 41t51 35.5t56.5 13.5q10 0 18.5 -0.5t17.5 -2.5t15.5 -3.5t15.5 -5.5t13.5 -5.5t14 -6.5t12.5 -7t13.5 -8t12.5 -7q64 -36 120 -36q61 0 100 49q17 22 27 22q3 0 6 -1.5t5.5 -5t2.5 -7.5q0 -7 -11 -28 q-7 -13 -21 -31.5t-35.5 -40.5t-50 -37t-55.5 -15q-32 0 -64.5 9.5t-43.5 15t-42 21.5q-1 1 -12 7t-14.5 7.5t-13 6.5t-15.5 6.5t-15 4.5t-18 4t-18 1q-22 0 -41.5 -6t-35.5 -19.5t-20 -17.5t-15 -17q-17 -17 -27 -17q-11 0 -11 12z" />
<glyph unicode="&#xd6;" horiz-adv-x="1537" d="M92 622q0 62 11.5 125t37 127.5t63.5 122.5t94 108.5t124.5 87.5t159 58.5t194.5 21.5q153 0 278.5 -44t212 -124t133.5 -196t47 -257q0 -142 -49 -266.5t-136.5 -216t-217.5 -144.5t-284 -53q-100 0 -187 20.5t-154 56.5t-122 86t-92.5 108t-63.5 122t-37.5 128.5 t-11.5 128.5zM320 673q0 -103 22 -196.5t65.5 -170t104.5 -133t142.5 -87.5t174.5 -31q29 0 58.5 4.5t68.5 18.5t73.5 36.5t69.5 64t59.5 96t40 136t15.5 179.5q0 137 -37.5 251t-103 190.5t-154.5 119t-191 42.5q-43 0 -83 -7t-81.5 -24t-76.5 -43.5t-66.5 -67.5t-53.5 -94 t-34.5 -125.5t-12.5 -158.5zM518 1455q0 28 19.5 52t56.5 24q33 0 55 -19.5t22 -51.5q0 -23 -9.5 -42t-28 -30t-41.5 -11q-37 0 -55.5 24t-18.5 54zM868 1455q0 18 7 35t25.5 30t43.5 13q33 0 55.5 -20t22.5 -53q0 -36 -22.5 -59.5t-57.5 -23.5q-37 0 -55.5 24t-18.5 54z " />
<glyph unicode="&#xd7;" horiz-adv-x="910" d="M90 111l298 307l-298 307l68 68l298 -307l299 307l68 -68l-299 -307l299 -307l-68 -68l-299 305l-298 -305z" />
<glyph unicode="&#xd8;" horiz-adv-x="1537" d="M92 622q0 62 11.5 125t37 127.5t63.5 122.5t94 108.5t124.5 87.5t159 58.5t194.5 21.5q261 0 432 -122l124 131q9 9 23 -3l47 -40q9 -9 0 -18l-123 -129q81 -80 124.5 -192t43.5 -248q0 -142 -49 -266.5t-136.5 -216t-217.5 -144.5t-284 -53q-251 0 -421 129l-140 -146 q-8 -8 -17 0l-46 42q-10 9 -3 16l139 148q-90 92 -135 214t-45 247zM322 671q0 -211 86 -366l675 713q-44 55 -99.5 94t-120 59t-133.5 20q-43 0 -83 -7t-81.5 -24t-76.5 -43.5t-66.5 -67.5t-53.5 -93.5t-34.5 -125t-12.5 -159.5zM459 229q69 -83 163 -129.5t209 -46.5 q29 0 58 4.5t68.5 18.5t74 37t69 64t59.5 95.5t40.5 136t15.5 180.5q0 194 -81 350z" />
<glyph unicode="&#xd9;" horiz-adv-x="1412" d="M33 1234q0 15 37 15q49 0 135.5 -2.5t106.5 -2.5q17 0 94 2.5t110 2.5q36 0 36 -15t-26 -15q-58 0 -82 -21t-28 -79q-3 -53 -3 -351v-232q0 -171 32 -262.5t98 -145.5q82 -68 207 -68q61 0 121.5 21.5t106.5 67.5q27 27 45.5 63t28.5 71t15.5 86t6.5 90.5t1 101.5v207 q0 298 -3 351q-3 45 -17.5 66t-54.5 29q-19 5 -60 5q-28 0 -28 15t35 15q17 0 37 -0.5t37.5 -0.5t35 -0.5t32 -1t25.5 -1t17.5 -1l6.5 -0.5q5 0 78 2.5t111 2.5q35 0 35 -15t-30 -15q-58 0 -82 -20.5t-28 -79.5q-3 -53 -3 -351v-178q0 -79 -5.5 -140.5t-20.5 -131t-48 -127 t-83 -99.5q-81 -70 -165.5 -95t-179.5 -25q-45 0 -80.5 2.5t-89 12.5t-105 35t-94.5 64q-45 41 -76 94t-51 141.5t-20 204.5v242q0 298 -3 351q-3 45 -17.5 66t-54.5 29q-19 5 -64 5q-29 0 -29 15zM426 1556q0 9 22 15q53 16 111 42q26 11 31 11q4 0 7 -3.5t8.5 -14 t11.5 -18.5q14 -20 73.5 -76.5t110.5 -93.5q6 -4 16 -10t14.5 -10.5t4.5 -9.5t-6 -8t-12 -3q-16 0 -148 56t-189 82q-23 9 -39 21.5t-16 19.5z" />
<glyph unicode="&#xda;" horiz-adv-x="1412" d="M33 1234q0 15 37 15q49 0 135.5 -2.5t106.5 -2.5q17 0 94 2.5t110 2.5q36 0 36 -15t-26 -15q-58 0 -82 -21t-28 -79q-3 -53 -3 -351v-232q0 -171 32 -262.5t98 -145.5q82 -68 207 -68q61 0 121.5 21.5t106.5 67.5q27 27 45.5 63t28.5 71t15.5 86t6.5 90.5t1 101.5v207 q0 298 -3 351q-3 45 -17.5 66t-54.5 29q-19 5 -60 5q-28 0 -28 15t35 15q17 0 37 -0.5t37.5 -0.5t35 -0.5t32 -1t25.5 -1t17.5 -1l6.5 -0.5q5 0 78 2.5t111 2.5q35 0 35 -15t-30 -15q-58 0 -82 -20.5t-28 -79.5q-3 -53 -3 -351v-178q0 -79 -5.5 -140.5t-20.5 -131t-48 -127 t-83 -99.5q-81 -70 -165.5 -95t-179.5 -25q-45 0 -80.5 2.5t-89 12.5t-105 35t-94.5 64q-45 41 -76 94t-51 141.5t-20 204.5v242q0 298 -3 351q-3 45 -17.5 66t-54.5 29q-19 5 -64 5q-29 0 -29 15zM627 1387q0 6 15 22q45 42 143 117.5t124 91.5q21 14 33 14q8 0 12.5 -4 t11.5 -15q14 -26 47 -100q12 -25 -8 -25h-3.5t-5.5 0.5t-6 0.5h-7.5h-9.5h-11.5t-12.5 -1q-63 -8 -146.5 -38.5t-137.5 -59.5q-26 -13 -28 -13t-4 1t-4 3.5t-2 5.5z" />
<glyph unicode="&#xdb;" horiz-adv-x="1412" d="M33 1234q0 15 37 15q49 0 135.5 -2.5t106.5 -2.5q17 0 94 2.5t110 2.5q36 0 36 -15t-26 -15q-58 0 -82 -21t-28 -79q-3 -53 -3 -351v-232q0 -171 32 -262.5t98 -145.5q82 -68 207 -68q61 0 121.5 21.5t106.5 67.5q27 27 45.5 63t28.5 71t15.5 86t6.5 90.5t1 101.5v207 q0 298 -3 351q-3 45 -17.5 66t-54.5 29q-19 5 -60 5q-28 0 -28 15t35 15q17 0 37 -0.5t37.5 -0.5t35 -0.5t32 -1t25.5 -1t17.5 -1l6.5 -0.5q5 0 78 2.5t111 2.5q35 0 35 -15t-30 -15q-58 0 -82 -20.5t-28 -79.5q-3 -53 -3 -351v-178q0 -79 -5.5 -140.5t-20.5 -131t-48 -127 t-83 -99.5q-81 -70 -165.5 -95t-179.5 -25q-45 0 -80.5 2.5t-89 12.5t-105 35t-94.5 64q-45 41 -76 94t-51 141.5t-20 204.5v242q0 298 -3 351q-3 45 -17.5 66t-54.5 29q-19 5 -64 5q-29 0 -29 15zM471 1377q0 8 15 25q13 14 106 101.5t113 104.5q21 19 35 19q4 0 29 -18 q25 -21 198 -149q24 -17 24 -23q0 -8 -9 -17l-48 -48q-12 -12 -22 -12q-6 0 -24 19q-20 20 -74.5 64.5t-72.5 57.5q-13 10 -21 10q-7 0 -25 -8q-105 -61 -176 -123q-22 -20 -33 -20q-6 0 -10.5 5t-4.5 12z" />
<glyph unicode="&#xdc;" horiz-adv-x="1412" d="M33 1234q0 15 37 15q49 0 135.5 -2.5t106.5 -2.5q17 0 94 2.5t110 2.5q36 0 36 -15t-26 -15q-58 0 -82 -21t-28 -79q-3 -53 -3 -351v-232q0 -171 32 -262.5t98 -145.5q82 -68 207 -68q61 0 121.5 21.5t106.5 67.5q27 27 45.5 63t28.5 71t15.5 86t6.5 90.5t1 101.5v207 q0 298 -3 351q-3 45 -17.5 66t-54.5 29q-19 5 -60 5q-28 0 -28 15t35 15q17 0 37 -0.5t37.5 -0.5t35 -0.5t32 -1t25.5 -1t17.5 -1l6.5 -0.5q5 0 78 2.5t111 2.5q35 0 35 -15t-30 -15q-58 0 -82 -20.5t-28 -79.5q-3 -53 -3 -351v-178q0 -79 -5.5 -140.5t-20.5 -131t-48 -127 t-83 -99.5q-81 -70 -165.5 -95t-179.5 -25q-45 0 -80.5 2.5t-89 12.5t-105 35t-94.5 64q-45 41 -76 94t-51 141.5t-20 204.5v242q0 298 -3 351q-3 45 -17.5 66t-54.5 29q-19 5 -64 5q-29 0 -29 15zM488 1455q0 28 19.5 52t56.5 24q33 0 55.5 -19.5t22.5 -51.5 q0 -36 -22.5 -59.5t-57.5 -23.5q-25 0 -42.5 12.5t-24.5 29.5t-7 36zM838 1455q0 29 19.5 53.5t56.5 24.5q33 0 55.5 -20t22.5 -53q0 -36 -22.5 -59.5t-57.5 -23.5q-37 0 -55.5 24t-18.5 54z" />
<glyph unicode="&#xdd;" horiz-adv-x="1111" d="M-81 1234q0 15 32 15q11 0 94.5 -2.5t114.5 -2.5q12 0 73.5 2.5t103.5 2.5q24 0 24 -15q0 -6 -7 -9t-29 -9q-11 -3 -17 -11.5t-6 -18.5q0 -16 20 -56q25 -54 281 -497q9 21 124 227t126 230q23 51 23 86q0 33 -35 41q-30 7 -30 17q0 9 6.5 12t21.5 3q29 0 81.5 -2.5 t74.5 -2.5q19 0 91 2.5t87 2.5q30 0 30 -13q0 -17 -32 -17q-35 0 -73 -19q-24 -12 -41.5 -28.5t-48.5 -53.5q-40 -49 -166.5 -260.5t-149.5 -267.5q-9 -21 -14.5 -41.5t-7.5 -44t-2.5 -38t-0.5 -42.5v-136q0 -95 4 -165q6 -83 69 -91q47 -7 83 -7q27 0 27 -14q0 -16 -35 -16 q-60 0 -150 2.5t-104 2.5q-19 0 -97 -2.5t-111 -2.5q-36 0 -36 16q0 14 26 14q59 0 82.5 20.5t27.5 77.5q5 70 5 165v136q0 43 -6 76t-12.5 51t-19.5 48q-9 20 -129.5 217.5t-162.5 259.5q-60 89 -115 122q-41 21 -70 21q-24 0 -24 15zM492 1387q0 6 16 22q44 42 142 117.5 t124 91.5q21 14 34 14q8 0 12.5 -4t10.5 -15q14 -26 48 -100q12 -25 -8 -25q-2 0 -10 0.5t-19.5 0.5t-26.5 -1q-63 -8 -146.5 -38.5t-137.5 -59.5q-26 -13 -28 -13q-1 0 -3 0.5t-3.5 2l-3 3t-1.5 4.5z" />
<glyph unicode="&#xde;" horiz-adv-x="1086" d="M104 1234q0 15 37 15q50 0 135 -2.5t102 -2.5q15 0 99.5 2.5t133.5 2.5q31 0 31 -15q0 -4 -3.5 -7.5t-9 -5.5t-12.5 -2q-16 0 -63 -6q-39 -7 -56 -29t-18 -59q-4 -126 -4 -150q99 7 146 7q59 0 109.5 -8t80 -17.5t58 -25.5t37.5 -23t24 -20q32 -28 56.5 -82t24.5 -114 q0 -87 -31 -161t-85 -125t-129.5 -80t-163.5 -29q-26 0 -34 2q-20 0 -20 14q0 11 11 15t35 4q37 0 75.5 20t70 54t52 85t20.5 108q0 162 -93 256q-20 20 -42 32.5t-45 17.5t-37.5 6t-34.5 1q-50 0 -72 -10q-13 -4 -13 -31v-395q0 -283 8 -354q5 -41 18 -63.5t47 -26.5 q47 -7 81 -7q22 0 22 -14q0 -16 -33 -16q-57 0 -145 2.5t-102 2.5q-16 0 -94 -2.5t-115 -2.5q-33 0 -33 16q0 14 26 14q30 0 59 7q23 4 33 26.5t16 64.5q8 70 8 353v292q0 298 -3 351q-3 45 -17.5 66t-53.5 29q-20 5 -65 5q-29 0 -29 15z" />
<glyph unicode="&#xdf;" horiz-adv-x="1790" d="M131 62q0 69 8 187q0 16 5 26t14 10q15 0 15 -23q0 -33 12 -73q12 -38 37 -66t57.5 -43.5t67.5 -23t71 -7.5q92 0 147 51.5t55 128.5q0 27 -4.5 47.5t-18.5 46t-44 51.5t-77 54l-85 50q-126 74 -177 148.5t-51 171.5q0 51 18.5 95.5t52.5 78.5t79.5 59t101 37.5 t116.5 12.5q118 0 207 -22q20 -5 20 -19q0 -5 -1 -25t-2.5 -57.5t-1.5 -86.5q0 -45 -18 -45q-15 0 -15 25q0 16 -8.5 42.5t-29.5 50.5q-54 66 -163 66q-82 0 -140.5 -40.5t-58.5 -110.5q0 -52 31 -93.5t124 -92.5l59 -32q138 -77 195.5 -159t57.5 -183q0 -81 -34.5 -145.5 t-111.5 -118.5q-83 -58 -245 -58q-155 0 -236 36q-18 7 -23.5 16t-5.5 33zM1027 62q0 69 8 187q0 36 18 36q15 0 15 -23q0 -33 13 -73q12 -38 37 -66t57.5 -43.5t67 -23t71.5 -7.5q92 0 147 51.5t55 128.5q0 21 -2.5 37.5t-11 37t-23.5 39t-42 41t-65 44.5l-85 50 q-126 74 -177 148.5t-51 171.5q0 42 13 80.5t37 69.5t57.5 56t74.5 42t88 26t97 9q119 0 208 -22q20 -5 20 -19q0 -5 -1 -25t-2.5 -57.5t-1.5 -86.5q0 -45 -18 -45q-15 0 -15 25q0 16 -9 42.5t-29 50.5q-54 66 -163 66q-83 0 -141 -40.5t-58 -110.5q0 -34 10.5 -60.5 t45.5 -58.5t99 -67l59 -32q138 -77 195 -159t57 -183q0 -81 -34.5 -145.5t-111.5 -118.5q-82 -58 -244 -58q-155 0 -237 36q-9 4 -14 7.5t-8.5 9t-4.5 12.5t-1 20z" />
<glyph unicode="&#xe0;" d="M-92 10q0 15 17 15q7 0 22 1t21 1q47 6 72 34.5t50 89.5l381 881q23 56 43 56q11 0 18.5 -5.5t12 -13t12.5 -26.5q18 -39 172 -398.5t200 -463.5q20 -46 39 -77t35 -45.5t27 -20.5t23 -8q33 -5 55 -5q20 0 20 -15q0 -6 -4 -9t-17.5 -4.5t-41.5 -1.5q-157 0 -280 3 q-3 1 -7 1q-11 0 -16 0.5t-11 2t-8 3.5t-2 5q0 13 19 15q8 1 12.5 10.5t0.5 21.5l-113 285q-4 10 -14 10h-344q-10 0 -14 -10l-77 -191q-22 -53 -22 -86q0 -20 13 -30t45 -10h22q21 0 21 -15t-23 -15q-24 0 -82 2.5t-81 2.5q-4 0 -31 -1t-65.5 -2.5t-72.5 -1.5q-27 0 -27 15 zM237 1371q0 9 21 14q62 19 112 41q28 13 32 13q3 0 5.5 -3t4.5 -7t6.5 -11.5t9.5 -15.5q14 -19 73.5 -75.5t110.5 -93.5q6 -5 16 -11t14.5 -10t4.5 -9q0 -6 -6 -9t-12 -3q-16 0 -148.5 56t-188.5 81q-23 10 -39 22.5t-16 20.5zM326 432q2 -3 6 -3h282q9 0 6 9l-137 353 q-5 13 -7 13q-4 0 -8 -13l-142 -351q-2 -5 0 -8z" />
<glyph unicode="&#xe1;" d="M-92 10q0 15 17 15q7 0 22 1t21 1q47 6 72 34.5t50 89.5l381 881q23 56 43 56q11 0 18.5 -5.5t12 -13t12.5 -26.5q18 -39 172 -398.5t200 -463.5q20 -46 39 -77t35 -45.5t27 -20.5t23 -8q33 -5 55 -5q20 0 20 -15q0 -6 -4 -9t-17.5 -4.5t-41.5 -1.5q-157 0 -280 3 q-3 1 -7 1q-11 0 -16 0.5t-11 2t-8 3.5t-2 5q0 13 19 15q8 1 12.5 10.5t0.5 21.5l-113 285q-4 10 -14 10h-344q-10 0 -14 -10l-77 -191q-22 -53 -22 -86q0 -20 13 -30t45 -10h22q21 0 21 -15t-23 -15q-24 0 -82 2.5t-81 2.5q-4 0 -31 -1t-65.5 -2.5t-72.5 -1.5q-27 0 -27 15 zM326 432q2 -3 6 -3h282q9 0 6 9l-137 353q-5 13 -7 13q-4 0 -8 -13l-142 -351q-2 -5 0 -8zM413 1201q0 7 15 21q44 43 142.5 118t124.5 91q22 16 33 16q8 0 12.5 -4.5t11.5 -16.5q14 -25 47 -99q12 -25 -8 -25q-1 0 -9.5 1t-20.5 1t-26 -2q-43 -5 -100 -22.5t-103.5 -37.5 t-80.5 -38q-27 -13 -28 -13q-3 0 -6.5 3t-3.5 7z" />
<glyph unicode="&#xe2;" d="M-92 10q0 15 17 15q7 0 22 1t21 1q47 6 72 34.5t50 89.5l381 881q23 56 43 56q11 0 18.5 -5.5t12 -13t12.5 -26.5q18 -39 172 -398.5t200 -463.5q20 -46 39 -77t35 -45.5t27 -20.5t23 -8q33 -5 55 -5q20 0 20 -15q0 -6 -4 -9t-17.5 -4.5t-41.5 -1.5q-157 0 -280 3 q-3 1 -7 1q-11 0 -16 0.5t-11 2t-8 3.5t-2 5q0 13 19 15q8 1 12.5 10.5t0.5 21.5l-113 285q-4 10 -14 10h-344q-10 0 -14 -10l-77 -191q-22 -53 -22 -86q0 -20 13 -30t45 -10h22q21 0 21 -15t-23 -15q-24 0 -82 2.5t-81 2.5q-4 0 -31 -1t-65.5 -2.5t-72.5 -1.5q-27 0 -27 15 zM266 1191q0 7 14 25q13 14 106.5 101.5t112.5 104.5q22 20 35 20q3 0 30 -19q18 -16 197 -149q24 -16 24 -23.5t-9 -16.5l-48 -48q-11 -12 -22 -12q-5 0 -24 19q-14 15 -47 43t-61 50.5t-38 28.5q-12 10 -22 10q-9 0 -25 -8q-105 -61 -176 -122q-22 -21 -33 -21q-6 0 -10 5 t-4 12zM326 432q2 -3 6 -3h282q9 0 6 9l-137 353q-5 13 -7 13q-4 0 -8 -13l-142 -351q-2 -5 0 -8z" />
<glyph unicode="&#xe3;" d="M-92 10q0 15 17 15q7 0 22 1t21 1q47 6 72 34.5t50 89.5l381 881q23 56 43 56q11 0 18.5 -5.5t12 -13t12.5 -26.5q18 -39 172 -398.5t200 -463.5q20 -46 39 -77t35 -45.5t27 -20.5t23 -8q33 -5 55 -5q20 0 20 -15q0 -6 -4 -9t-17.5 -4.5t-41.5 -1.5q-157 0 -280 3 q-3 1 -7 1q-11 0 -16 0.5t-11 2t-8 3.5t-2 5q0 13 19 15q8 1 12.5 10.5t0.5 21.5l-113 285q-4 10 -14 10h-344q-10 0 -14 -10l-77 -191q-22 -53 -22 -86q0 -20 13 -30t45 -10h22q21 0 21 -15t-23 -15q-24 0 -82 2.5t-81 2.5q-4 0 -31 -1t-65.5 -2.5t-72.5 -1.5q-27 0 -27 15 zM236 1209q0 15 13 32q11 18 26.5 37t38.5 41t51 36t56 14q11 0 21.5 -1.5t18.5 -3t18 -5t16 -5.5t16 -7.5t14 -8t15 -8.5t14 -8q64 -37 119 -37q61 0 101 51q16 21 27 21q3 0 6.5 -1.5t5.5 -4.5t2 -7q0 -8 -11 -29q-5 -9 -14.5 -23.5t-26 -32.5t-34.5 -33t-41.5 -25 t-45.5 -10q-11 0 -22 0.5t-21 3t-18.5 4.5t-18 5.5t-15.5 6t-15.5 7t-13.5 6.5t-13.5 7t-12.5 7q-1 1 -12 7t-14.5 7.5t-13 6t-15.5 6.5t-15 4.5t-17.5 3.5t-18 1t-18.5 -1.5t-16.5 -3t-15.5 -5.5t-13.5 -6.5t-12 -8t-10 -8t-9 -8t-7 -7.5t-6 -7l-4.5 -5q-16 -16 -27 -16 t-11 11zM326 432q2 -3 6 -3h282q9 0 6 9l-137 353q-5 13 -7 13q-4 0 -8 -13l-142 -351q-2 -5 0 -8z" />
<glyph unicode="&#xe4;" d="M-92 10q0 15 17 15q7 0 22 1t21 1q47 6 72 34.5t50 89.5l381 881q23 56 43 56q11 0 18.5 -5.5t12 -13t12.5 -26.5q18 -39 172 -398.5t200 -463.5q20 -46 39 -77t35 -45.5t27 -20.5t23 -8q33 -5 55 -5q20 0 20 -15q0 -6 -4 -9t-17.5 -4.5t-41.5 -1.5q-157 0 -280 3 q-3 1 -7 1q-11 0 -16 0.5t-11 2t-8 3.5t-2 5q0 13 19 15q8 1 12.5 10.5t0.5 21.5l-113 285q-4 10 -14 10h-344q-10 0 -14 -10l-77 -191q-22 -53 -22 -86q0 -20 13 -30t45 -10h22q21 0 21 -15t-23 -15q-24 0 -82 2.5t-81 2.5q-4 0 -31 -1t-65.5 -2.5t-72.5 -1.5q-27 0 -27 15 zM274 1269q0 28 19.5 52t56.5 24q33 0 55.5 -19t22.5 -52q0 -35 -22.5 -59t-57.5 -24q-37 0 -55.5 24t-18.5 54zM326 432q2 -3 6 -3h282q9 0 6 9l-137 353q-5 13 -7 13q-4 0 -8 -13l-142 -351q-2 -5 0 -8zM624 1269q0 29 19.5 53.5t56.5 24.5q22 0 39.5 -8.5t28 -25 t10.5 -39.5q0 -35 -22.5 -59t-57.5 -24q-37 0 -55.5 24t-18.5 54z" />
<glyph unicode="&#xe5;" d="M-92 10q0 15 17 15q7 0 22 1t21 1q47 6 72 34.5t50 89.5l381 881q23 56 43 56q11 0 18.5 -5.5t12 -13t12.5 -26.5q18 -39 172 -398.5t200 -463.5q20 -46 39 -77t35 -45.5t27 -20.5t23 -8q33 -5 55 -5q20 0 20 -15q0 -6 -4 -9t-17.5 -4.5t-41.5 -1.5q-157 0 -280 3 q-3 1 -7 1q-11 0 -16 0.5t-11 2t-8 3.5t-2 5q0 13 19 15q8 1 12.5 10.5t0.5 21.5l-113 285q-4 10 -14 10h-344q-10 0 -14 -10l-77 -191q-22 -53 -22 -86q0 -20 13 -30t45 -10h22q21 0 21 -15t-23 -15q-24 0 -82 2.5t-81 2.5q-4 0 -31 -1t-65.5 -2.5t-72.5 -1.5q-27 0 -27 15 zM326 432q2 -3 6 -3h282q9 0 6 9l-137 353q-5 13 -7 13q-4 0 -8 -13l-142 -351q-2 -5 0 -8zM334 1274q0 58 65.5 102t161.5 44q47 0 83 -12.5t55 -34t19 -49.5q1 -34 -20.5 -63t-56.5 -47.5t-77 -29t-83 -10.5q-67 0 -107 28.5t-40 71.5zM435 1298q0 -36 25.5 -59t57.5 -23 q27 0 50 12t36 32t13 42q0 33 -22.5 55t-65.5 22q-21 0 -41.5 -8t-36.5 -27.5t-16 -45.5z" />
<glyph unicode="&#xe6;" horiz-adv-x="1386" d="M-136 10q0 6 5.5 10.5t14.5 4.5q24 0 47 6t42.5 18t35 23.5t31.5 29.5t25 29t21.5 28t16.5 22q20 25 148 216.5t255 383.5t132 199q23 34 32 62q6 20 18 20q2 0 26.5 -1.5t51.5 -1.5q6 0 103 -0.5t182.5 -0.5t113.5 1q12 0 24.5 1.5t24.5 3.5t14 3q1 0 10 3t13 3 q8 0 8 -13q0 -3 -2 -12t-4.5 -30t-5.5 -49q0 -3 -0.5 -38.5t-5.5 -55.5t-19 -20q-13 0 -13 17q0 32 -8 52q-9 23 -27 35t-68 16q-37 5 -230 5q-10 0 -10 -13v-394q0 -16 10 -16q188 0 257 4q52 2 70 20q15 18 23 18q10 0 10 -12q0 -3 -1 -13t-4.5 -36t-6.5 -55 q-5 -43 -5 -95q0 -30 -16 -30q-14 0 -14 12q0 4 -1 10q-2 21 -3.5 31t-7 24t-13.5 21t-23 12.5t-36 7.5q-43 5 -231 5q-8 0 -8 -13v-283q0 -69 40 -89.5t156 -20.5q94 0 134 17q29 12 44 36t23 68q2 21 14 21q15 0 15 -33q0 -23 -6.5 -78.5t-11.5 -77.5q-7 -26 -20 -31 t-59 -5q-90 0 -230.5 4t-206.5 4q-8 0 -33 -1t-41 -1q-60 -3 -89 -3q-16 0 -22 3t-6 10q0 17 19 17q51 0 70 15.5t24 63.5q7 60 7 295v67q0 12 -14 12h-242q-17 0 -23 -10q-9 -13 -77 -128t-76 -128q-62 -102 -62 -139q0 -16 8.5 -26t24.5 -14.5t30.5 -6t35.5 -1.5 q9 0 15 -4.5t6 -10.5q0 -15 -28 -15q-54 0 -131 2.5t-84.5 2.5t-74.5 -2.5t-111 -2.5q-20 0 -20 15zM466.5 551.5q1.5 -2.5 9.5 -2.5h197q14 0 14 10v353h-7q-29 -46 -114 -187.5t-96 -162.5q-5 -8 -3.5 -10.5z" />
<glyph unicode="&#xe7;" horiz-adv-x="1168" d="M79 546q0 41 8 85t25.5 96.5t53 106.5t84.5 98q84 74 195.5 111.5t268.5 37.5q92 0 212 -14q23 -4 72.5 -12.5t73.5 -11.5q22 -2 22 -16q0 -4 -1.5 -13t-3 -26.5t-3.5 -38.5q-2 -27 -3 -85t-2 -68q-2 -35 -19 -35q-15 0 -15 30q-3 79 -56 132q-39 37 -112.5 59.5 t-170.5 22.5q-65 0 -114 -8t-88 -25.5t-73 -45.5q-134 -116 -134 -367q0 -97 28.5 -180t75 -139.5t106.5 -97t122 -59t122 -18.5q106 0 161.5 14t97.5 60q18 21 32 48t18 47q2 17 5.5 22.5t12.5 5.5q4 0 8 -3.5t6.5 -9.5t2.5 -12q0 -16 -11 -86t-21 -102q-5 -18 -12 -26 t-26 -15q-78 -31 -264 -31h-35l-125 -91q93 -9 144.5 -43.5t51.5 -89.5q0 -22 -8.5 -44.5t-30.5 -46.5t-55.5 -43t-88 -31t-122.5 -12q-28 0 -28 16q0 10 12.5 16t30.5 6q30 0 61 12.5t55 39t24 59.5q0 19 -5.5 35.5t-18.5 35t-40.5 31.5t-66.5 19q-37 5 -37 13q0 5 27 25 l133 100q-234 23 -379 146q-183 154 -183 416z" />
<glyph unicode="&#xe8;" horiz-adv-x="954" d="M92 1048q0 14 33 14q42 0 118 -1.5t92 -1.5q6 0 110 -0.5t189.5 -0.5t98.5 1q8 0 62 8q3 0 7.5 2t8.5 3t7 1q10 0 10 -13q0 -3 -2 -12t-5 -30t-5 -49q0 -5 -0.5 -21t-1.5 -30.5t-3.5 -30t-7.5 -25t-12 -9.5q-11 0 -11 18q0 31 -10 52q-6 11 -10.5 17.5t-14.5 14t-28 12 t-44 7.5q-16 2 -106 4t-122 2q-10 0 -10 -13v-348q0 -16 10 -16q213 0 255 5q55 5 70 21l8.5 8.5t8.5 7.5t6 2q5 0 8 -4.5t3 -10.5q-17 -169 -17 -197q0 -32 -16 -32q-13 0 -13 12q0 3 -1.5 21.5t-3.5 29.5q-4 15 -12 25.5t-25.5 19t-44.5 10.5q-17 2 -104.5 4t-123.5 2 q-8 0 -8 -14v-113q0 -13 -0.5 -62t-0.5 -88.5t1 -58.5q2 -71 42.5 -94.5t154.5 -23.5q94 0 138 19q27 12 41 36t22 68q4 21 17 21t13 -33q0 -24 -7.5 -79.5t-13.5 -76.5q-7 -26 -20 -31t-57 -5q-90 0 -231 4t-208 4q-5 0 -33.5 -1t-48.5 -1q-70 -3 -101 -3q-29 0 -29 15 t24 15q52 0 70.5 15.5t23.5 63.5q7 60 7 301v249q0 254 -2 299q-3 46 -31.5 63.5t-89.5 17.5q-24 0 -24 14zM222 1371q0 9 22 14q58 18 111 41q28 13 31.5 13t6 -3.5t8.5 -14t12 -19.5q14 -19 73.5 -75.5t110.5 -93.5q5 -5 15 -11t15 -10t5 -9q0 -6 -6 -9t-12 -3 q-16 0 -148 56t-189 81q-23 10 -39 22.5t-16 20.5z" />
<glyph unicode="&#xe9;" horiz-adv-x="954" d="M92 1048q0 14 33 14q42 0 118 -1.5t92 -1.5q6 0 110 -0.5t189.5 -0.5t98.5 1q8 0 62 8q3 0 7.5 2t8.5 3t7 1q10 0 10 -13q0 -3 -2 -12t-5 -30t-5 -49q0 -5 -0.5 -21t-1.5 -30.5t-3.5 -30t-7.5 -25t-12 -9.5q-11 0 -11 18q0 31 -10 52q-6 11 -10.5 17.5t-14.5 14t-28 12 t-44 7.5q-16 2 -106 4t-122 2q-10 0 -10 -13v-348q0 -16 10 -16q213 0 255 5q55 5 70 21l8.5 8.5t8.5 7.5t6 2q5 0 8 -4.5t3 -10.5q-17 -169 -17 -197q0 -32 -16 -32q-13 0 -13 12q0 3 -1.5 21.5t-3.5 29.5q-4 15 -12 25.5t-25.5 19t-44.5 10.5q-17 2 -104.5 4t-123.5 2 q-8 0 -8 -14v-113q0 -13 -0.5 -62t-0.5 -88.5t1 -58.5q2 -71 42.5 -94.5t154.5 -23.5q94 0 138 19q27 12 41 36t22 68q4 21 17 21t13 -33q0 -24 -7.5 -79.5t-13.5 -76.5q-7 -26 -20 -31t-57 -5q-90 0 -231 4t-208 4q-5 0 -33.5 -1t-48.5 -1q-70 -3 -101 -3q-29 0 -29 15 t24 15q52 0 70.5 15.5t23.5 63.5q7 60 7 301v249q0 254 -2 299q-3 46 -31.5 63.5t-89.5 17.5q-24 0 -24 14zM367 1201q0 7 15 21q44 43 142.5 118t124.5 91q22 16 33 16q8 0 12 -4t11 -17q19 -34 48 -99q12 -25 -8 -25q-1 0 -9.5 1t-20.5 1t-27 -2q-62 -7 -145.5 -37.5 t-137.5 -60.5l-28 -13q-3 0 -6.5 3t-3.5 7z" />
<glyph unicode="&#xea;" horiz-adv-x="954" d="M92 1048q0 14 33 14q42 0 118 -1.5t92 -1.5q6 0 110 -0.5t189.5 -0.5t98.5 1q8 0 62 8q3 0 7.5 2t8.5 3t7 1q10 0 10 -13q0 -3 -2 -12t-5 -30t-5 -49q0 -5 -0.5 -21t-1.5 -30.5t-3.5 -30t-7.5 -25t-12 -9.5q-11 0 -11 18q0 31 -10 52q-6 11 -10.5 17.5t-14.5 14t-28 12 t-44 7.5q-16 2 -106 4t-122 2q-10 0 -10 -13v-348q0 -16 10 -16q213 0 255 5q55 5 70 21l8.5 8.5t8.5 7.5t6 2q5 0 8 -4.5t3 -10.5q-17 -169 -17 -197q0 -32 -16 -32q-13 0 -13 12q0 3 -1.5 21.5t-3.5 29.5q-4 15 -12 25.5t-25.5 19t-44.5 10.5q-17 2 -104.5 4t-123.5 2 q-8 0 -8 -14v-113q0 -13 -0.5 -62t-0.5 -88.5t1 -58.5q2 -71 42.5 -94.5t154.5 -23.5q94 0 138 19q27 12 41 36t22 68q4 21 17 21t13 -33q0 -24 -7.5 -79.5t-13.5 -76.5q-7 -26 -20 -31t-57 -5q-90 0 -231 4t-208 4q-5 0 -33.5 -1t-48.5 -1q-70 -3 -101 -3q-29 0 -29 15 t24 15q52 0 70.5 15.5t23.5 63.5q7 60 7 301v249q0 254 -2 299q-3 46 -31.5 63.5t-89.5 17.5q-24 0 -24 14zM219 1191q0 6 15 25q13 14 106.5 101.5t112.5 104.5q22 20 35 20q3 0 30 -19q18 -16 197 -149q23 -16 23 -23q0 -8 -8 -17l-48 -48q-11 -12 -22 -12q-6 0 -25 19 q-20 21 -74 65.5t-72 56.5q-12 10 -21 10t-25 -8q-105 -61 -176 -122q-22 -21 -33 -21q-6 0 -10.5 5t-4.5 12z" />
<glyph unicode="&#xeb;" horiz-adv-x="954" d="M92 1048q0 14 33 14q42 0 118 -1.5t92 -1.5q6 0 110 -0.5t189.5 -0.5t98.5 1q8 0 62 8q3 0 7.5 2t8.5 3t7 1q10 0 10 -13q0 -3 -2 -12t-5 -30t-5 -49q0 -5 -0.5 -21t-1.5 -30.5t-3.5 -30t-7.5 -25t-12 -9.5q-11 0 -11 18q0 31 -10 52q-6 11 -10.5 17.5t-14.5 14t-28 12 t-44 7.5q-16 2 -106 4t-122 2q-10 0 -10 -13v-348q0 -16 10 -16q213 0 255 5q55 5 70 21l8.5 8.5t8.5 7.5t6 2q5 0 8 -4.5t3 -10.5q-17 -169 -17 -197q0 -32 -16 -32q-13 0 -13 12q0 3 -1.5 21.5t-3.5 29.5q-4 15 -12 25.5t-25.5 19t-44.5 10.5q-17 2 -104.5 4t-123.5 2 q-8 0 -8 -14v-113q0 -13 -0.5 -62t-0.5 -88.5t1 -58.5q2 -71 42.5 -94.5t154.5 -23.5q94 0 138 19q27 12 41 36t22 68q4 21 17 21t13 -33q0 -24 -7.5 -79.5t-13.5 -76.5q-7 -26 -20 -31t-57 -5q-90 0 -231 4t-208 4q-5 0 -33.5 -1t-48.5 -1q-70 -3 -101 -3q-29 0 -29 15 t24 15q52 0 70.5 15.5t23.5 63.5q7 60 7 301v249q0 254 -2 299q-3 46 -31.5 63.5t-89.5 17.5q-24 0 -24 14zM242 1269q0 28 20 52t56 24q34 0 56 -19t22 -52q0 -35 -22 -59t-57 -24q-37 0 -56 24t-19 54zM592 1269q0 29 19.5 53.5t56.5 24.5q22 0 39.5 -8.5t28.5 -25 t11 -39.5q0 -35 -22.5 -59t-57.5 -24q-37 0 -56 24t-19 54z" />
<glyph unicode="&#xec;" horiz-adv-x="674" d="M49 1371q0 9 22 14q59 18 111 41q28 13 31.5 13t6.5 -3.5t9 -14t12 -19.5q5 -8 24 -27.5t44 -43.5t57 -51.5t58 -46.5q5 -4 12.5 -8.5t12 -7.5t7.5 -6.5t3 -7.5q0 -6 -6 -9t-12 -3q-16 0 -148 56t-189 81q-23 10 -39 22.5t-16 20.5zM111 1050q0 12 35 12q29 0 103 -1.5 t93 -1.5q16 0 86 1.5t101 1.5q30 0 30 -12q0 -16 -23 -16q-51 0 -73 -16.5t-25 -64.5q-3 -45 -3 -299v-249q0 -249 6 -309q4 -31 16 -46t42 -20t75 -5q11 0 17 -5t6 -10q0 -15 -28 -15q-56 0 -139.5 2.5t-95.5 2.5q-14 0 -86.5 -2.5t-104.5 -2.5q-29 0 -29 15t24 15 q51 0 70 13.5t24 59.5q7 58 7 307v249q0 254 -2 299q-3 47 -27 64t-76 17q-23 0 -23 16z" />
<glyph unicode="&#xed;" horiz-adv-x="674" d="M111 1050q0 12 35 12q29 0 103 -1.5t93 -1.5q16 0 86 1.5t101 1.5q30 0 30 -12q0 -16 -23 -16q-51 0 -73 -16.5t-25 -64.5q-3 -45 -3 -299v-249q0 -249 6 -309q4 -31 16 -46t42 -20t75 -5q11 0 17 -5t6 -10q0 -15 -28 -15q-56 0 -139.5 2.5t-95.5 2.5q-14 0 -86.5 -2.5 t-104.5 -2.5q-29 0 -29 15t24 15q51 0 70 13.5t24 59.5q7 58 7 307v249q0 254 -2 299q-3 47 -27 64t-76 17q-23 0 -23 16zM226 1201q0 7 15 21q44 43 142.5 118t124.5 91q22 16 33 16q8 0 12 -4t11 -17q19 -34 48 -99q12 -25 -9 -25q-1 0 -9 1t-20 1t-26 -2 q-63 -7 -146.5 -37.5t-137.5 -60.5q-27 -13 -28 -13q-3 0 -6.5 3t-3.5 7z" />
<glyph unicode="&#xee;" horiz-adv-x="674" d="M78 1191q0 6 15 25q13 14 106.5 101.5t112.5 104.5q22 20 35 20q3 0 30 -19q18 -16 197 -149q23 -16 23 -23q0 -8 -8 -17l-48 -48q-11 -12 -22 -12q-6 0 -25 19q-20 21 -74 65.5t-72 56.5q-12 10 -22 10q-8 0 -24 -8q-105 -61 -176 -122q-22 -21 -33 -21q-6 0 -10.5 5 t-4.5 12zM111 1050q0 12 35 12q29 0 103 -1.5t93 -1.5q16 0 86 1.5t101 1.5q30 0 30 -12q0 -16 -23 -16q-51 0 -73 -16.5t-25 -64.5q-3 -45 -3 -299v-249q0 -249 6 -309q4 -31 16 -46t42 -20t75 -5q11 0 17 -5t6 -10q0 -15 -28 -15q-56 0 -139.5 2.5t-95.5 2.5 q-14 0 -86.5 -2.5t-104.5 -2.5q-29 0 -29 15t24 15q51 0 70 13.5t24 59.5q7 58 7 307v249q0 254 -2 299q-3 47 -27 64t-76 17q-23 0 -23 16z" />
<glyph unicode="&#xef;" horiz-adv-x="674" d="M86 1269q0 28 20 52t57 24q33 0 55.5 -19t22.5 -52q0 -35 -22.5 -59t-57.5 -24q-37 0 -56 24t-19 54zM111 1050q0 12 35 12q29 0 103 -1.5t93 -1.5q16 0 86 1.5t101 1.5q30 0 30 -12q0 -16 -23 -16q-51 0 -73 -16.5t-25 -64.5q-3 -45 -3 -299v-249q0 -249 6 -309 q4 -31 16 -46t42 -20t75 -5q11 0 17 -5t6 -10q0 -15 -28 -15q-56 0 -139.5 2.5t-95.5 2.5q-14 0 -86.5 -2.5t-104.5 -2.5q-29 0 -29 15t24 15q51 0 70 13.5t24 59.5q7 58 7 307v249q0 254 -2 299q-3 47 -27 64t-76 17q-23 0 -23 16zM437 1269q0 13 4.5 26.5t13 25t24 19 t34.5 7.5q33 0 55 -19.5t22 -53.5q0 -35 -22 -59t-57 -24q-25 0 -42.5 12.5t-24.5 29.5t-7 36z" />
<glyph unicode="&#xf0;" horiz-adv-x="1381" d="M84 511l8 50q2 13 19 13h128v80q0 254 -2 299q-3 46 -31.5 63.5t-89.5 17.5q-24 0 -24 14t33 14q42 0 118 -1.5t92 -1.5q17 0 102.5 1.5t135.5 1.5q53 0 82.5 -0.5t84.5 -3.5t91 -8.5t87 -17.5t88.5 -29t79 -43t74.5 -59q62 -62 101.5 -152t39.5 -206q0 -124 -44.5 -226 t-113.5 -171q-27 -27 -71.5 -54t-103.5 -52t-136 -40.5t-156 -15.5q-41 0 -177.5 8t-172.5 8q-5 0 -33.5 -1t-48.5 -1q-70 -3 -101 -3q-29 0 -29 15t24 15q52 0 70.5 15.5t23.5 63.5q7 60 7 301v89h-147q-11 0 -8 17zM435 428q0 -154 3 -208q4 -88 16 -106 q18 -24 64.5 -40.5t125.5 -16.5q76 0 133 9t106.5 31t91.5 59q117 101 117 347q0 122 -41 210t-98 142q-48 44 -102 73t-109 41t-95.5 16t-90.5 4q-74 0 -102 -11q-17 -6 -17 -27q-2 -48 -2 -275v-100h292q12 0 9 -17l-8 -53q-3 -14 -16 -14h-277v-64z" />
<glyph unicode="&#xf1;" horiz-adv-x="1394" d="M68 10q0 6 7 10.5t17 4.5q17 0 29 0.5t23.5 3t18.5 4t13.5 8.5t10 11.5t7 17.5t4.5 22t2.5 30t1.5 35.5v44.5l13 836q0 14 3.5 25t9 17t13.5 6q11 0 23.5 -9.5t33.5 -30.5l6 -6q0 -1 48 -49t104 -105t140 -140.5t157 -155.5q43 -41 118 -117t132 -133.5t65 -65.5h7 l-15 627q-1 46 -6.5 72t-22 40t-37 17.5t-60.5 3.5q-24 0 -24 14t37 14q44 0 110 -1.5t76 -1.5q1 0 50.5 1.5t92.5 1.5q33 0 33 -14t-25 -14q-58 0 -77.5 -24t-20.5 -98l-16 -889q0 -15 -4 -25.5t-9 -15t-11 -4.5q-30 0 -60 30q-122 113 -426 407q-69 66 -149 148 t-131.5 136.5t-61.5 63.5h-5l17 -576q2 -39 4 -64.5t8.5 -44.5t14 -28.5t23 -15.5t32 -7.5t44.5 -1.5q12 0 18.5 -4.5t6.5 -10.5q0 -15 -33 -15q-56 0 -120.5 2.5t-69.5 2.5q-3 0 -27.5 -1t-60.5 -2.5t-69 -1.5q-17 0 -25 3t-8 12zM408 1209q0 15 13 32q12 18 27.5 37t38 41 t51 36t56.5 14q10 0 20.5 -1.5t19 -3t18.5 -5t15.5 -5.5t16 -7.5t14.5 -8t14.5 -8.5t14.5 -8q64 -37 119 -37q61 0 101 51q16 21 27 21q5 0 9 -3.5t4 -9.5q0 -7 -10 -29q-5 -9 -15 -23.5t-26.5 -32.5t-34.5 -33t-41 -25t-45 -10q-13 0 -25.5 1.5t-22 3t-21.5 5.5t-18.5 6 t-18.5 8t-15.5 7.5t-15.5 8t-13 7.5q-2 1 -12.5 7t-14 7.5t-13.5 6t-15.5 6.5t-15 4.5t-18 3.5t-18 1t-18.5 -1.5t-16.5 -3t-15.5 -5.5l-13 -6.5t-12 -8t-10 -8t-8.5 -8l-7.5 -7.5t-6.5 -7l-4.5 -5q-16 -16 -26 -16q-12 0 -12 11z" />
<glyph unicode="&#xf2;" horiz-adv-x="1371" d="M79 529q0 75 20.5 150t68 148t116.5 129t174.5 90.5t233.5 34.5q182 0 317.5 -64t207.5 -183t72 -280q0 -121 -43 -226.5t-121 -183.5t-194 -122.5t-254 -44.5q-123 0 -224.5 33.5t-169.5 88.5t-115 127.5t-68 148.5t-21 154zM296 573q0 -109 30.5 -204t86 -165 t139 -110.5t184.5 -40.5q26 0 51.5 4t60 15.5t64.5 31t60 54t51.5 80.5t35 114t13.5 151q0 114 -33 209.5t-90 159.5t-134.5 99.5t-165.5 35.5q-53 0 -100 -11.5t-94.5 -41.5t-81.5 -77.5t-55.5 -125.5t-21.5 -178zM399 1371q0 9 21 14q58 18 111 41q27 13 31 13t6.5 -3.5 t8.5 -14t12 -19.5q6 -8 24.5 -27.5t44 -43.5t57 -51.5t58.5 -46.5q5 -5 15 -11t15 -10t5 -9q0 -6 -6 -9t-12 -3q-16 0 -148.5 56t-188.5 81q-23 10 -38.5 22.5t-15.5 20.5z" />
<glyph unicode="&#xf3;" horiz-adv-x="1371" d="M79 529q0 75 20.5 150t68 148t116.5 129t174.5 90.5t233.5 34.5q182 0 317.5 -64t207.5 -183t72 -280q0 -121 -43 -226.5t-121 -183.5t-194 -122.5t-254 -44.5q-123 0 -224.5 33.5t-169.5 88.5t-115 127.5t-68 148.5t-21 154zM296 573q0 -109 30.5 -204t86 -165 t139 -110.5t184.5 -40.5q26 0 51.5 4t60 15.5t64.5 31t60 54t51.5 80.5t35 114t13.5 151q0 114 -33 209.5t-90 159.5t-134.5 99.5t-165.5 35.5q-53 0 -100 -11.5t-94.5 -41.5t-81.5 -77.5t-55.5 -125.5t-21.5 -178zM574 1201q0 7 15 21q44 43 142.5 118t124.5 91 q22 16 33 16q8 0 12 -4t11 -17q19 -34 49 -99q11 -25 -8 -25q-2 0 -10.5 1t-20 1t-26.5 -2q-63 -7 -146 -37.5t-138 -60.5q-27 -13 -28 -13q-3 0 -6.5 3t-3.5 7z" />
<glyph unicode="&#xf4;" horiz-adv-x="1371" d="M79 529q0 75 20.5 150t68 148t116.5 129t174.5 90.5t233.5 34.5q182 0 317.5 -64t207.5 -183t72 -280q0 -121 -43 -226.5t-121 -183.5t-194 -122.5t-254 -44.5q-123 0 -224.5 33.5t-169.5 88.5t-115 127.5t-68 148.5t-21 154zM296 573q0 -109 30.5 -204t86 -165 t139 -110.5t184.5 -40.5q26 0 51.5 4t60 15.5t64.5 31t60 54t51.5 80.5t35 114t13.5 151q0 114 -33 209.5t-90 159.5t-134.5 99.5t-165.5 35.5q-53 0 -100 -11.5t-94.5 -41.5t-81.5 -77.5t-55.5 -125.5t-21.5 -178zM426 1191q0 6 15 25q14 14 107 101.5t112 104.5 q23 20 35 20q3 0 30 -19q18 -16 198 -149q22 -16 22 -23q0 -8 -8 -17l-48 -48q-11 -12 -21 -12q-7 0 -26 19q-19 21 -73.5 65.5t-71.5 56.5q-13 10 -21.5 10t-25.5 -8q-104 -61 -175 -122q-23 -21 -34 -21q-6 0 -10.5 5t-4.5 12z" />
<glyph unicode="&#xf5;" horiz-adv-x="1371" d="M79 529q0 75 20.5 150t68 148t116.5 129t174.5 90.5t233.5 34.5q182 0 317.5 -64t207.5 -183t72 -280q0 -121 -43 -226.5t-121 -183.5t-194 -122.5t-254 -44.5q-123 0 -224.5 33.5t-169.5 88.5t-115 127.5t-68 148.5t-21 154zM296 573q0 -109 30.5 -204t86 -165 t139 -110.5t184.5 -40.5q26 0 51.5 4t60 15.5t64.5 31t60 54t51.5 80.5t35 114t13.5 151q0 114 -33 209.5t-90 159.5t-134.5 99.5t-165.5 35.5q-53 0 -100 -11.5t-94.5 -41.5t-81.5 -77.5t-55.5 -125.5t-21.5 -178zM396 1209q0 14 14 32q12 18 27 37t38 41t51.5 36t55.5 14 q10 0 19 -1t17.5 -3t15.5 -3.5t15.5 -5t14 -6t13.5 -7t12.5 -7l13.5 -7.5t12 -7q64 -37 119 -37q61 0 102 51q15 21 26 21q5 0 9 -3.5t4 -9.5q0 -9 -9 -29q-7 -13 -21.5 -31.5t-36 -40.5t-50 -37t-55.5 -15q-12 0 -22.5 1t-21 3t-18.5 4t-17.5 5.5t-16 6t-15.5 7t-13.5 6.5 t-13 7t-11.5 7q-2 1 -13 7t-14 7.5t-13 6t-16 6.5t-15 4.5t-17.5 3.5t-18 1t-18.5 -1.5t-16.5 -3t-15.5 -5.5t-13.5 -6.5t-12 -8t-10 -8t-9 -8t-7 -7.5t-6 -7l-4.5 -5q-16 -16 -27 -16q-5 0 -8.5 3.5t-3.5 7.5z" />
<glyph unicode="&#xf6;" horiz-adv-x="1371" d="M79 529q0 75 20.5 150t68 148t116.5 129t174.5 90.5t233.5 34.5q182 0 317.5 -64t207.5 -183t72 -280q0 -121 -43 -226.5t-121 -183.5t-194 -122.5t-254 -44.5q-123 0 -224.5 33.5t-169.5 88.5t-115 127.5t-68 148.5t-21 154zM296 573q0 -109 30.5 -204t86 -165 t139 -110.5t184.5 -40.5q26 0 51.5 4t60 15.5t64.5 31t60 54t51.5 80.5t35 114t13.5 151q0 114 -33 209.5t-90 159.5t-134.5 99.5t-165.5 35.5q-53 0 -100 -11.5t-94.5 -41.5t-81.5 -77.5t-55.5 -125.5t-21.5 -178zM435 1269q0 28 19.5 52t56.5 24q33 0 55.5 -19t22.5 -52 q0 -35 -22 -59t-58 -24q-25 0 -42.5 12.5t-24.5 29.5t-7 36zM785 1269q0 29 19.5 53.5t56.5 24.5q33 0 55.5 -19.5t22.5 -53.5q0 -35 -22 -59t-58 -24q-25 0 -42.5 12.5t-24.5 29.5t-7 36z" />
<glyph unicode="&#xf7;" horiz-adv-x="910" d="M66 370v101h778v-101h-778zM364 144q0 42 24.5 67.5t64.5 25.5t64 -25.5t24 -67.5q0 -27 -11 -48t-32 -33t-48 -12q-37 0 -61.5 26.5t-24.5 66.5zM364 697q0 41 24.5 67t64.5 26t64 -26t24 -67t-25 -67.5t-66 -26.5q-37 0 -61.5 26.5t-24.5 67.5z" />
<glyph unicode="&#xf8;" horiz-adv-x="1363" d="M79 529q0 41 6.5 82.5t20 84.5t33 83.5t48.5 79t64 72t81 61.5t98.5 47.5t117 30.5t136.5 11q233 0 383 -103l109 117q9 9 20 -3l42 -44q7 -7 0 -14l-108 -108q149 -137 149 -372q0 -121 -42.5 -226.5t-119.5 -183.5t-191 -122.5t-250 -44.5q-249 0 -375 107l-124 -124 q-7 -7 -14 0l-46 42q-10 7 -3 14l125 120q-80 79 -120 182.5t-40 210.5zM297 571q0 -177 72 -305l584 593q-106 146 -307 146q-43 0 -82 -8t-79.5 -26t-73 -51.5t-59 -79.5t-41 -115t-14.5 -154zM413 199q113 -148 322 -148q25 0 50 3.5t59 15.5t63 31.5t58.5 54.5 t50.5 80.5t34.5 113.5t13.5 151q0 163 -69 289z" />
<glyph unicode="&#xf9;" horiz-adv-x="1260" d="M30 1048q0 14 32 14q43 0 122 -1.5t96 -1.5q16 0 87.5 1.5t100.5 1.5q31 0 31 -14t-23 -14q-49 0 -71 -17t-25 -64q-3 -45 -3 -299v-198q0 -146 26.5 -221t84.5 -121q71 -56 183 -56q120 0 197 75q29 27 47 63t25.5 85t10 89.5t2.5 105.5v178q0 187 -4 299q-3 36 -15 51 t-46 25q-17 5 -54 5q-25 0 -25 14t30 14h33t34 -0.5l32 -1t29.5 -0.5t23.5 -0.5t16 -0.5h6q3 0 70.5 1.5t100.5 1.5q30 0 30 -14t-25 -14q-15 0 -43 -5q-29 -5 -39.5 -21.5t-12.5 -54.5q-4 -90 -4 -299v-151q0 -68 -4.5 -120.5t-18 -111.5t-43 -108t-73.5 -85 q-121 -101 -309 -101q-39 0 -71 2t-82 10.5t-96.5 29.5t-83.5 54q-63 54 -98 142.5t-35 230.5v208q0 276 -2 299q-3 47 -31 64t-88 17q-25 0 -25 14zM343 1371q0 9 22 14q59 18 111 41q28 13 31.5 13t6.5 -3.5t8.5 -14t11.5 -19.5q14 -19 73.5 -75.5t110.5 -93.5 q6 -5 16 -11t14.5 -10t4.5 -9q0 -6 -6 -9t-12 -3q-12 0 -92.5 33t-149.5 63t-94 41q-23 10 -39.5 22.5t-16.5 20.5z" />
<glyph unicode="&#xfa;" horiz-adv-x="1260" d="M30 1048q0 14 32 14q43 0 122 -1.5t96 -1.5q16 0 87.5 1.5t100.5 1.5q31 0 31 -14t-23 -14q-49 0 -71 -17t-25 -64q-3 -45 -3 -299v-198q0 -146 26.5 -221t84.5 -121q71 -56 183 -56q120 0 197 75q29 27 47 63t25.5 85t10 89.5t2.5 105.5v178q0 187 -4 299q-3 36 -15 51 t-46 25q-17 5 -54 5q-25 0 -25 14t30 14h33t34 -0.5l32 -1t29.5 -0.5t23.5 -0.5t16 -0.5h6q3 0 70.5 1.5t100.5 1.5q30 0 30 -14t-25 -14q-15 0 -43 -5q-29 -5 -39.5 -21.5t-12.5 -54.5q-4 -90 -4 -299v-151q0 -68 -4.5 -120.5t-18 -111.5t-43 -108t-73.5 -85 q-121 -101 -309 -101q-39 0 -71 2t-82 10.5t-96.5 29.5t-83.5 54q-63 54 -98 142.5t-35 230.5v208q0 276 -2 299q-3 47 -31 64t-88 17q-25 0 -25 14zM519 1201q0 7 15 21q30 29 91 77.5t111 85.5t65 46q22 16 33 16q8 0 12.5 -4.5t11.5 -16.5q14 -25 48 -99q11 -25 -9 -25 q-1 0 -9.5 1t-20 1t-26.5 -2q-63 -7 -146 -37.5t-138 -60.5q-27 -13 -28 -13q-3 0 -6.5 3t-3.5 7z" />
<glyph unicode="&#xfb;" horiz-adv-x="1260" d="M30 1048q0 14 32 14q43 0 122 -1.5t96 -1.5q16 0 87.5 1.5t100.5 1.5q31 0 31 -14t-23 -14q-49 0 -71 -17t-25 -64q-3 -45 -3 -299v-198q0 -146 26.5 -221t84.5 -121q71 -56 183 -56q120 0 197 75q29 27 47 63t25.5 85t10 89.5t2.5 105.5v178q0 187 -4 299q-3 36 -15 51 t-46 25q-17 5 -54 5q-25 0 -25 14t30 14h33t34 -0.5l32 -1t29.5 -0.5t23.5 -0.5t16 -0.5h6q3 0 70.5 1.5t100.5 1.5q30 0 30 -14t-25 -14q-15 0 -43 -5q-29 -5 -39.5 -21.5t-12.5 -54.5q-4 -90 -4 -299v-151q0 -68 -4.5 -120.5t-18 -111.5t-43 -108t-73.5 -85 q-121 -101 -309 -101q-39 0 -71 2t-82 10.5t-96.5 29.5t-83.5 54q-63 54 -98 142.5t-35 230.5v208q0 276 -2 299q-3 47 -31 64t-88 17q-25 0 -25 14zM372 1191q0 7 14 25q13 14 106.5 101.5t113.5 104.5q22 20 35 20q2 0 29 -19q18 -16 198 -149q23 -16 23 -23q0 -8 -8 -17 l-49 -48q-11 -12 -21 -12q-6 0 -25 19q-20 21 -74 65.5t-72 56.5q-12 10 -22 10q-8 0 -25 -8q-105 -61 -175 -122q-23 -21 -34 -21q-3 0 -5.5 1.5t-4.5 3.5t-3 5t-1 7z" />
<glyph unicode="&#xfc;" horiz-adv-x="1260" d="M30 1048q0 14 32 14q43 0 122 -1.5t96 -1.5q16 0 87.5 1.5t100.5 1.5q31 0 31 -14t-23 -14q-49 0 -71 -17t-25 -64q-3 -45 -3 -299v-198q0 -146 26.5 -221t84.5 -121q71 -56 183 -56q120 0 197 75q29 27 47 63t25.5 85t10 89.5t2.5 105.5v178q0 187 -4 299q-3 36 -15 51 t-46 25q-17 5 -54 5q-25 0 -25 14t30 14h33t34 -0.5l32 -1t29.5 -0.5t23.5 -0.5t16 -0.5h6q3 0 70.5 1.5t100.5 1.5q30 0 30 -14t-25 -14q-15 0 -43 -5q-29 -5 -39.5 -21.5t-12.5 -54.5q-4 -90 -4 -299v-151q0 -68 -4.5 -120.5t-18 -111.5t-43 -108t-73.5 -85 q-121 -101 -309 -101q-39 0 -71 2t-82 10.5t-96.5 29.5t-83.5 54q-63 54 -98 142.5t-35 230.5v208q0 276 -2 299q-3 47 -31 64t-88 17q-25 0 -25 14zM394 1269q0 28 20.5 52t56.5 24q34 0 56 -19t22 -52q0 -35 -22 -59t-57 -24q-37 0 -56.5 24t-19.5 54zM745 1269 q0 29 20 53.5t56 24.5q34 0 56 -19.5t22 -53.5q0 -35 -22 -59t-57 -24q-37 0 -56 24t-19 54z" />
<glyph unicode="&#xfd;" horiz-adv-x="978" d="M-75 1048q0 14 29 14q10 0 82.5 -1.5t99.5 -1.5q12 0 70.5 1.5t95.5 1.5q21 0 21 -14q0 -6 -8 -10t-18 -6t-18 -8t-8 -16q0 -16 17 -47q13 -21 121.5 -207t121.5 -206q0 1 102 176.5t115 201.5q22 45 22 74q0 26 -32 32q-1 0 -5.5 1t-5.5 1.5t-4.5 1.5t-4.5 2t-3 2.5 t-2.5 3.5t-0.5 4q0 14 24 14q25 0 73.5 -1.5t69.5 -1.5q16 0 79 1.5t77 1.5q27 0 27 -12q0 -7 -8 -11.5t-20 -4.5q-25 0 -64 -17q-22 -11 -36.5 -23.5t-39.5 -42.5q-22 -27 -86.5 -126t-124 -198t-72.5 -128q-6 -12 -9.5 -26l-5.5 -22t-3 -25t-1 -21v-25v-22v-113 q0 -81 3 -141q3 -33 16.5 -51t43.5 -23q33 -5 73 -5q11 0 18 -5t7 -10q0 -15 -31 -15q-53 0 -134.5 2.5t-95.5 2.5q-15 0 -86.5 -2.5t-101.5 -2.5q-32 0 -32 15q0 5 6 10t18 5q51 0 71 16t24 63q5 60 5 141v116q0 53 -7.5 83t-24.5 65q-5 11 -59.5 96.5t-115.5 179 t-86 130.5q-58 81 -95 100q-36 19 -61 19q-22 0 -22 14zM378 1201q0 7 15 21q44 43 142.5 118t124.5 91q22 16 33 16q8 0 12.5 -4.5t11.5 -16.5q14 -25 48 -99q11 -25 -8 -25q-2 0 -10.5 1t-20 1t-26.5 -2q-43 -5 -100 -22.5t-103.5 -37.5t-80.5 -38q-27 -13 -28 -13 q-3 0 -6.5 3t-3.5 7z" />
<glyph unicode="&#xfe;" horiz-adv-x="991" d="M92 1048q0 14 33 14q42 0 117.5 -1.5t91.5 -1.5q13 0 93.5 1.5t123.5 1.5q28 0 28 -14q0 -6 -7.5 -10t-15.5 -4q-15 0 -55 -7q-34 -5 -49.5 -22t-16.5 -49q-2 -54 -2 -127q65 5 128 5q65 0 119 -8.5t88.5 -23t53 -25.5t31.5 -22q28 -24 49.5 -70t21.5 -98 q0 -149 -102.5 -242t-264.5 -93q-36 0 -43 2q-18 0 -18 13q0 18 42 18q74 0 135.5 64.5t61.5 159.5q0 16 -0.5 27.5t-3 31t-8 37t-13.5 38t-22.5 40.5t-33.5 39q-51 48 -148 48q-42 0 -61 -10q-12 -2 -12 -27v-328q0 -241 7 -302q4 -34 15 -51.5t41 -21.5q33 -5 71 -5 q8 0 14 -5t6 -10q0 -15 -30 -15q-50 0 -134 2.5t-97 2.5t-82 -2.5t-101 -2.5q-29 0 -29 15t24 15q52 0 70.5 15.5t23.5 63.5q7 60 7 301v249q0 254 -2 299q-3 47 -31 64t-90 17q-24 0 -24 14z" />
<glyph unicode="&#xff;" horiz-adv-x="978" d="M-75 1048q0 14 29 14q10 0 82.5 -1.5t99.5 -1.5q12 0 70.5 1.5t95.5 1.5q21 0 21 -14q0 -6 -8 -10t-18 -6t-18 -8t-8 -16q0 -16 17 -47q13 -21 121.5 -207t121.5 -206q0 1 102 176.5t115 201.5q22 45 22 74q0 26 -32 32q-1 0 -5.5 1t-5.5 1.5t-4.5 1.5t-4.5 2t-3 2.5 t-2.5 3.5t-0.5 4q0 14 24 14q25 0 73.5 -1.5t69.5 -1.5q16 0 79 1.5t77 1.5q27 0 27 -12q0 -7 -8 -11.5t-20 -4.5q-25 0 -64 -17q-22 -11 -36.5 -23.5t-39.5 -42.5q-22 -27 -86.5 -126t-124 -198t-72.5 -128q-6 -12 -9.5 -26l-5.5 -22t-3 -25t-1 -21v-25v-22v-113 q0 -81 3 -141q3 -33 16.5 -51t43.5 -23q33 -5 73 -5q11 0 18 -5t7 -10q0 -15 -31 -15q-53 0 -134.5 2.5t-95.5 2.5q-15 0 -86.5 -2.5t-101.5 -2.5q-32 0 -32 15q0 5 6 10t18 5q51 0 71 16t24 63q5 60 5 141v116q0 53 -7.5 83t-24.5 65q-5 11 -59.5 96.5t-115.5 179 t-86 130.5q-58 81 -95 100q-36 19 -61 19q-22 0 -22 14zM239 1269q0 28 19.5 52t56.5 24q33 0 55.5 -19t22.5 -52q0 -35 -22 -59t-58 -24t-55 24t-19 54zM589 1269q0 29 19.5 53.5t56.5 24.5q33 0 56 -19.5t23 -53.5q0 -35 -22.5 -59t-58.5 -24t-55 24t-19 54z" />
<glyph unicode="&#x100;" horiz-adv-x="1160" d="M-106 11q0 14 20 14q44 0 74 8.5t51.5 30t35.5 46t31 67.5l416 1029q12 26 18.5 39t13.5 20.5t15 7.5q10 0 19.5 -12.5t22.5 -41.5q17 -40 185.5 -455t225.5 -552q23 -53 44.5 -89.5t40 -54.5t32 -25.5t29.5 -10.5q34 -7 70 -7q21 0 21 -14q0 -9 -15 -12.5t-61 -3.5 q-181 0 -314 3q-2 1 -7 1q-12 0 -18 0.5t-12.5 2t-9 4t-2.5 5.5q0 13 22 16q10 3 15.5 13.5t0.5 24.5l-133 342q-5 11 -17 11h-369q-11 0 -16 -13l-89 -228q-25 -64 -25 -101q0 -51 66 -51h26q14 0 19 -3t5 -11q0 -9 -6.5 -12.5t-21.5 -3.5q-27 0 -88.5 2.5t-87.5 2.5 l-72 -2.5t-124 -2.5q-17 0 -24 3.5t-7 12.5zM360 1433l13 60q2 6 4 9t5.5 4.5t8.5 1.5h399q18 0 13 -17l-13 -60q-3 -9 -19 -9h-398q-8 0 -11.5 2.5t-1.5 8.5zM365 513q-3 -12 7 -12h305q12 0 8 10l-149 408q-3 15 -9 15t-9 -15z" />
<glyph unicode="&#x101;" d="M-92 10q0 15 17 15q7 0 22 1t21 1q47 6 72 34.5t50 89.5l381 881q23 56 43 56q11 0 18.5 -5.5t12 -13t12.5 -26.5q18 -39 172 -398.5t200 -463.5q20 -46 39 -77t35 -45.5t27 -20.5t23 -8q33 -5 55 -5q20 0 20 -15q0 -6 -4 -9t-17.5 -4.5t-41.5 -1.5q-157 0 -280 3 q-3 1 -7 1q-11 0 -16 0.5t-11 2t-8 3.5t-2 5q0 13 19 15q8 1 12.5 10.5t0.5 21.5l-113 285q-4 10 -14 10h-344q-10 0 -14 -10l-77 -191q-22 -53 -22 -86q0 -20 13 -30t45 -10h22q21 0 21 -15t-23 -15q-24 0 -82 2.5t-81 2.5q-4 0 -31 -1t-65.5 -2.5t-72.5 -1.5q-27 0 -27 15 zM304 1247l13 60q1 6 3.5 9t6 4.5t8.5 1.5h398q18 0 14 -16l-14 -60q-2 -10 -18 -10h-398q-9 0 -11.5 2.5t-1.5 8.5zM326 432q2 -3 6 -3h282q9 0 6 9l-137 353q-5 13 -7 13q-4 0 -8 -13l-142 -351q-2 -5 0 -8z" />
<glyph unicode="&#x102;" horiz-adv-x="1160" d="M-106 11q0 14 20 14q44 0 74 8.5t51.5 30t35.5 46t31 67.5l416 1029q12 26 18.5 39t13.5 20.5t15 7.5q10 0 19.5 -12.5t22.5 -41.5q17 -40 185.5 -455t225.5 -552q23 -53 44.5 -89.5t40 -54.5t32 -25.5t29.5 -10.5q34 -7 70 -7q21 0 21 -14q0 -9 -15 -12.5t-61 -3.5 q-181 0 -314 3q-2 1 -7 1q-12 0 -18 0.5t-12.5 2t-9 4t-2.5 5.5q0 13 22 16q10 3 15.5 13.5t0.5 24.5l-133 342q-5 11 -17 11h-369q-11 0 -16 -13l-89 -228q-25 -64 -25 -101q0 -51 66 -51h26q14 0 19 -3t5 -11q0 -9 -6.5 -12.5t-21.5 -3.5q-27 0 -88.5 2.5t-87.5 2.5 l-72 -2.5t-124 -2.5q-17 0 -24 3.5t-7 12.5zM326 1528q0 7 14 17l54 43q14 11 22 11q5 0 10 -5.5t12.5 -16t12.5 -16.5q39 -46 75 -59.5t77 -13.5q34 0 67.5 10t50.5 19t29 17q21 16 38 32.5t23.5 23t11.5 6.5q13 0 13 -15q0 -18 -37 -60.5t-68 -62.5q-45 -30 -83 -43 t-96 -13q-24 0 -52 6.5t-58.5 20t-53.5 32.5q-62 50 -62 67zM365 513q-3 -12 7 -12h305q12 0 8 10l-149 408q-3 15 -9 15t-9 -15z" />
<glyph unicode="&#x103;" d="M-92 10q0 15 17 15q7 0 22 1t21 1q47 6 72 34.5t50 89.5l381 881q23 56 43 56q11 0 18.5 -5.5t12 -13t12.5 -26.5q18 -39 172 -398.5t200 -463.5q20 -46 39 -77t35 -45.5t27 -20.5t23 -8q33 -5 55 -5q20 0 20 -15q0 -6 -4 -9t-17.5 -4.5t-41.5 -1.5q-157 0 -280 3 q-3 1 -7 1q-11 0 -16 0.5t-11 2t-8 3.5t-2 5q0 13 19 15q8 1 12.5 10.5t0.5 21.5l-113 285q-4 10 -14 10h-344q-10 0 -14 -10l-77 -191q-22 -53 -22 -86q0 -20 13 -30t45 -10h22q21 0 21 -15t-23 -15q-24 0 -82 2.5t-81 2.5q-4 0 -31 -1t-65.5 -2.5t-72.5 -1.5q-27 0 -27 15 zM271 1317q0 8 13 17l55 43q13 11 21 11q4 0 9 -5.5t12.5 -16t12.5 -16.5q40 -45 76 -59t78 -14q79 0 145 47q21 16 38 32.5t23.5 22.5t11.5 6q6 0 10 -4t4 -10q0 -12 -18 -37t-42.5 -49.5t-43.5 -37.5q-46 -30 -84 -43t-96 -13q-24 0 -52.5 6.5t-58.5 20.5t-53 33 q-61 49 -61 66zM326 432q2 -3 6 -3h282q9 0 6 9l-137 353q-5 13 -7 13q-4 0 -8 -13l-142 -351q-2 -5 0 -8z" />
<glyph unicode="&#x104;" horiz-adv-x="1160" d="M-106 11q0 14 20 14q44 0 74 8.5t51.5 30t35.5 46t31 67.5l416 1029q12 26 18.5 39t13.5 20.5t15 7.5q10 0 19.5 -12.5t22.5 -41.5q17 -40 185.5 -455t225.5 -552q23 -53 44.5 -89.5t40 -54.5t32 -25.5t29.5 -10.5q34 -7 70 -7q21 0 21 -14q0 -9 -15 -12.5t-61 -3.5 q-7 0 -71.5 3.5t-112 1t-72.5 -14.5q-51 -24 -77.5 -77.5t-26.5 -108.5q0 -81 96 -81q28 0 51.5 13.5t38 27t20.5 13.5q14 0 14 -13q0 -10 -13 -26q-95 -110 -205 -110q-39 0 -67 7.5t-47 22.5t-28.5 39t-9.5 58q0 35 21.5 76t52 74t58 57.5t45.5 34.5q19 11 19 36 q0 5 -1.5 10.5t-5 13.5t-4.5 13l-133 342q-5 11 -17 11h-369q-11 0 -16 -13l-89 -228q-25 -64 -25 -101q0 -51 66 -51h26q14 0 19 -3t5 -11q0 -9 -6.5 -12.5t-21.5 -3.5q-27 0 -88.5 2.5t-87.5 2.5l-72 -2.5t-124 -2.5q-17 0 -24 3.5t-7 12.5zM365 513q-3 -12 7 -12h305 q12 0 8 10l-149 410q-3 15 -9 15t-9 -15z" />
<glyph unicode="&#x105;" d="M-92 10q0 15 17 15q7 0 22 1t21 1q47 6 72 34.5t50 89.5l381 881q23 56 43 56q11 0 18.5 -5.5t12 -13t12.5 -26.5q18 -39 172 -398.5t200 -463.5q20 -46 39 -77t35 -45.5t27 -20.5t23 -8q33 -5 55 -5q20 0 20 -15q0 -6 -4 -9t-17.5 -4.5t-41.5 -1.5q-8 0 -78 3 q-18 0 -53.5 1t-48.5 1q-25 0 -53 -12t-55 -35t-45 -63.5t-18 -90.5q0 -81 95 -81q28 0 51.5 13.5t38.5 27t20 13.5q15 0 15 -13q0 -10 -13 -26q-95 -110 -206 -110q-77 0 -114 30t-37 97q0 37 22 78t54 73.5t63.5 60t54 45t22.5 21.5q0 10 -7 29l-113 285q-4 10 -14 10 h-344q-10 0 -14 -10l-77 -191q-22 -53 -22 -86q0 -20 13 -30t45 -10h22q21 0 21 -15t-23 -15q-24 0 -82 2.5t-81 2.5q-4 0 -31 -1t-65.5 -2.5t-72.5 -1.5q-27 0 -27 15zM326 432q2 -3 6 -3h282q9 0 6 9l-137 353q-5 13 -7 13q-4 0 -8 -13l-142 -351q-2 -5 0 -8z" />
<glyph unicode="&#x106;" horiz-adv-x="1326" d="M92 642q0 48 8 99.5t28 114t60.5 126t96.5 115.5q94 86 220 131t304 45q108 0 241 -17q30 -4 85 -15t81 -13q25 -2 25 -20q0 -5 -1.5 -15.5t-3.5 -31t-3 -45.5q-2 -27 -2.5 -94.5t-2.5 -84.5q-1 -13 -3 -21t-6 -12.5t-11 -4.5q-17 0 -17 37q-2 39 -18 80t-46 72 q-43 45 -134.5 74t-202.5 29q-199 0 -312 -103q-58 -53 -93.5 -126t-47.5 -144.5t-12 -158.5q0 -114 33 -212.5t87 -166.5t123 -117t140.5 -72t139.5 -23q79 0 131 7t95.5 28t76.5 58q20 23 35.5 54t21.5 56q3 20 7.5 26.5t14.5 6.5q14 0 14 -25q0 -11 -5.5 -52.5t-14.5 -92 t-16 -76.5q-7 -21 -14.5 -30.5t-28.5 -17.5q-47 -19 -129.5 -28.5t-169.5 -9.5q-178 0 -318.5 42.5t-250.5 137.5q-205 180 -205 490zM642 1387q0 7 15 22q44 42 142.5 117.5t124.5 91.5q21 14 33 14q8 0 12 -3.5t11 -15.5q19 -34 49 -100q12 -25 -8 -25q-2 0 -10.5 0.5 t-20 0.5t-26.5 -1q-63 -8 -146 -38.5t-138 -59.5q-26 -13 -28 -13t-4 1t-4 3.5t-2 5.5z" />
<glyph unicode="&#x107;" horiz-adv-x="1168" d="M79 546q0 41 8 85t25.5 96.5t53 106.5t84.5 98q84 74 195.5 111.5t268.5 37.5q92 0 212 -14q23 -4 72.5 -12.5t73.5 -11.5q22 -2 22 -16q0 -4 -1.5 -13t-3 -26.5t-3.5 -38.5q-2 -27 -3 -85t-2 -68q-2 -35 -19 -35q-15 0 -15 30q-3 79 -56 132q-39 37 -112.5 59.5 t-170.5 22.5q-65 0 -114 -8t-88 -25.5t-73 -45.5q-134 -116 -134 -367q0 -97 28.5 -180t75 -139.5t106.5 -97t122 -59t122 -18.5q106 0 161.5 14t97.5 60q18 21 32 48t18 47q2 17 5.5 22.5t12.5 5.5q4 0 8 -3.5t6.5 -9.5t2.5 -12q0 -16 -11 -86t-21 -102q-5 -18 -12 -26 t-26 -15q-78 -31 -264 -31q-317 0 -501 153q-183 154 -183 416zM556 1201q0 6 15 21q31 29 91.5 77.5t110.5 85.5t65 46q22 16 33 16q8 0 12.5 -4.5t10.5 -16.5q14 -25 48 -99q12 -25 -8 -25q-2 0 -6 0.5t-8.5 1t-10.5 0.5t-14 -0.5t-18 -1.5q-62 -7 -145.5 -37.5 t-137.5 -60.5q-28 -13 -29 -13q-3 0 -6 3t-3 7z" />
<glyph unicode="&#x10c;" horiz-adv-x="1326" d="M92 642q0 48 8 99.5t28 114t60.5 126t96.5 115.5q94 86 220 131t304 45q108 0 241 -17q30 -4 85 -15t81 -13q25 -2 25 -20q0 -5 -1.5 -15.5t-3.5 -31t-3 -45.5q-2 -27 -2.5 -94.5t-2.5 -84.5q-1 -13 -3 -21t-6 -12.5t-11 -4.5q-17 0 -17 37q-2 39 -18 80t-46 72 q-43 45 -134.5 74t-202.5 29q-199 0 -312 -103q-58 -53 -93.5 -126t-47.5 -144.5t-12 -158.5q0 -114 33 -212.5t87 -166.5t123 -117t140.5 -72t139.5 -23q79 0 131 7t95.5 28t76.5 58q20 23 35.5 54t21.5 56q3 20 7.5 26.5t14.5 6.5q14 0 14 -25q0 -11 -5.5 -52.5t-14.5 -92 t-16 -76.5q-7 -21 -14.5 -30.5t-28.5 -17.5q-47 -19 -129.5 -28.5t-169.5 -9.5q-178 0 -318.5 42.5t-250.5 137.5q-205 180 -205 490zM503 1551q0 8 8 16l48 49q11 11 19 11q10 0 28 -18q21 -21 76 -66.5t70 -56.5q12 -9 21 -9q14 0 25 6q95 58 172 122q28 22 37 22 q6 0 10.5 -4.5t4.5 -11.5q0 -10 -15 -25q-7 -7 -39 -37.5t-68.5 -65t-69.5 -65t-42 -38.5q-22 -20 -35 -20q-3 0 -30 19q-18 15 -197 149q-23 15 -23 23z" />
<glyph unicode="&#x10d;" horiz-adv-x="1168" d="M79 546q0 41 8 85t25.5 96.5t53 106.5t84.5 98q84 74 195.5 111.5t268.5 37.5q92 0 212 -14q23 -4 72.5 -12.5t73.5 -11.5q22 -2 22 -16q0 -4 -1.5 -13t-3 -26.5t-3.5 -38.5q-2 -27 -3 -85t-2 -68q-2 -35 -19 -35q-15 0 -15 30q-3 79 -56 132q-39 37 -112.5 59.5 t-170.5 22.5q-65 0 -114 -8t-88 -25.5t-73 -45.5q-134 -116 -134 -367q0 -97 28.5 -180t75 -139.5t106.5 -97t122 -59t122 -18.5q106 0 161.5 14t97.5 60q18 21 32 48t18 47q2 17 5.5 22.5t12.5 5.5q4 0 8 -3.5t6.5 -9.5t2.5 -12q0 -16 -11 -86t-21 -102q-5 -18 -12 -26 t-26 -15q-78 -31 -264 -31q-317 0 -501 153q-183 154 -183 416zM424 1366q0 7 9 16l48 48q12 12 18 12q10 0 28 -19q15 -14 48 -42t61 -51t37 -29q13 -11 22 -11q13 0 25 8q95 58 173 122q27 22 36 22q6 0 10.5 -5t4.5 -12q0 -10 -15 -25q-13 -14 -106 -101.5t-113 -103.5 q-22 -21 -34 -21q-4 0 -30 19q-19 16 -198 149q-24 17 -24 24z" />
<glyph unicode="&#x10e;" horiz-adv-x="1551" d="M104 1234q0 15 37 15q49 0 135 -2.5t104 -2.5q19 0 109 2.5t146 2.5h72.5t74 -2t79 -5t77.5 -9.5t80 -16t75.5 -23.5t75.5 -32.5t67.5 -44t64.5 -56.5q70 -73 115 -179t45 -243q0 -145 -51 -264t-129 -198q-33 -34 -78 -64.5t-112 -62t-162 -50.5t-204 -19 q-54 0 -179.5 10t-173.5 10q-55 0 -95 -2q-20 0 -59 -1.5t-55 -1.5q-33 0 -33 16q0 14 26 14q30 0 59 7q23 4 33 26.5t16 64.5q8 70 8 353v292q0 298 -3 351q-3 45 -17.5 66t-53.5 29q-20 5 -65 5q-29 0 -29 15zM480 586q0 -273 3 -336q4 -106 18 -125q19 -28 73 -47.5 t144 -19.5q129 0 218.5 28t163.5 91q139 121 139 413q0 61 -10 118t-25.5 100t-37 82t-42.5 66t-44 49q-174 166 -471 166q-28 0 -63.5 -3.5t-44.5 -7.5q-20 -9 -20 -33q-1 -57 -1 -332v-209zM483 1551q0 8 8 16l48 49q12 11 18 11q11 0 29 -18q21 -21 75.5 -66.5 t69.5 -56.5q13 -9 22 -9q15 0 25 6q95 58 173 122q27 22 36 22q7 0 11 -4.5t4 -11.5q0 -10 -15 -25q-13 -14 -106.5 -101.5t-112.5 -104.5q-23 -20 -35 -20q-3 0 -30 19q-23 19 -197 149q-23 16 -23 23z" />
<glyph unicode="&#x10f;" horiz-adv-x="1377" d="M92 1048q0 14 33 14q42 0 118 -1.5t92 -1.5q17 0 102.5 1.5t135.5 1.5q53 0 82.5 -0.5t84.5 -3.5t91 -8.5t87 -17.5t88.5 -29t79 -43t74.5 -59q61 -61 99.5 -151t38.5 -207q0 -124 -45.5 -225t-114.5 -169q-28 -28 -68 -54t-99 -52.5t-143 -42.5t-179 -16q-48 0 -164 8 t-159 8q-5 0 -33.5 -1t-48.5 -1q-70 -3 -101 -3q-29 0 -29 15t24 15q52 0 70.5 15.5t23.5 63.5q7 60 7 301v249q0 254 -2 299q-3 46 -31.5 63.5t-89.5 17.5q-24 0 -24 14zM396 1366q0 7 9 16l48 48q12 12 18 12q9 0 28 -19q21 -21 76 -66t71 -56q13 -11 21 -11q13 0 25 8 q95 58 172 122q28 22 37 22q6 0 10 -5t4 -12q0 -10 -14 -25q-13 -14 -106.5 -101.5t-112.5 -103.5q-22 -21 -35 -21q-3 0 -30 19q-18 16 -197 149q-24 17 -24 24zM435 497q0 -228 3 -285q4 -84 16 -99q17 -23 65 -39.5t127 -16.5q69 0 122.5 8.5t103 29.5t92.5 57 q124 102 124 351q0 123 -39.5 212.5t-95.5 139.5q-48 42 -103 70.5t-111 41.5t-100 17.5t-95 4.5h-5q-24 0 -37 -0.5t-31 -4t-26 -11.5t-8 -22q-2 -48 -2 -275v-179z" />
<glyph unicode="&#x110;" horiz-adv-x="1551" d="M96 606l8 49q3 16 22 16h146v97q0 298 -3 351q-3 45 -17.5 66t-53.5 29q-20 5 -65 5q-29 0 -29 15t37 15q49 0 135 -2.5t104 -2.5q19 0 109 2.5t146 2.5h72.5t74 -2t79 -5t77.5 -9.5t80 -16t75.5 -23.5t75.5 -32.5t67.5 -44t64.5 -56.5q70 -73 115 -179t45 -243 q0 -99 -26 -191.5t-64.5 -157.5t-88.5 -116q-31 -32 -80.5 -64t-117 -62t-155 -48.5t-177.5 -18.5q-47 0 -193.5 10t-186.5 10q-55 0 -95 -2q-20 0 -59 -1.5t-55 -1.5q-33 0 -33 16q0 14 26 14q30 0 59 7q23 4 33 26.5t16 64.5q8 70 8 353v110h-168q-11 0 -8 20zM480 508 q0 -193 3 -256q4 -106 18 -126q12 -17 36 -31.5t72 -25.5t109 -11q128 0 222 29.5t166 94.5q133 118 133 408q0 61 -10 118t-25.5 100t-37 82t-42.5 66t-44 49q-174 166 -471 166q-28 0 -63.5 -3.5t-44.5 -7.5q-20 -9 -20 -33q-1 -57 -1 -332v-122h331q14 0 12 -19l-10 -55 q-2 -15 -20 -15h-313v-76z" />
<glyph unicode="&#x111;" horiz-adv-x="1381" d="M84 511l8 50q2 13 19 13h128v80q0 254 -2 299q-3 46 -31.5 63.5t-89.5 17.5q-24 0 -24 14t33 14q42 0 118 -1.5t92 -1.5q17 0 102.5 1.5t135.5 1.5q53 0 82.5 -0.5t84.5 -3.5t91 -8.5t87 -17.5t88.5 -29t79 -43t74.5 -59q62 -62 101.5 -152t39.5 -206q0 -124 -44.5 -226 t-113.5 -171q-27 -27 -71.5 -54t-103.5 -52t-136 -40.5t-156 -15.5q-41 0 -177.5 8t-172.5 8q-5 0 -33.5 -1t-48.5 -1q-70 -3 -101 -3q-29 0 -29 15t24 15q52 0 70.5 15.5t23.5 63.5q7 60 7 301v89h-147q-11 0 -8 17zM435 428q0 -154 3 -208q4 -88 16 -106 q18 -24 64.5 -40.5t125.5 -16.5q76 0 133 9t106.5 31t91.5 59q117 101 117 347q0 122 -41 210t-98 142q-48 44 -102 73t-109 41t-95.5 16t-90.5 4q-74 0 -102 -11q-17 -6 -17 -27q-2 -48 -2 -275v-100h292q12 0 9 -17l-8 -53q-3 -14 -16 -14h-277v-64z" />
<glyph unicode="&#x112;" d="M104 1234q0 15 37 15q23 0 68.5 -1t65.5 -1q86 -3 105 -3q383 0 415 2q55 5 71 10q3 0 12.5 3.5t14.5 3.5q9 0 9 -16q0 -3 -2 -14t-5 -35.5t-6 -57.5q0 -5 -0.5 -22t-1.5 -33.5t-3 -34t-7 -28t-13 -10.5q-14 0 -14 23q0 34 -11 60q-9 26 -31 39t-80 20q-19 2 -111.5 5 t-124.5 3q-11 0 -11 -17v-420q0 -19 11 -19q219 0 266 4q62 5 80 25q19 22 26 22q12 0 12 -13q-20 -198 -20 -233q0 -31 -15 -31t-15 14v7q-3 26 -5 38.5t-8 29.5t-15.5 25t-27 15t-43.5 10q-48 5 -236 5q-10 0 -10 -16v-132v-257q1 -26 3.5 -44t8 -33.5t15.5 -25.5 t24 -17.5t35.5 -11.5t48.5 -6t64 -2q113 0 156 21q32 15 49 43t25 79q3 14 7 19.5t12 5.5q9 0 11 -7t2 -23q0 -28 -7.5 -93.5t-13.5 -90.5q-8 -30 -23.5 -36.5t-66.5 -6.5q-103 0 -245 5t-214 5q-55 0 -95 -2q-20 0 -59 -1.5t-55 -1.5q-33 0 -33 16q0 14 26 14q30 0 59 7 q23 4 33 26.5t16 64.5q8 70 8 353v292q0 298 -3 351q-3 45 -17.5 66t-53.5 29q-20 5 -65 5q-29 0 -29 15zM335 1433l13 60q5 15 19 15h398q18 0 13 -17l-13 -60q-3 -9 -18 -9h-399q-5 0 -8.5 1t-4 3.5t-0.5 6.5z" />
<glyph unicode="&#x113;" horiz-adv-x="954" d="M92 1048q0 14 33 14q42 0 118 -1.5t92 -1.5q6 0 110 -0.5t189.5 -0.5t98.5 1q8 0 62 8q3 0 7.5 2t8.5 3t7 1q10 0 10 -13q0 -3 -2 -12t-5 -30t-5 -49q0 -5 -0.5 -21t-1.5 -30.5t-3.5 -30t-7.5 -25t-12 -9.5q-11 0 -11 18q0 31 -10 52q-6 11 -10.5 17.5t-14.5 14t-28 12 t-44 7.5q-16 2 -106 4t-122 2q-10 0 -10 -13v-348q0 -16 10 -16q213 0 255 5q55 5 70 21l8.5 8.5t8.5 7.5t6 2q5 0 8 -4.5t3 -10.5q-17 -169 -17 -197q0 -32 -16 -32q-13 0 -13 12q0 3 -1.5 21.5t-3.5 29.5q-4 15 -12 25.5t-25.5 19t-44.5 10.5q-17 2 -104.5 4t-123.5 2 q-8 0 -8 -14v-113q0 -13 -0.5 -62t-0.5 -88.5t1 -58.5q2 -71 42.5 -94.5t154.5 -23.5q94 0 138 19q27 12 41 36t22 68q4 21 17 21t13 -33q0 -24 -7.5 -79.5t-13.5 -76.5q-7 -26 -20 -31t-57 -5q-90 0 -231 4t-208 4q-5 0 -33.5 -1t-48.5 -1q-70 -3 -101 -3q-29 0 -29 15 t24 15q52 0 70.5 15.5t23.5 63.5q7 60 7 301v249q0 254 -2 299q-3 46 -31.5 63.5t-89.5 17.5q-24 0 -24 14zM288 1247l14 60q3 9 6.5 12t11.5 3h398q18 0 13 -16l-13 -60q-2 -10 -18 -10h-398q-8 0 -11.5 2.5t-2.5 8.5z" />
<glyph unicode="&#x116;" d="M104 1234q0 15 37 15q23 0 68.5 -1t65.5 -1q86 -3 105 -3q383 0 415 2q55 5 71 10q3 0 12.5 3.5t14.5 3.5q9 0 9 -16q0 -3 -2 -14t-5 -35.5t-6 -57.5q0 -5 -0.5 -22t-1.5 -33.5t-3 -34t-7 -28t-13 -10.5q-14 0 -14 23q0 34 -11 60q-9 26 -31 39t-80 20q-19 2 -111.5 5 t-124.5 3q-11 0 -11 -17v-420q0 -19 11 -19q219 0 266 4q62 5 80 25q19 22 26 22q12 0 12 -13q-20 -198 -20 -233q0 -31 -15 -31t-15 14v7q-3 26 -5 38.5t-8 29.5t-15.5 25t-27 15t-43.5 10q-48 5 -236 5q-10 0 -10 -16v-132v-257q1 -26 3.5 -44t8 -33.5t15.5 -25.5 t24 -17.5t35.5 -11.5t48.5 -6t64 -2q113 0 156 21q32 15 49 43t25 79q3 14 7 19.5t12 5.5q9 0 11 -7t2 -23q0 -28 -7.5 -93.5t-13.5 -90.5q-8 -30 -23.5 -36.5t-66.5 -6.5q-103 0 -245 5t-214 5q-55 0 -95 -2q-20 0 -59 -1.5t-55 -1.5q-33 0 -33 16q0 14 26 14q30 0 59 7 q23 4 33 26.5t16 64.5q8 70 8 353v292q0 298 -3 351q-3 45 -17.5 66t-53.5 29q-20 5 -65 5q-29 0 -29 15zM471 1470q0 36 23.5 66t69.5 30q41 0 68 -24.5t27 -64.5q0 -42 -26.5 -71t-68.5 -29q-46 0 -69.5 28.5t-23.5 64.5z" />
<glyph unicode="&#x117;" horiz-adv-x="954" d="M92 1048q0 14 33 14q42 0 118 -1.5t92 -1.5q6 0 110 -0.5t189.5 -0.5t98.5 1q8 0 62 8q3 0 7.5 2t8.5 3t7 1q10 0 10 -13q0 -3 -2 -12t-5 -30t-5 -49q0 -5 -0.5 -21t-1.5 -30.5t-3.5 -30t-7.5 -25t-12 -9.5q-11 0 -11 18q0 31 -10 52q-6 11 -10.5 17.5t-14.5 14t-28 12 t-44 7.5q-16 2 -106 4t-122 2q-10 0 -10 -13v-348q0 -16 10 -16q213 0 255 5q55 5 70 21l8.5 8.5t8.5 7.5t6 2q5 0 8 -4.5t3 -10.5q-17 -169 -17 -197q0 -32 -16 -32q-13 0 -13 12q0 3 -1.5 21.5t-3.5 29.5q-4 15 -12 25.5t-25.5 19t-44.5 10.5q-17 2 -104.5 4t-123.5 2 q-8 0 -8 -14v-113q0 -13 -0.5 -62t-0.5 -88.5t1 -58.5q2 -71 42.5 -94.5t154.5 -23.5q94 0 138 19q27 12 41 36t22 68q4 21 17 21t13 -33q0 -24 -7.5 -79.5t-13.5 -76.5q-7 -26 -20 -31t-57 -5q-90 0 -231 4t-208 4q-5 0 -33.5 -1t-48.5 -1q-70 -3 -101 -3q-29 0 -29 15 t24 15q52 0 70.5 15.5t23.5 63.5q7 60 7 301v249q0 254 -2 299q-3 46 -31.5 63.5t-89.5 17.5q-24 0 -24 14zM433 1284q0 36 23.5 66t69.5 30q41 0 67.5 -24.5t26.5 -65.5q0 -42 -26.5 -70.5t-67.5 -28.5q-24 0 -42.5 8.5t-29 22.5t-16 30t-5.5 32z" />
<glyph unicode="&#x118;" d="M104 1234q0 15 37 15q23 0 68.5 -1t65.5 -1q86 -3 105 -3q383 0 415 2q55 5 71 10q3 0 12.5 3.5t14.5 3.5q9 0 9 -16q0 -3 -2 -14t-5 -35.5t-6 -57.5q0 -5 -0.5 -22t-1.5 -33.5t-3 -34t-7 -28t-13 -10.5q-14 0 -14 23q0 34 -11 60q-9 26 -31 39t-80 20q-19 2 -111.5 5 t-124.5 3q-11 0 -11 -17v-420q0 -19 11 -19q219 0 266 4q62 5 80 25q19 22 26 22q12 0 12 -13q-20 -198 -20 -233q0 -31 -15 -31t-15 14v7q-3 26 -5 38.5t-8 29.5t-15.5 25t-27 15t-43.5 10q-48 5 -236 5q-10 0 -10 -16v-132v-257q1 -26 3.5 -44t8 -33.5t15.5 -25.5 t24 -17.5t35.5 -11.5t48.5 -6t64 -2q113 0 156 21q32 15 49 43t25 79q3 14 7 19.5t12 5.5q9 0 11 -7t2 -23q0 -28 -7.5 -93.5t-13.5 -90.5q-4 -15 -15.5 -23.5t-23.5 -10.5t-33 -4t-33 -5q-47 -10 -81.5 -70.5t-34.5 -120.5q0 -81 96 -81q28 0 51.5 13.5t38 27t20.5 13.5 q15 0 15 -13q0 -9 -14 -26q-95 -110 -206 -110q-77 0 -113.5 30t-36.5 97q0 40 33.5 93t71 90t67.5 57q-44 1 -166.5 5.5t-184.5 4.5q-55 0 -95 -2q-20 0 -59 -1.5t-55 -1.5q-33 0 -33 16q0 14 26 14q30 0 59 7q23 4 33 26.5t16 64.5q8 70 8 353v292q0 298 -3 351 q-3 45 -17.5 66t-53.5 29q-20 5 -65 5q-29 0 -29 15z" />
<glyph unicode="&#x119;" horiz-adv-x="954" d="M92 1048q0 14 33 14q42 0 118 -1.5t92 -1.5q6 0 110 -0.5t189.5 -0.5t98.5 1q8 0 62 8q3 0 7.5 2t8.5 3t7 1q10 0 10 -13q0 -3 -2 -12t-5 -30t-5 -49q0 -5 -0.5 -21t-1.5 -30.5t-3.5 -30t-7.5 -25t-12 -9.5q-11 0 -11 18q0 31 -10 52q-6 11 -10.5 17.5t-14.5 14t-28 12 t-44 7.5q-16 2 -106 4t-122 2q-10 0 -10 -13v-348q0 -16 10 -16q213 0 255 5q55 5 70 21l8.5 8.5t8.5 7.5t6 2q5 0 8 -4.5t3 -10.5q-17 -169 -17 -197q0 -32 -16 -32q-13 0 -13 12q0 3 -1.5 21.5t-3.5 29.5q-6 23 -24.5 37t-57.5 18q-17 2 -104.5 4t-123.5 2q-8 0 -8 -14 v-113q0 -13 -0.5 -62t-0.5 -88.5t1 -58.5q2 -71 42.5 -94.5t154.5 -23.5q94 0 138 19q27 12 41 36t22 68q4 21 17 21t13 -33q0 -24 -7.5 -79.5t-13.5 -76.5q-3 -13 -12 -19.5t-18 -8t-30 -4t-35 -4.5q-54 -9 -89.5 -67.5t-35.5 -125.5q0 -81 96 -81q28 0 51.5 13.5t38 27 t20.5 13.5q14 0 14 -13q0 -10 -13 -26q-95 -110 -205 -110q-77 0 -114 30t-37 97q0 31 20.5 70.5t50 73.5t57.5 60t48 40q-233 6 -323 6q-5 0 -33.5 -1t-48.5 -1q-18 0 -52.5 -1.5t-48.5 -1.5q-29 0 -29 15t24 15q52 0 70.5 15.5t23.5 63.5q7 60 7 301v249q0 254 -2 299 q-3 46 -31.5 63.5t-89.5 17.5q-24 0 -24 14z" />
<glyph unicode="&#x11a;" d="M104 1234q0 15 37 15q23 0 68.5 -1t65.5 -1q86 -3 105 -3q383 0 415 2q55 5 71 10q3 0 12.5 3.5t14.5 3.5q9 0 9 -16q0 -3 -2 -14t-5 -35.5t-6 -57.5q0 -5 -0.5 -22t-1.5 -33.5t-3 -34t-7 -28t-13 -10.5q-14 0 -14 23q0 34 -11 60q-9 26 -31 39t-80 20q-19 2 -111.5 5 t-124.5 3q-11 0 -11 -17v-420q0 -19 11 -19q219 0 266 4q62 5 80 25q19 22 26 22q12 0 12 -13q-20 -198 -20 -233q0 -31 -15 -31t-15 14v7q-3 26 -5 38.5t-8 29.5t-15.5 25t-27 15t-43.5 10q-48 5 -236 5q-10 0 -10 -16v-132v-257q1 -26 3.5 -44t8 -33.5t15.5 -25.5 t24 -17.5t35.5 -11.5t48.5 -6t64 -2q113 0 156 21q32 15 49 43t25 79q3 14 7 19.5t12 5.5q9 0 11 -7t2 -23q0 -28 -7.5 -93.5t-13.5 -90.5q-8 -30 -23.5 -36.5t-66.5 -6.5q-103 0 -245 5t-214 5q-55 0 -95 -2q-20 0 -59 -1.5t-55 -1.5q-33 0 -33 16q0 14 26 14q30 0 59 7 q23 4 33 26.5t16 64.5q8 70 8 353v292q0 298 -3 351q-3 45 -17.5 66t-53.5 29q-20 5 -65 5q-29 0 -29 15zM313 1551q0 8 9 16l48 49q12 11 18 11q11 0 28 -18q22 -21 76.5 -66.5t69.5 -56.5q12 -9 22 -9q14 0 25 6q95 58 173 122q27 22 36 22q6 0 10.5 -4.5t4.5 -11.5 q0 -10 -15 -25q-13 -14 -106.5 -101.5t-112.5 -104.5q-23 -20 -35 -20q-3 0 -30 19q-23 19 -197 149q-24 16 -24 23z" />
<glyph unicode="&#x11b;" horiz-adv-x="954" d="M92 1048q0 14 33 14q42 0 118 -1.5t92 -1.5q6 0 110 -0.5t189.5 -0.5t98.5 1q8 0 62 8q3 0 7.5 2t8.5 3t7 1q10 0 10 -13q0 -3 -2 -12t-5 -30t-5 -49q0 -5 -0.5 -21t-1.5 -30.5t-3.5 -30t-7.5 -25t-12 -9.5q-11 0 -11 18q0 31 -10 52q-6 11 -10.5 17.5t-14.5 14t-28 12 t-44 7.5q-16 2 -106 4t-122 2q-10 0 -10 -13v-348q0 -16 10 -16q213 0 255 5q55 5 70 21l8.5 8.5t8.5 7.5t6 2q5 0 8 -4.5t3 -10.5q-17 -169 -17 -197q0 -32 -16 -32q-13 0 -13 12q0 3 -1.5 21.5t-3.5 29.5q-4 15 -12 25.5t-25.5 19t-44.5 10.5q-17 2 -104.5 4t-123.5 2 q-8 0 -8 -14v-113q0 -13 -0.5 -62t-0.5 -88.5t1 -58.5q2 -71 42.5 -94.5t154.5 -23.5q94 0 138 19q27 12 41 36t22 68q4 21 17 21t13 -33q0 -24 -7.5 -79.5t-13.5 -76.5q-7 -26 -20 -31t-57 -5q-90 0 -231 4t-208 4q-5 0 -33.5 -1t-48.5 -1q-70 -3 -101 -3q-29 0 -29 15 t24 15q52 0 70.5 15.5t23.5 63.5q7 60 7 301v249q0 254 -2 299q-3 46 -31.5 63.5t-89.5 17.5q-24 0 -24 14zM267 1366q0 8 8 16l48 48q12 12 19 12q10 0 28 -19q21 -21 75.5 -66t70.5 -56q13 -11 22 -11q12 0 24 8q95 58 173 122q27 22 36 22q3 0 6 -1.5t5 -3.5t3.5 -5.5 t1.5 -6.5q0 -9 -16 -25q-13 -14 -106 -101.5t-113 -103.5q-22 -21 -34 -21q-4 0 -30 19q-18 16 -198 149q-23 16 -23 24z" />
<glyph unicode="&#x11e;" horiz-adv-x="1469" d="M92 622q0 96 23.5 183t64.5 154.5t91 118.5t109 87q108 65 213.5 86.5t232.5 21.5q75 0 165 -10t128 -17q86 -16 132 -18q9 -1 14.5 -3.5t7 -6.5t1.5 -10q0 -3 -3 -29t-5.5 -89t-2.5 -154q0 -20 -4.5 -27.5t-14.5 -7.5q-13 0 -16 22q-11 89 -57 137q-45 49 -144 89 t-226 40q-43 0 -75.5 -3t-77.5 -12t-89.5 -31.5t-85.5 -56.5q-153 -128 -153 -406q0 -106 26 -201.5t76.5 -172t120 -132.5t160.5 -86.5t194 -30.5t141 18q32 14 32 61v156q0 146 -2 196q-1 44 -16 65t-55 29q-19 5 -65 5q-25 0 -25 13q0 17 35 17q48 0 134 -2.5t107 -2.5 q25 0 95.5 2.5t98.5 2.5q33 0 33 -17q0 -13 -22 -13q-37 0 -59.5 -8.5t-34.5 -30.5t-13 -60q-2 -50 -2 -200v-182q0 -33 -3.5 -42t-18.5 -18q-75 -39 -182 -56.5t-217 -17.5q-125 0 -236.5 23t-209 74t-168.5 126t-111.5 184t-40.5 243zM548 1503q0 8 13 17l55 42 q14 13 21 13q4 0 9 -6t12.5 -16.5t12.5 -16.5q40 -46 76 -59.5t78 -13.5q78 0 145 47q21 16 38 32.5t23.5 22.5t11.5 6q4 0 7.5 -2t5 -5.5t1.5 -7.5q0 -18 -37 -60.5t-67 -62.5q-46 -30 -84 -43t-96 -13q-38 0 -84 16t-80 44q-61 50 -61 66z" />
<glyph unicode="&#x11f;" horiz-adv-x="1298" d="M79 529q0 82 21 156t57.5 131t81 100.5t96.5 74.5q95 55 188 72.5t205 17.5q29 0 63 -1.5t64 -4t57.5 -6t46.5 -6t28 -4.5q87 -14 116 -16q12 -1 16 -4.5t4 -11.5q0 -2 -2.5 -24.5t-5 -76t-2.5 -131.5q0 -32 -19 -32q-13 0 -16 19q-7 72 -49 115q-40 42 -123 75t-194 33 q-40 0 -65.5 -1.5t-65.5 -9t-78 -25.5t-74 -46q-133 -110 -133 -344q0 -151 61 -270t177 -186.5t269 -67.5q68 0 103 15q28 12 28 49v130q0 123 -2 166q-1 46 -30 63.5t-89 17.5q-9 0 -16 4.5t-7 10.5q0 8 7.5 10.5t23.5 2.5q43 0 125 -1.5t99 -1.5q23 0 85 1.5t86 1.5 q16 0 23 -2.5t7 -10.5q0 -6 -5.5 -10.5t-12.5 -4.5q-49 0 -72 -17.5t-24 -63.5q-2 -43 -2 -170v-155q0 -29 -2.5 -36t-16.5 -14q-129 -63 -356 -63q-110 0 -208 19.5t-184.5 62.5t-149 106.5t-98.5 156.5t-36 207zM445 1317q0 8 13 17l55 43q13 11 21 11q4 0 9 -5.5t13 -16 t13 -16.5q39 -45 75 -59t78 -14q80 0 146 47q20 16 37 32.5t24 22.5t11 6q6 0 10 -4t4 -10q0 -12 -18 -37t-42.5 -49.5t-43.5 -37.5q-46 -30 -84 -43t-96 -13q-24 0 -52 6.5t-58.5 20.5t-53.5 33q-61 49 -61 66z" />
<glyph unicode="&#x122;" horiz-adv-x="1469" d="M92 622q0 96 23.5 183t64.5 154.5t91 118.5t109 87q108 65 213.5 86.5t232.5 21.5q75 0 165 -10t128 -17q86 -16 132 -18q9 -1 14.5 -3.5t7 -6.5t1.5 -10q0 -3 -3 -29t-5.5 -89t-2.5 -154q0 -20 -4.5 -27.5t-14.5 -7.5q-13 0 -16 22q-11 89 -57 137q-45 49 -144 89 t-226 40q-43 0 -75.5 -3t-77.5 -12t-89.5 -31.5t-85.5 -56.5q-153 -128 -153 -406q0 -106 26 -201.5t76.5 -172t120 -132.5t160.5 -86.5t194 -30.5t141 18q32 14 32 61v156q0 146 -2 196q-1 44 -16 65t-55 29q-19 5 -65 5q-25 0 -25 13q0 17 35 17q48 0 134 -2.5t107 -2.5 q25 0 95.5 2.5t98.5 2.5q33 0 33 -17q0 -13 -22 -13q-37 0 -59.5 -8.5t-34.5 -30.5t-13 -60q-2 -50 -2 -200v-182q0 -33 -3.5 -42t-18.5 -18q-75 -39 -182 -56.5t-217 -17.5q-125 0 -236.5 23t-209 74t-168.5 126t-111.5 184t-40.5 243zM740 -185q0 23 17.5 46.5t42 38 t46.5 14.5q9 0 15 -6.5t22 -30.5q31 -48 31 -73q0 -27 -18 -70q-18 -42 -49.5 -97t-63.5 -91q-2 -2 -6.5 -6t-6.5 -6t-5.5 -3.5t-6.5 -1.5t-7 5t-4 10q0 2 1.5 5.5t3 6t3.5 6t3 5.5q41 70 41 124q0 28 -9 50.5t-20.5 34t-20.5 22t-9 17.5z" />
<glyph unicode="&#x123;" horiz-adv-x="1298" d="M79 529q0 82 21 156t57.5 131t81 100.5t96.5 74.5q95 55 188 72.5t205 17.5q29 0 63 -1.5t64 -4t57.5 -6t46.5 -6t28 -4.5q87 -14 116 -16q12 -1 16 -4.5t4 -11.5q0 -2 -2.5 -24.5t-5 -76t-2.5 -131.5q0 -32 -19 -32q-13 0 -16 19q-7 72 -49 115q-40 42 -123 75t-194 33 q-40 0 -65.5 -1.5t-65.5 -9t-78 -25.5t-74 -46q-133 -110 -133 -344q0 -151 61 -270t177 -186.5t269 -67.5q68 0 103 15q28 12 28 49v130q0 123 -2 166q-1 46 -30 63.5t-89 17.5q-9 0 -16 4.5t-7 10.5q0 8 7.5 10.5t23.5 2.5q43 0 125 -1.5t99 -1.5q23 0 85 1.5t86 1.5 q16 0 23 -2.5t7 -10.5q0 -6 -5.5 -10.5t-12.5 -4.5q-49 0 -72 -17.5t-24 -63.5q-2 -43 -2 -170v-155q0 -29 -2.5 -36t-16.5 -14q-129 -63 -356 -63q-110 0 -208 19.5t-184.5 62.5t-149 106.5t-98.5 156.5t-36 207zM646 -185q0 23 17.5 46.5t42 38t46.5 14.5q8 0 13.5 -6 t18.5 -25q3 -4 4 -6q32 -49 32 -73q0 -25 -19 -70q-11 -25 -26.5 -55.5t-39.5 -69t-47 -63.5q-2 -2 -6.5 -6t-6.5 -6t-5.5 -3.5t-6.5 -1.5t-7 5t-4 10q0 2 1.5 5.5t3 6t3.5 6t3 5.5q42 70 42 124q0 28 -9.5 50.5t-20.5 34t-20 22t-9 17.5z" />
<glyph unicode="&#x12a;" horiz-adv-x="749" d="M126 1236q0 13 40 13q34 0 114 -2.5t102 -2.5q17 0 92.5 2.5t109.5 2.5q35 0 35 -13q0 -17 -27 -17q-39 0 -61.5 -8t-35 -30t-14.5 -62q-3 -53 -3 -351v-292v-94.5t0.5 -80.5t1 -77.5t1.5 -59.5t3 -51q4 -38 18 -57.5t49 -23.5q47 -7 84 -7q27 0 27 -14q0 -16 -32 -16 q-63 0 -153.5 2.5t-104.5 2.5q-16 0 -94 -2.5t-115 -2.5q-33 0 -33 16q0 14 26 14q59 0 80.5 17t27.5 72q8 70 8 362v292q0 298 -3 351q-4 60 -30 80t-87 20q-26 0 -26 17zM154 1433l14 60q1 4 2.5 7t3.5 5t4.5 2.5t6.5 0.5h399q18 0 13 -17l-13 -60q-2 -9 -19 -9h-397 q-9 0 -12 2.5t-2 8.5z" />
<glyph unicode="&#x12b;" horiz-adv-x="674" d="M111 1050q0 12 35 12q29 0 103 -1.5t93 -1.5q16 0 86 1.5t101 1.5q30 0 30 -12q0 -16 -23 -16q-51 0 -73 -16.5t-25 -64.5q-3 -45 -3 -299v-249q0 -249 6 -309q4 -31 16 -46t42 -20t75 -5q11 0 17 -5t6 -10q0 -15 -28 -15q-56 0 -139.5 2.5t-95.5 2.5q-14 0 -86.5 -2.5 t-104.5 -2.5q-29 0 -29 15t24 15q51 0 70 13.5t24 59.5q7 58 7 307v249q0 254 -2 299q-3 47 -27 64t-76 17q-23 0 -23 16zM116 1247l14 60q1 5 2 7.5t3.5 4.5t5 2.5t6.5 0.5h399q18 0 13 -16l-13 -60q-2 -10 -19 -10h-397q-9 0 -12 2.5t-2 8.5z" />
<glyph unicode="&#x12e;" horiz-adv-x="749" d="M126 1236q0 13 40 13q34 0 114 -2.5t102 -2.5q17 0 92.5 2.5t109.5 2.5q35 0 35 -13q0 -17 -27 -17q-39 0 -61.5 -8t-35 -30t-14.5 -62q-3 -53 -3 -351v-292q0 -292 6 -363q4 -38 18 -57.5t49 -23.5q47 -7 84 -7q27 0 27 -14q0 -16 -32 -16q-17 0 -55.5 3.5t-64 1.5 t-44.5 -11q-46 -24 -75.5 -80.5t-29.5 -109.5q0 -81 97 -81q27 0 51 13.5t38.5 27t19.5 13.5q15 0 15 -13q0 -9 -13 -26q-95 -110 -205 -110q-78 0 -115 30t-37 97q0 34 25 78.5t58 80t63.5 61t43.5 30.5h-30q-55 0 -95 -2q-20 0 -59 -1.5t-55 -1.5q-33 0 -33 16q0 14 26 14 q59 0 80.5 17t27.5 72q8 70 8 362v292q0 298 -3 351q-4 60 -30 80t-87 20q-26 0 -26 17z" />
<glyph unicode="&#x12f;" horiz-adv-x="674" d="M111 1050q0 12 35 12q29 0 103 -1.5t93 -1.5q16 0 86 1.5t101 1.5q30 0 30 -12q0 -16 -23 -16q-51 0 -73 -16.5t-25 -64.5q-3 -45 -3 -299v-249q0 -249 6 -309q4 -31 16 -46t42 -20t75 -5q11 0 17 -5t6 -10q0 -15 -28 -15q-13 0 -48.5 3t-58.5 1t-41 -12 q-42 -24 -71.5 -80.5t-29.5 -107.5q0 -81 96 -81q28 0 51.5 13.5t38 27t20.5 13.5q15 0 15 -13q0 -9 -14 -26q-95 -110 -205 -110q-78 0 -114.5 30t-36.5 97q0 28 16.5 63t41 65.5t51 57.5t48.5 44t32 20h-26q-6 0 -20.5 -0.5t-32.5 -1t-34 -0.5q-73 -3 -104 -3 q-29 0 -29 15t24 15q51 0 70 13.5t24 59.5q7 58 7 307v249q0 254 -2 299q-3 47 -27 64t-76 17q-23 0 -23 16z" />
<glyph unicode="&#x130;" horiz-adv-x="749" d="M126 1236q0 13 40 13q34 0 114 -2.5t102 -2.5q17 0 92.5 2.5t109.5 2.5q35 0 35 -13q0 -17 -27 -17q-39 0 -61.5 -8t-35 -30t-14.5 -62q-3 -53 -3 -351v-292v-94.5t0.5 -80.5t1 -77.5t1.5 -59.5t3 -51q4 -38 18 -57.5t49 -23.5q47 -7 84 -7q27 0 27 -14q0 -16 -32 -16 q-63 0 -153.5 2.5t-104.5 2.5q-16 0 -94 -2.5t-115 -2.5q-33 0 -33 16q0 14 26 14q59 0 80.5 17t27.5 72q8 70 8 362v292q0 298 -3 351q-4 60 -30 80t-87 20q-26 0 -26 17zM282 1470q0 36 23.5 66t69.5 30q41 0 68 -24.5t27 -64.5q0 -42 -26.5 -71t-68.5 -29 q-46 0 -69.5 28.5t-23.5 64.5z" />
<glyph unicode="&#x131;" horiz-adv-x="674" d="M111 1050q0 12 35 12q29 0 103 -1.5t93 -1.5q16 0 86 1.5t101 1.5q30 0 30 -12q0 -16 -23 -16q-51 0 -73 -16.5t-25 -64.5q-3 -45 -3 -299v-249q0 -249 6 -309q4 -31 16 -46t42 -20t75 -5q11 0 17 -5t6 -10q0 -15 -28 -15q-56 0 -139.5 2.5t-95.5 2.5q-14 0 -86.5 -2.5 t-104.5 -2.5q-29 0 -29 15t24 15q51 0 70 13.5t24 59.5q7 58 7 307v249q0 254 -2 299q-3 47 -27 64t-76 17q-23 0 -23 16z" />
<glyph unicode="&#x136;" horiz-adv-x="1273" d="M104 1234q0 15 37 15q50 0 134.5 -2.5t97.5 -2.5q18 0 94.5 2.5t106.5 2.5q35 0 35 -15t-23 -15q-57 0 -81 -21t-27 -79q-3 -53 -3 -351v-73h8q16 18 167.5 175t178.5 190q5 5 13 15q25 30 37 45t22.5 33.5t10.5 30.5q0 29 -23 33q-21 5 -21 17q0 15 26 15q16 0 82 -2.5 t89 -2.5q26 0 97 2.5t97 2.5q28 0 28 -15t-24 -15q-47 0 -97 -18q-86 -34 -179 -125q-48 -47 -184 -182t-174 -176q42 -55 219.5 -247t229.5 -242q5 -5 15 -14q46 -44 72 -67.5t68.5 -53t81.5 -45.5q60 -24 103 -24q22 0 22 -14q0 -8 -8.5 -12t-31.5 -4h-144q-80 0 -115 3 q-62 6 -102.5 29.5t-102.5 78.5q-50 44 -226.5 247.5t-208.5 248.5l-18 25h-8v-151q0 -283 5 -354q5 -82 59 -90q47 -7 81 -7q22 0 22 -14q0 -16 -31 -16q-53 0 -139 2.5t-100 2.5q-16 0 -94 -2.5t-115 -2.5q-33 0 -33 16q0 14 26 14q30 0 59 7q23 4 33 26.5t16 64.5 q8 70 8 353v292q0 298 -3 351q-3 45 -17.5 66t-53.5 29q-20 5 -65 5q-29 0 -29 15zM673 -152q0 23 18 46.5t43 38t46 14.5q9 0 15 -6.5t21 -30.5q32 -49 32 -73t-19 -69q-18 -43 -49 -97.5t-63 -91.5q-2 -2 -6.5 -6t-7 -6t-5.5 -3.5t-6 -1.5q-4 0 -8 5t-4 10q0 2 1.5 5.5 t3.5 6t4 6t3 5.5q41 70 41 125q0 27 -9.5 50t-20.5 34.5t-20.5 22t-9.5 16.5z" />
<glyph unicode="&#x137;" horiz-adv-x="1135" d="M92 1048q0 14 33 14q43 0 117.5 -1.5t86.5 -1.5q16 0 88.5 1.5t98.5 1.5q32 0 32 -14t-21 -14q-33 0 -52 -6.5t-30.5 -24.5t-13.5 -50q-2 -45 -2 -299v-64h8q23 26 152.5 156t151.5 155q4 4 12 13q23 25 33 37.5t19.5 28t9.5 25.5q0 23 -20.5 28.5t-20.5 14.5q0 14 24 14 q15 0 72.5 -1.5t78.5 -1.5q22 0 85 1.5t85 1.5q26 0 26 -14t-22 -14q-38 0 -85 -17q-69 -25 -153 -105q-33 -30 -91.5 -85.5t-128 -123.5t-89.5 -91q23 -30 109.5 -123t171 -180t113.5 -115q12 -10 39.5 -36t42.5 -39.5t43 -34.5t50 -31.5t52.5 -19t61.5 -8.5q5 0 10 -2 t7.5 -5.5t2.5 -7.5q0 -15 -35 -15h-128q-111 0 -166.5 18t-123.5 77q-42 37 -193.5 210t-181.5 213l-14 19h-8v-127q0 -225 4 -302q6 -65 53 -73q30 -5 71 -5q8 0 14.5 -5t6.5 -10q0 -15 -29 -15q-46 0 -128 2.5t-95 2.5t-82 -2.5t-101 -2.5q-29 0 -29 15t24 15 q52 0 70.5 15.5t23.5 63.5q7 60 7 301v249q0 254 -2 299q-3 46 -31.5 63.5t-89.5 17.5q-24 0 -24 14zM597 -185q0 23 17.5 46.5t42.5 38t46 14.5q9 0 14.5 -6t18.5 -25q2 -4 4 -6q31 -49 31 -73q0 -27 -18 -70q-11 -25 -26.5 -55.5t-39.5 -69t-46 -63.5q-3 -2 -7 -6t-6.5 -6 t-6 -3.5t-5.5 -1.5q-4 0 -8.5 5t-4.5 10q0 3 2.5 7t5.5 8.5l5 7.5q41 70 41 124q0 28 -9.5 50.5t-20.5 34t-20.5 22t-9.5 17.5z" />
<glyph unicode="&#x139;" horiz-adv-x="1003" d="M114 1234q0 15 37 15q43 0 126 -2.5t101 -2.5q17 0 103.5 2.5t121.5 2.5t35 -15t-29 -15q-34 0 -65 -5q-32 -6 -45.5 -27.5t-15.5 -67.5q-3 -53 -3 -351v-292q0 -188 5 -262t29 -95q23 -20 65.5 -28t135.5 -8q79 0 122.5 8t71.5 39q15 16 28 46t16 53q2 25 17 25 q9 0 11 -6t2 -22q0 -20 -7.5 -90t-16.5 -101q-4 -15 -8 -22.5t-15.5 -13.5t-29.5 -7.5t-51 -1.5q-105 0 -252.5 5t-230.5 5q-55 0 -95 -2q-20 0 -59 -1.5t-55 -1.5q-33 0 -33 16q0 14 26 14q30 0 59 7q23 4 33 26.5t16 64.5q8 70 8 353v292q0 298 -3 351q-3 45 -17.5 66 t-53.5 29q-20 5 -55 5q-29 0 -29 15zM348 1387q0 6 16 22q44 42 142 117.5t124 91.5q21 14 33 14q9 0 13 -4t11 -15q14 -26 48 -100q12 -25 -8 -25q-2 0 -10.5 0.5t-20 0.5t-26.5 -1q-63 -8 -146 -38.5t-138 -59.5q-26 -13 -28 -13q-3 0 -6.5 2.5t-3.5 7.5z" />
<glyph unicode="&#x13a;" horiz-adv-x="915" d="M101 1048q0 14 32 14q37 0 110.5 -1.5t90.5 -1.5q14 0 96.5 1.5t113.5 1.5q32 0 32 -14t-27 -14q-32 0 -57 -5q-14 -3 -24 -8t-16.5 -14.5t-9.5 -22t-4 -31.5q-3 -45 -3 -299v-249v-13q0 -151 5 -208.5t26 -75.5q34 -30 194 -30q47 0 72.5 1.5t53.5 10.5t45 27 q13 14 23.5 39t13.5 46q2 22 17 22q12 0 12 -31q0 -17 -7 -76.5t-14 -86.5q-6 -17 -12.5 -24t-24 -10.5t-56.5 -3.5q-90 0 -236 4t-221 4q-5 0 -33.5 -1t-48.5 -1q-70 -3 -101 -3q-29 0 -29 15t24 15q52 0 70.5 15.5t23.5 63.5q7 60 7 301v249q0 254 -2 299q-2 30 -15 48 t-36 25.5t-60 7.5q-25 0 -25 14zM312 1201q0 7 14 21q45 43 143.5 118t124.5 91q22 16 33 16q8 0 12.5 -4.5t10.5 -16.5q15 -25 48 -99q12 -25 -8 -25q-1 0 -9.5 1t-20.5 1t-27 -2q-42 -5 -99.5 -22.5t-104 -37.5t-79.5 -38l-28 -13q-3 0 -6.5 3t-3.5 7z" />
<glyph unicode="&#x13b;" horiz-adv-x="1003" d="M114 1234q0 15 37 15q43 0 126 -2.5t101 -2.5q17 0 103.5 2.5t121.5 2.5t35 -15t-29 -15q-34 0 -65 -5q-32 -6 -45.5 -27.5t-15.5 -67.5q-3 -53 -3 -351v-292q0 -188 5 -262t29 -95q23 -20 65.5 -28t135.5 -8q79 0 122.5 8t71.5 39q15 16 28 46t16 53q2 25 17 25 q9 0 11 -6t2 -22q0 -20 -7.5 -90t-16.5 -101q-4 -15 -8 -22.5t-15.5 -13.5t-29.5 -7.5t-51 -1.5q-105 0 -252.5 5t-230.5 5q-55 0 -95 -2q-20 0 -59 -1.5t-55 -1.5q-33 0 -33 16q0 14 26 14q30 0 59 7q23 4 33 26.5t16 64.5q8 70 8 353v292q0 298 -3 351q-3 45 -17.5 66 t-53.5 29q-20 5 -55 5q-29 0 -29 15zM531 -185q0 23 17.5 46.5t42 38t46.5 14.5q8 0 13.5 -6t18.5 -25q3 -4 4 -6q32 -49 32 -73q0 -27 -18 -70q-11 -25 -27 -55.5t-40 -69t-46 -63.5q-2 -2 -6.5 -6t-6.5 -6t-5.5 -3.5t-6.5 -1.5t-7 5t-4 10q0 2 1.5 5.5t3 6t3.5 6t3 5.5 q41 70 41 124q0 28 -9 50.5t-20.5 34t-20.5 22t-9 17.5z" />
<glyph unicode="&#x13c;" horiz-adv-x="915" d="M101 1048q0 14 32 14q37 0 110.5 -1.5t90.5 -1.5q14 0 96.5 1.5t113.5 1.5q32 0 32 -14t-27 -14q-32 0 -57 -5q-14 -3 -24 -8t-16.5 -14.5t-9.5 -22t-4 -31.5q-3 -45 -3 -299v-249v-13q0 -151 5 -208.5t26 -75.5q34 -30 194 -30q47 0 72.5 1.5t53.5 10.5t45 27 q13 14 23.5 39t13.5 46q2 22 17 22q12 0 12 -31q0 -17 -7 -76.5t-14 -86.5q-6 -17 -12.5 -24t-24 -10.5t-56.5 -3.5q-90 0 -236 4t-221 4q-5 0 -33.5 -1t-48.5 -1q-70 -3 -101 -3q-29 0 -29 15t24 15q52 0 70.5 15.5t23.5 63.5q7 60 7 301v249q0 254 -2 299q-2 30 -15 48 t-36 25.5t-60 7.5q-25 0 -25 14zM470 -185q0 23 17.5 46.5t42.5 38t46 14.5q8 0 14 -6t19 -25l3 -6q32 -49 32 -73q0 -25 -19 -70q-11 -25 -26.5 -55.5t-39.5 -69t-46 -63.5q-3 -2 -7 -6t-6.5 -6t-6 -3.5t-5.5 -1.5q-4 0 -8 5t-4 10q0 2 1.5 5.5t3 6t4 6t3.5 5.5 q41 70 41 124q0 28 -9.5 50.5t-20.5 34t-20 22t-9 17.5z" />
<glyph unicode="&#x13d;" horiz-adv-x="1003" d="M114 1234q0 15 37 15q43 0 126 -2.5t101 -2.5q17 0 103.5 2.5t121.5 2.5t35 -15t-29 -15q-34 0 -65 -5q-32 -6 -45.5 -27.5t-15.5 -67.5q-3 -53 -3 -351v-292q0 -188 5 -262t29 -95q23 -20 65.5 -28t135.5 -8q79 0 122.5 8t71.5 39q15 16 28 46t16 53q2 25 17 25 q9 0 11 -6t2 -22q0 -20 -7.5 -90t-16.5 -101q-4 -15 -8 -22.5t-15.5 -13.5t-29.5 -7.5t-51 -1.5q-105 0 -252.5 5t-230.5 5q-55 0 -95 -2q-20 0 -59 -1.5t-55 -1.5q-33 0 -33 16q0 14 26 14q30 0 59 7q23 4 33 26.5t16 64.5q8 70 8 353v292q0 298 -3 351q-3 45 -17.5 66 t-53.5 29q-20 5 -55 5q-29 0 -29 15zM796 1149q0 24 17.5 47.5t42.5 38t46 14.5q5 0 8.5 -1t8.5 -7t8 -10.5t12 -17.5q31 -49 31 -73q0 -27 -17 -70q-19 -42 -50.5 -97.5t-63.5 -92.5q-2 -1 -6.5 -5t-6.5 -6t-5 -3.5t-6 -1.5q-2 0 -4 1.5t-4 3.5t-3 5t-1 5q0 3 2 7t5.5 9 t4.5 7q41 71 41 125q0 28 -9.5 50.5t-20.5 34t-20.5 21.5t-9.5 16z" />
<glyph unicode="&#x13e;" horiz-adv-x="915" d="M101 1048q0 14 32 14q37 0 110.5 -1.5t90.5 -1.5q14 0 96.5 1.5t113.5 1.5q32 0 32 -14t-27 -14q-32 0 -57 -5q-14 -3 -24 -8t-16.5 -14.5t-9.5 -22t-4 -31.5q-3 -45 -3 -299v-249v-13q0 -151 5 -208.5t26 -75.5q34 -30 194 -30q47 0 72.5 1.5t53.5 10.5t45 27 q13 14 23.5 39t13.5 46q2 22 17 22q12 0 12 -31q0 -17 -7 -76.5t-14 -86.5q-6 -17 -12.5 -24t-24 -10.5t-56.5 -3.5q-90 0 -236 4t-221 4q-5 0 -33.5 -1t-48.5 -1q-70 -3 -101 -3q-29 0 -29 15t24 15q52 0 70.5 15.5t23.5 63.5q7 60 7 301v249q0 254 -2 299q-2 30 -15 48 t-36 25.5t-60 7.5q-25 0 -25 14zM720 975q0 36 36 68t70 32q9 0 15 -6.5t22 -30.5q31 -49 31 -72q0 -25 -18 -70q-11 -26 -27 -56.5t-40 -69t-46 -64.5q-19 -16 -25 -16q-4 0 -7.5 5t-3.5 10q0 2 1 5.5t3 6t4 6t3 5.5q42 72 42 125q0 28 -9.5 50.5t-20.5 33.5t-20.5 21.5 t-9.5 16.5z" />
<glyph unicode="&#x141;" horiz-adv-x="1003" d="M90 536q-5 9 5 15l177 90v127q0 298 -3 351q-3 45 -17.5 66t-53.5 29q-20 5 -57 5q-28 0 -28 15t36 15q44 0 127.5 -2.5t101.5 -2.5q17 0 99.5 2.5t117.5 2.5t35 -15t-30 -15q-25 0 -56 -5q-32 -6 -45.5 -27.5t-15.5 -67.5q-3 -53 -3 -351v-40l220 108q22 10 27 -5 l20 -55q7 -16 -12 -23l-255 -123v-154q0 -188 5 -262t29 -95q23 -20 65.5 -28t135.5 -8q79 0 122.5 8t71.5 39q15 16 28 46t16 53q3 29 17 29q13 0 13 -32q0 -20 -7.5 -90t-16.5 -101q-4 -15 -8 -22.5t-15.5 -13.5t-29.5 -7.5t-51 -1.5q-105 0 -252.5 5t-230.5 5 q-55 0 -95 -2q-20 0 -59 -1.5t-55 -1.5q-33 0 -33 16q0 14 26 14q30 0 59 7q23 4 33 26.5t16 64.5q8 70 8 353v70l-138 -73q-12 -6 -18 7z" />
<glyph unicode="&#x142;" horiz-adv-x="915" d="M79 450q-2 8 4 11l156 77v116q0 254 -2 299q-3 44 -30 62.5t-82 18.5q-25 0 -25 14t31 14q39 0 113 -1.5t90 -1.5q14 0 93.5 1.5t110.5 1.5q29 0 29 -14t-24 -14q-26 0 -51 -5q-14 -3 -24 -8t-16.5 -14.5t-9.5 -22t-4 -31.5q-3 -45 -3 -299v-35l194 91q18 9 23 -4l18 -51 q5 -14 -10 -20l-225 -104v-126v-13q0 -151 5 -208.5t26 -75.5q34 -30 196 -30q49 0 73 1t52 10t46 27q13 13 22.5 38t12.5 47q3 27 17 27q6 0 10 -11t4 -24q0 -17 -7 -76.5t-15 -86.5q-5 -17 -11.5 -24t-24 -10.5t-56.5 -3.5q-91 0 -237 4t-222 4q-5 0 -33.5 -1t-48.5 -1 q-70 -3 -101 -3q-29 0 -29 15t24 15q52 0 70.5 15.5t23.5 63.5q7 60 7 289v60l-122 -63q-10 -4 -14 6z" />
<glyph unicode="&#x143;" horiz-adv-x="1570" d="M78 11q0 14 26 14q28 0 46 2.5t32.5 6t22.5 17t13.5 24t8 40t3 52.5t1.5 72l14 977q0 57 22 57q6 0 11 -2.5t11 -8t11 -10.5t14 -15t15 -16q5 -6 22 -23.5t46.5 -49t65.5 -69t82 -85t93 -95.5t101 -102t103 -104q49 -48 135 -137.5t153 -159.5t78 -81h8l-16 745 q-1 55 -7.5 85.5t-24.5 47.5t-42.5 21.5t-70.5 4.5q-26 0 -26 15t43 15q49 0 119 -2.5t82 -2.5q1 0 57.5 2.5t104.5 2.5q38 0 38 -15t-30 -15q-66 0 -87.5 -28.5t-23.5 -117.5l-18 -1046q0 -52 -22 -52q-19 0 -56 36q-59 57 -244 242.5t-245 245.5q-62 62 -134 136.5 t-120 125t-93 99.5t-48 52h-5l18 -692q3 -92 17 -133t41 -51q33 -11 86 -11q29 0 29 -14q0 -16 -39 -16q-63 0 -131.5 2.5t-74.5 2.5q-3 0 -15 -0.5t-29.5 -1t-38 -1.5t-46.5 -1.5t-50 -0.5q-12 0 -19 1t-12 4.5t-5 10.5zM649 1345q0 8 14 22q45 43 143 118t125 91 q21 15 33 15q5 0 9 -2.5t7 -6t7 -11.5q17 -30 48 -99q12 -25 -8 -25h-3.5h-5.5t-6.5 0.5t-7.5 0.5h-9t-11.5 -0.5t-13.5 -0.5q-62 -8 -145.5 -38.5t-137.5 -59.5q-26 -13 -28 -13q-4 0 -7 2.5t-3 6.5z" />
<glyph unicode="&#x144;" horiz-adv-x="1394" d="M68 10q0 6 7 10.5t17 4.5q17 0 29 0.5t23.5 3t18.5 4t13.5 8.5t10 11.5t7 17.5t4.5 22t2.5 30t1.5 35.5v44.5l13 836q0 14 3.5 25t9 17t13.5 6q11 0 23.5 -9.5t33.5 -30.5l6 -6q0 -1 48 -49t104 -105t140 -140.5t157 -155.5q43 -41 118 -117t132 -133.5t65 -65.5h7 l-15 627q-1 46 -6.5 72t-22 40t-37 17.5t-60.5 3.5q-24 0 -24 14t37 14q44 0 110 -1.5t76 -1.5q1 0 50.5 1.5t92.5 1.5q33 0 33 -14t-25 -14q-58 0 -77.5 -24t-20.5 -98l-16 -889q0 -15 -4 -25.5t-9 -15t-11 -4.5q-30 0 -60 30q-122 113 -426 407q-69 66 -149 148 t-131.5 136.5t-61.5 63.5h-5l17 -576q2 -39 4 -64.5t8.5 -44.5t14 -28.5t23 -15.5t32 -7.5t44.5 -1.5q12 0 18.5 -4.5t6.5 -10.5q0 -15 -33 -15q-56 0 -120.5 2.5t-69.5 2.5q-3 0 -27.5 -1t-60.5 -2.5t-69 -1.5q-17 0 -25 3t-8 12zM586 1201q0 7 14 21q45 43 143 118t125 91 q21 16 33 16q8 0 12.5 -4.5t10.5 -16.5q14 -25 48 -99q12 -25 -8 -25q-2 0 -10 1t-20 1t-27 -2q-63 -7 -146 -37.5t-137 -60.5q-28 -13 -29 -13q-3 0 -6 3t-3 7z" />
<glyph unicode="&#x145;" horiz-adv-x="1570" d="M78 11q0 14 26 14q28 0 46 2.5t32.5 6t22.5 17t13.5 24t8 40t3 52.5t1.5 72l14 977q0 57 22 57q6 0 11 -2.5t11 -8t11 -10.5t14 -15t15 -16q5 -6 22 -23.5t46.5 -49t65.5 -69t82 -85t93 -95.5t101 -102t103 -104q49 -48 135 -137.5t153 -159.5t78 -81h8l-16 745 q-1 55 -7.5 85.5t-24.5 47.5t-42.5 21.5t-70.5 4.5q-26 0 -26 15t43 15q49 0 119 -2.5t82 -2.5q1 0 57.5 2.5t104.5 2.5q38 0 38 -15t-30 -15q-66 0 -87.5 -28.5t-23.5 -117.5l-18 -1046q0 -52 -22 -52q-19 0 -56 36q-59 57 -244 242.5t-245 245.5q-62 62 -134 136.5 t-120 125t-93 99.5t-48 52h-5l18 -692q3 -92 17 -133t41 -51q33 -11 86 -11q29 0 29 -14q0 -16 -39 -16q-63 0 -131.5 2.5t-74.5 2.5q-3 0 -15 -0.5t-29.5 -1t-38 -1.5t-46.5 -1.5t-50 -0.5q-12 0 -19 1t-12 4.5t-5 10.5zM715 -136q0 23 17.5 47t42.5 38.5t46 14.5 q9 0 15 -6.5t22 -30.5q31 -49 31 -73t-18 -69q-19 -43 -50 -98t-63 -92q-19 -16 -25 -16q-4 0 -7.5 5t-3.5 9q0 3 1 6t3 6t4 6.5t3 5.5q41 70 41 125q0 27 -9 49.5t-20 34t-20.5 22t-9.5 16.5z" />
<glyph unicode="&#x146;" horiz-adv-x="1394" d="M68 10q0 6 7 10.5t17 4.5q17 0 29 0.5t23.5 3t18.5 4t13.5 8.5t10 11.5t7 17.5t4.5 22t2.5 30t1.5 35.5v44.5l13 836q0 14 3.5 25t9 17t13.5 6q11 0 23.5 -9.5t33.5 -30.5l6 -6q0 -1 48 -49t104 -105t140 -140.5t157 -155.5q43 -41 118 -117t132 -133.5t65 -65.5h7 l-15 627q-1 46 -6.5 72t-22 40t-37 17.5t-60.5 3.5q-24 0 -24 14t37 14q44 0 110 -1.5t76 -1.5q1 0 50.5 1.5t92.5 1.5q33 0 33 -14t-25 -14q-58 0 -77.5 -24t-20.5 -98l-16 -889q0 -15 -4 -25.5t-9 -15t-11 -4.5q-30 0 -60 30q-122 113 -426 407q-69 66 -149 148 t-131.5 136.5t-61.5 63.5h-5l17 -576q2 -39 4 -64.5t8.5 -44.5t14 -28.5t23 -15.5t32 -7.5t44.5 -1.5q12 0 18.5 -4.5t6.5 -10.5q0 -15 -33 -15q-56 0 -120.5 2.5t-69.5 2.5q-3 0 -27.5 -1t-60.5 -2.5t-69 -1.5q-17 0 -25 3t-8 12zM611 -136q0 36 36 68t70 32q9 0 15 -6.5 t21 -30.5q32 -49 32 -73t-19 -69q-6 -15 -14 -31.5t-19.5 -38t-24 -42t-27 -41.5t-27.5 -37q-20 -16 -25 -16q-4 0 -8 5t-4 9q0 3 2 7.5t5.5 9.5t4.5 7q41 70 41 125q0 27 -9.5 49.5t-20.5 34t-20 22t-9 16.5z" />
<glyph unicode="&#x147;" horiz-adv-x="1570" d="M78 11q0 14 26 14q28 0 46 2.5t32.5 6t22.5 17t13.5 24t8 40t3 52.5t1.5 72l14 977q0 57 22 57q6 0 11 -2.5t11 -8t11 -10.5t14 -15t15 -16q5 -6 22 -23.5t46.5 -49t65.5 -69t82 -85t93 -95.5t101 -102t103 -104q49 -48 135 -137.5t153 -159.5t78 -81h8l-16 745 q-1 55 -7.5 85.5t-24.5 47.5t-42.5 21.5t-70.5 4.5q-26 0 -26 15t43 15q49 0 119 -2.5t82 -2.5q1 0 57.5 2.5t104.5 2.5q38 0 38 -15t-30 -15q-66 0 -87.5 -28.5t-23.5 -117.5l-18 -1046q0 -52 -22 -52q-19 0 -56 36q-59 57 -244 242.5t-245 245.5q-62 62 -134 136.5 t-120 125t-93 99.5t-48 52h-5l18 -692q3 -92 17 -133t41 -51q33 -11 86 -11q29 0 29 -14q0 -16 -39 -16q-63 0 -131.5 2.5t-74.5 2.5q-3 0 -15 -0.5t-29.5 -1t-38 -1.5t-46.5 -1.5t-50 -0.5q-12 0 -19 1t-12 4.5t-5 10.5zM534 1518q0 7 9 16l47 49q12 11 19 11q10 0 28 -18 q21 -21 76 -66.5t70 -56.5q12 -10 21 -10q15 0 25 7q91 56 173 123q26 21 36 21q7 0 11 -4.5t4 -11.5q0 -11 -15 -25q-13 -15 -106 -102t-112 -104q-23 -20 -35 -20q-3 0 -30 18q-18 16 -198 149q-23 17 -23 24z" />
<glyph unicode="&#x148;" horiz-adv-x="1394" d="M68 10q0 6 7 10.5t17 4.5q17 0 29 0.5t23.5 3t18.5 4t13.5 8.5t10 11.5t7 17.5t4.5 22t2.5 30t1.5 35.5v44.5l13 836q0 14 3.5 25t9 17t13.5 6q11 0 23.5 -9.5t33.5 -30.5l6 -6q0 -1 48 -49t104 -105t140 -140.5t157 -155.5q43 -41 118 -117t132 -133.5t65 -65.5h7 l-15 627q-1 46 -6.5 72t-22 40t-37 17.5t-60.5 3.5q-24 0 -24 14t37 14q44 0 110 -1.5t76 -1.5q1 0 50.5 1.5t92.5 1.5q33 0 33 -14t-25 -14q-58 0 -77.5 -24t-20.5 -98l-16 -889q0 -15 -4 -25.5t-9 -15t-11 -4.5q-30 0 -60 30q-122 113 -426 407q-69 66 -149 148 t-131.5 136.5t-61.5 63.5h-5l17 -576q2 -39 4 -64.5t8.5 -44.5t14 -28.5t23 -15.5t32 -7.5t44.5 -1.5q12 0 18.5 -4.5t6.5 -10.5q0 -15 -33 -15q-56 0 -120.5 2.5t-69.5 2.5q-3 0 -27.5 -1t-60.5 -2.5t-69 -1.5q-17 0 -25 3t-8 12zM438 1366q0 8 8 16l48 48q12 12 19 12 q9 0 28 -19q21 -21 75.5 -66t70.5 -56q13 -11 21 -11q13 0 25 8q95 58 173 122q27 22 36 22q3 0 6 -1.5t5 -3.5t3 -5.5t1 -6.5q0 -9 -15 -25q-9 -9 -58.5 -56t-99 -93t-61.5 -56q-22 -21 -34 -21q-4 0 -30 19q-19 16 -198 149q-23 16 -23 24z" />
<glyph unicode="&#x14c;" horiz-adv-x="1537" d="M92 622q0 62 11.5 125t37 127.5t63.5 122.5t94 108.5t124.5 87.5t159 58.5t194.5 21.5q153 0 278.5 -44t212 -124t133.5 -196t47 -257q0 -142 -49 -266.5t-136.5 -216t-217.5 -144.5t-284 -53q-100 0 -187 20.5t-154 56.5t-122 86t-92.5 108t-63.5 122t-37.5 128.5 t-11.5 128.5zM320 673q0 -103 22 -196.5t65.5 -170t104.5 -133t142.5 -87.5t174.5 -31q29 0 58.5 4.5t68.5 18.5t73.5 36.5t69.5 64t59.5 96t40 136t15.5 179.5q0 137 -37.5 251t-103 190.5t-154.5 119t-191 42.5q-43 0 -83 -7t-81.5 -24t-76.5 -43.5t-66.5 -67.5t-53.5 -94 t-34.5 -125.5t-12.5 -158.5zM548 1433l13 60q4 15 18 15h398q18 0 14 -17l-14 -60q-3 -9 -18 -9h-398q-9 0 -12 2.5t-1 8.5z" />
<glyph unicode="&#x14d;" horiz-adv-x="1371" d="M79 529q0 75 20.5 150t68 148t116.5 129t174.5 90.5t233.5 34.5q182 0 317.5 -64t207.5 -183t72 -280q0 -121 -43 -226.5t-121 -183.5t-194 -122.5t-254 -44.5q-123 0 -224.5 33.5t-169.5 88.5t-115 127.5t-68 148.5t-21 154zM296 573q0 -109 30.5 -204t86 -165 t139 -110.5t184.5 -40.5q26 0 51.5 4t60 15.5t64.5 31t60 54t51.5 80.5t35 114t13.5 151q0 114 -33 209.5t-90 159.5t-134.5 99.5t-165.5 35.5q-53 0 -100 -11.5t-94.5 -41.5t-81.5 -77.5t-55.5 -125.5t-21.5 -178zM481 1247l13 60q3 9 6.5 12t12.5 3h397q19 0 14 -16 l-14 -60q-2 -10 -17 -10h-399q-8 0 -11 2.5t-2 8.5z" />
<glyph unicode="&#x150;" horiz-adv-x="1537" d="M92 622q0 62 11.5 125t37 127.5t63.5 122.5t94 108.5t124.5 87.5t159 58.5t194.5 21.5q153 0 278.5 -44t212 -124t133.5 -196t47 -257q0 -142 -49 -266.5t-136.5 -216t-217.5 -144.5t-284 -53q-100 0 -187 20.5t-154 56.5t-122 86t-92.5 108t-63.5 122t-37.5 128.5 t-11.5 128.5zM320 673q0 -103 22 -196.5t65.5 -170t104.5 -133t142.5 -87.5t174.5 -31q29 0 58.5 4.5t68.5 18.5t73.5 36.5t69.5 64t59.5 96t40 136t15.5 179.5q0 137 -37.5 251t-103 190.5t-154.5 119t-191 42.5q-43 0 -83 -7t-81.5 -24t-76.5 -43.5t-66.5 -67.5t-53.5 -94 t-34.5 -125.5t-12.5 -158.5zM547 1382.5q-2 5.5 1 10.5q3 7 42.5 50.5t86 93t53.5 57.5q3 3 6.5 7.5t6 7t5 6t4.5 5.5l4 4l3.5 3.5t3.5 3t3 2t2.5 1t2.5 0.5q44 0 108 -54q8 -7 8.5 -14.5t-4.5 -9.5q-45 -13 -100 -39.5t-104 -58t-87 -62.5q-25 -19 -36 -19q-7 0 -9 5.5z M833.5 1382.5q-2.5 5.5 0.5 10.5q4 7 43.5 50.5t85.5 93t54 57.5q2 3 6 7q16 19 23.5 26t12.5 7q44 0 107 -55q21 -17 -11 -29q-6 -2 -20 -7l-30 -10q-53 -25 -119.5 -64.5t-106.5 -72.5q-25 -19 -37 -19q-6 0 -8.5 5.5z" />
<glyph unicode="&#x151;" horiz-adv-x="1371" d="M79 529q0 75 20.5 150t68 148t116.5 129t174.5 90.5t233.5 34.5q182 0 317.5 -64t207.5 -183t72 -280q0 -121 -43 -226.5t-121 -183.5t-194 -122.5t-254 -44.5q-123 0 -224.5 33.5t-169.5 88.5t-115 127.5t-68 148.5t-21 154zM296 573q0 -109 30.5 -204t86 -165 t139 -110.5t184.5 -40.5q26 0 51.5 4t60 15.5t64.5 31t60 54t51.5 80.5t35 114t13.5 151q0 114 -33 209.5t-90 159.5t-134.5 99.5t-165.5 35.5q-53 0 -100 -11.5t-94.5 -41.5t-81.5 -77.5t-55.5 -125.5t-21.5 -178zM439 1197q-2 6 1 11q2 4 19.5 24t41.5 46t48.5 52.5 t45.5 49t27 29.5q3 3 7 8t6.5 7.5t5.5 6t5 5.5l4.5 4.5t4 3.5l3 2t3 1.5t2.5 0.5q20 0 42 -10t34.5 -19t31.5 -26q8 -7 8.5 -14t-5.5 -8q-31 -9 -64 -24q-52 -24 -118.5 -63.5t-107.5 -72.5q-25 -20 -36 -20q-7 0 -9 6zM726 1197q-2 6 1 11q3 7 42.5 50.5t86 92.5t53.5 58 q2 2 6 7q17 19 24 25.5t12 6.5q20 0 42.5 -10.5t34.5 -19.5t31 -25q8 -7 8 -14t-5 -8q-67 -20 -149.5 -66t-141.5 -94q-26 -20 -36 -20q-7 0 -9 6z" />
<glyph unicode="&#x152;" horiz-adv-x="1973" d="M92 624q0 95 23 186t75 175.5t126.5 148t185.5 101.5t245 38q90 0 165 -15.5t130 -43.5t93.5 -59t73.5 -72h5q0 98 -1 118q0 5 -2 16.5t-2 16.5q0 7 4.5 11t12.5 4q1 0 8.5 -1t14.5 -1q23 -3 57 -3q383 0 414 2q55 5 72 10q2 0 12 3.5t14 3.5q10 0 10 -16q0 -3 -2 -14 t-5.5 -35.5t-5.5 -57.5q0 -3 -0.5 -9t-0.5 -13v-16t-0.5 -17.5t-1.5 -17.5t-2 -17t-3 -15t-4 -12t-5.5 -8t-7.5 -3q-15 0 -15 23q0 36 -10 60q-10 26 -32 39t-79 20q-19 2 -111.5 5t-124.5 3q-11 0 -11 -17v-418q0 -19 11 -19q218 0 266 4q62 5 79 24q20 22 27 22 q11 0 11 -14q-19 -198 -19 -233q0 -31 -15 -31t-15 14q-2 17 -2.5 21.5t-2 18.5t-3 17.5t-4.5 14.5t-6.5 14.5t-9 11t-12 10t-15.5 7t-20 6.5t-25 4q-11 1 -44 2t-70.5 2t-71.5 1.5t-49 0.5q-10 0 -10 -16v-133q0 -15 -0.5 -75.5t-0.5 -109.5t1 -71q1 -37 6 -59t16.5 -40 t34.5 -26t56 -12t85 -4q114 0 157 21q32 15 49 43t25 79q3 14 7 19.5t12 5.5q6 0 9 -4.5t3.5 -9.5t0.5 -16q0 -18 -4 -56t-9 -75t-9 -53q-3 -11 -6 -18t-8.5 -12t-10 -7.5t-16.5 -3.5t-20 -1.5t-28 -0.5q-106 0 -252 5t-224 5q-7 0 -18 -1t-16 -1q-16 -3 -23 -3 q-16 0 -16 11q0 7 2 23.5t3 27.5q1 18 1 90q-87 -84 -201 -129.5t-277 -45.5q-96 0 -180 20.5t-148.5 56.5t-117.5 86t-89.5 107.5t-61.5 122t-36 129.5t-11 130zM317 673q0 -144 40 -263t108.5 -196t157.5 -119t188 -42q89 0 161 31t125 92.5t82 160t29 227.5 q0 104 -20.5 197.5t-61.5 172t-99 136t-137 89.5t-172 32q-64 0 -122.5 -19t-109.5 -60t-88.5 -100.5t-59 -146t-21.5 -192.5z" />
<glyph unicode="&#x153;" horiz-adv-x="1769" d="M79 531q0 80 20.5 157.5t66.5 149t111.5 125.5t163.5 86t216 32q80 0 146 -13t115.5 -38t85 -53t69.5 -67h3q0 94 -1 111q0 4 -1 13t-1 14q0 14 13 14q2 0 10.5 -1t24.5 -1.5t37 -0.5h390q33 0 61 8q3 0 5.5 1t4.5 2t4.5 1.5t4.5 1t4 0.5q11 0 11 -13q0 -3 -2.5 -12 t-5.5 -30t-4 -49q-1 -5 -1.5 -21t-1.5 -30.5t-3 -29.5t-7 -24t-13 -9q-3 0 -5.5 0.5t-3.5 2t-2 4t-1.5 5t-0.5 5.5q0 33 -9 52q-7 16 -13.5 24t-27 16t-54.5 11q-38 5 -228 5q-9 0 -9 -13v-347q0 -14 9 -14q188 0 255 3q55 3 69 20q2 1 5.5 4.5l5 5t4 3.5t3.5 3t3 1.5t4 0.5 q10 0 10 -12q-18 -172 -18 -200q0 -30 -15 -30q-13 0 -13 11q-1 5 -1.5 15t-1.5 19.5t-3 17.5q-3 12 -8 20.5t-14 15.5t-24 12t-35 6q-40 5 -226 5q-9 0 -9 -13v-112q0 -14 -0.5 -62.5t-0.5 -87.5t1 -58q2 -72 42 -95.5t154 -23.5q94 0 134 17q27 12 42.5 36t22.5 68 q3 12 6 16.5t10 4.5q16 0 16 -33q0 -24 -7.5 -79.5t-13.5 -76.5q-7 -26 -20 -31t-57 -5q-209 0 -274 3q-97 5 -171 5q-13 0 -29 -2.5t-21 -2.5q-13 0 -13 10q0 17 2 57.5t2 73.5q-54 -52 -112 -85.5t-138 -53.5t-177 -20q-117 0 -214.5 33t-162 88t-109 128t-64.5 149.5 t-20 155.5zM292 573q0 -123 34.5 -222.5t94.5 -163t137.5 -97t164.5 -33.5q70 0 132 25.5t111.5 75.5t79 133t29.5 189q0 145 -54 265t-153.5 190t-225.5 70q-71 0 -133 -25t-111.5 -75.5t-77.5 -135.5t-28 -196z" />
<glyph unicode="&#x154;" horiz-adv-x="1252" d="M104 1234q0 15 37 15q51 0 134 -2.5t94 -2.5q29 0 118.5 2.5t114.5 2.5q93 0 168.5 -14.5t136.5 -56.5q42 -29 78 -90.5t36 -136.5q0 -64 -19.5 -121t-69 -120.5t-131.5 -130.5q15 -19 69 -86.5t70.5 -88.5t57.5 -71.5t61.5 -75t49.5 -57t53 -57.5q32 -34 62.5 -57.5 t56.5 -34.5t38 -14.5t28 -6.5q28 -5 46 -5q20 0 20 -14q0 -16 -31 -16h-158q-69 0 -107 7t-70 25q-35 18 -71.5 53t-70 77t-85.5 114q-25 34 -64.5 90t-65 91.5t-35.5 46.5q-10 12 -30 12l-144 3q-13 0 -13 -13v-23q0 -285 8 -355q5 -42 18 -64.5t47 -26.5q50 -7 81 -7 q20 0 20 -14q0 -16 -33 -16q-57 0 -148.5 2.5t-95.5 2.5q-11 0 -88 -2.5t-114 -2.5q-33 0 -33 16q0 14 26 14q30 0 59 7q23 4 33 26.5t16 64.5q8 70 8 353v292q0 298 -3 351q-3 45 -17.5 66t-53.5 29q-20 5 -65 5q-29 0 -29 15zM468 637q0 -10 1.5 -15.5t4.5 -8.5t9 -5 q52 -18 126 -18q49 0 71.5 6t46.5 23q42 31 70 92.5t28 156.5q0 67 -17.5 121t-44 87.5t-61 55.5t-67 30.5t-64.5 8.5q-7 0 -21.5 0.5t-21.5 0.5t-18.5 -1t-17.5 -3t-12.5 -5t-9 -8.5t-2.5 -13.5v-504zM481 1387q0 7 15 22q44 42 142.5 117.5t124.5 91.5q21 14 33 14 q6 0 10 -2t6.5 -5.5t7.5 -11.5q14 -26 48 -100q12 -25 -9 -25q-1 0 -9.5 0.5t-20.5 0.5t-26 -1q-63 -8 -146 -38.5t-138 -59.5q-26 -13 -28 -13q-3 0 -6.5 2.5t-3.5 7.5z" />
<glyph unicode="&#x155;" horiz-adv-x="1137" d="M92 1048q0 14 33 14q44 0 116.5 -1.5t81.5 -1.5q26 0 116 1.5t112 1.5q185 0 277 -60q23 -16 45 -41.5t40 -67t18 -85.5q0 -79 -48 -153t-155 -159q88 -108 126.5 -155t95.5 -112.5t98 -106.5q28 -29 53.5 -48t48 -28t30.5 -11.5t24 -6.5q15 -3 35 -3q8 0 13 -5t5 -10 q0 -15 -27 -15h-140q-59 0 -94.5 6.5t-64.5 21.5q-45 23 -88.5 70t-111.5 138q-31 41 -80 111.5t-57 80.5q-11 10 -27 10l-130 4q-13 0 -13 -13v-19q0 -218 9 -301q5 -36 15.5 -53t40.5 -21q33 -5 72 -5q7 0 12.5 -5t5.5 -10q0 -15 -30 -15q-50 0 -137 2.5t-90 2.5 q-11 0 -79 -2.5t-100 -2.5q-29 0 -29 15t24 15q52 0 70.5 15.5t23.5 63.5q7 60 7 301v249q0 254 -2 299q-3 46 -31.5 63.5t-89.5 17.5q-24 0 -24 14zM424 544q0 -18 14 -25q42 -13 111 -13q30 0 47.5 2t30 6.5t25.5 14.5q95 67 95 209q0 57 -15 102t-38.5 72.5t-54 45.5 t-59 24.5t-56.5 6.5h-17h-13h-11.5h-11.5t-10.5 -0.5t-10 -1.5t-8.5 -2.5t-7.5 -3.5t-5 -4.5t-4 -5.5t-1.5 -7v-420zM440 1201q0 7 14 21q45 43 143 118t125 91q22 16 33 16q8 0 12.5 -4.5t10.5 -16.5q15 -25 48 -99q12 -25 -8 -25q-1 0 -9.5 1t-20.5 1t-27 -2 q-62 -7 -145.5 -37.5t-137.5 -60.5l-28 -13q-3 0 -6.5 3t-3.5 7z" />
<glyph unicode="&#x156;" horiz-adv-x="1252" d="M104 1234q0 15 37 15q51 0 134 -2.5t94 -2.5q29 0 118.5 2.5t114.5 2.5q93 0 168.5 -14.5t136.5 -56.5q42 -29 78 -90.5t36 -136.5q0 -64 -19.5 -121t-69 -120.5t-131.5 -130.5q15 -19 69 -86.5t70.5 -88.5t57.5 -71.5t61.5 -75t49.5 -57t53 -57.5q32 -34 62.5 -57.5 t56.5 -34.5t38 -14.5t28 -6.5q28 -5 46 -5q20 0 20 -14q0 -16 -31 -16h-158q-69 0 -107 7t-70 25q-35 18 -71.5 53t-70 77t-85.5 114q-25 34 -64.5 90t-65 91.5t-35.5 46.5q-10 12 -30 12l-144 3q-13 0 -13 -13v-23q0 -285 8 -355q5 -42 18 -64.5t47 -26.5q50 -7 81 -7 q20 0 20 -14q0 -16 -33 -16q-57 0 -148.5 2.5t-95.5 2.5q-11 0 -88 -2.5t-114 -2.5q-33 0 -33 16q0 14 26 14q30 0 59 7q23 4 33 26.5t16 64.5q8 70 8 353v292q0 298 -3 351q-3 45 -17.5 66t-53.5 29q-20 5 -65 5q-29 0 -29 15zM468 637q0 -10 1.5 -15.5t4.5 -8.5t9 -5 q52 -18 126 -18q49 0 71.5 6t46.5 23q42 31 70 92.5t28 156.5q0 67 -17.5 121t-44 87.5t-61 55.5t-67 30.5t-64.5 8.5q-7 0 -21.5 0.5t-21.5 0.5t-18.5 -1t-17.5 -3t-12.5 -5t-9 -8.5t-2.5 -13.5v-504zM663 -152q0 35 36.5 67t70.5 32q9 0 14.5 -6.5t21.5 -30.5 q32 -49 32 -73q0 -26 -18 -69q-6 -14 -14.5 -31t-20 -38.5t-24 -42t-27 -41t-28.5 -36.5l-6 -6t-6.5 -6t-5.5 -3.5t-6 -1.5q-4 0 -8 5t-4 10q0 3 2 7t5.5 9t4.5 7q41 70 41 125q0 27 -9 50t-20.5 34.5t-21 22t-9.5 16.5z" />
<glyph unicode="&#x157;" horiz-adv-x="1137" d="M92 1048q0 14 33 14q44 0 116.5 -1.5t81.5 -1.5q26 0 116 1.5t112 1.5q185 0 277 -60q23 -16 45 -41.5t40 -67t18 -85.5q0 -79 -48 -153t-155 -159q88 -108 126.5 -155t95.5 -112.5t98 -106.5q28 -29 53.5 -48t48 -28t30.5 -11.5t24 -6.5q15 -3 35 -3q8 0 13 -5t5 -10 q0 -15 -27 -15h-140q-59 0 -94.5 6.5t-64.5 21.5q-45 23 -88.5 70t-111.5 138q-31 41 -80 111.5t-57 80.5q-11 10 -27 10l-130 4q-13 0 -13 -13v-19q0 -218 9 -301q5 -36 15.5 -53t40.5 -21q33 -5 72 -5q7 0 12.5 -5t5.5 -10q0 -15 -30 -15q-50 0 -137 2.5t-90 2.5 q-11 0 -79 -2.5t-100 -2.5q-29 0 -29 15t24 15q52 0 70.5 15.5t23.5 63.5q7 60 7 301v249q0 254 -2 299q-3 46 -31.5 63.5t-89.5 17.5q-24 0 -24 14zM424 544q0 -18 14 -25q42 -13 111 -13q30 0 47.5 2t30 6.5t25.5 14.5q95 67 95 209q0 57 -15 102t-38.5 72.5t-54 45.5 t-59 24.5t-56.5 6.5h-17h-13h-11.5h-11.5t-10.5 -0.5t-10 -1.5t-8.5 -2.5t-7.5 -3.5t-5 -4.5t-4 -5.5t-1.5 -7v-420zM581 -185q0 23 17.5 46.5t42 38t46.5 14.5q8 0 14 -6t19 -25l3 -6q32 -49 32 -73q0 -25 -19 -70q-11 -25 -26.5 -55.5t-39.5 -69t-46 -63.5q-3 -2 -7 -6 t-6.5 -6t-6 -3.5t-5.5 -1.5q-4 0 -8 5t-4 10q0 2 1.5 5.5t3 6t4 6t3.5 5.5q42 71 42 124q0 28 -9.5 50.5t-20.5 34t-20.5 22t-9.5 17.5z" />
<glyph unicode="&#x158;" horiz-adv-x="1252" d="M104 1234q0 15 37 15q51 0 134 -2.5t94 -2.5q29 0 118.5 2.5t114.5 2.5q93 0 168.5 -14.5t136.5 -56.5q42 -29 78 -90.5t36 -136.5q0 -64 -19.5 -121t-69 -120.5t-131.5 -130.5q15 -19 69 -86.5t70.5 -88.5t57.5 -71.5t61.5 -75t49.5 -57t53 -57.5q32 -34 62.5 -57.5 t56.5 -34.5t38 -14.5t28 -6.5q28 -5 46 -5q20 0 20 -14q0 -16 -31 -16h-158q-69 0 -107 7t-70 25q-35 18 -71.5 53t-70 77t-85.5 114q-25 34 -64.5 90t-65 91.5t-35.5 46.5q-10 12 -30 12l-144 3q-13 0 -13 -13v-23q0 -285 8 -355q5 -42 18 -64.5t47 -26.5q50 -7 81 -7 q20 0 20 -14q0 -16 -33 -16q-57 0 -148.5 2.5t-95.5 2.5q-11 0 -88 -2.5t-114 -2.5q-33 0 -33 16q0 14 26 14q30 0 59 7q23 4 33 26.5t16 64.5q8 70 8 353v292q0 298 -3 351q-3 45 -17.5 66t-53.5 29q-20 5 -65 5q-29 0 -29 15zM334 1551q0 8 8 16l48 49q11 11 18 11 q11 0 29 -18q21 -21 75.5 -66.5t69.5 -56.5q13 -9 21 -9q15 0 26 6q94 58 172 122q27 22 37 22q6 0 10.5 -4.5t4.5 -11.5q0 -10 -15 -25q-9 -9 -58.5 -56t-99.5 -93.5t-61 -56.5q-23 -20 -35 -20q-3 0 -30 19q-18 15 -198 149q-22 15 -22 23zM468 637q0 -10 1.5 -15.5 t4.5 -8.5t9 -5q52 -18 126 -18q49 0 71.5 6t46.5 23q42 31 70 92.5t28 156.5q0 67 -17.5 121t-44 87.5t-61 55.5t-67 30.5t-64.5 8.5q-7 0 -21.5 0.5t-21.5 0.5t-18.5 -1t-17.5 -3t-12.5 -5t-9 -8.5t-2.5 -13.5v-504z" />
<glyph unicode="&#x159;" horiz-adv-x="1137" d="M92 1048q0 14 33 14q44 0 116.5 -1.5t81.5 -1.5q26 0 116 1.5t112 1.5q185 0 277 -60q23 -16 45 -41.5t40 -67t18 -85.5q0 -79 -48 -153t-155 -159q88 -108 126.5 -155t95.5 -112.5t98 -106.5q28 -29 53.5 -48t48 -28t30.5 -11.5t24 -6.5q15 -3 35 -3q8 0 13 -5t5 -10 q0 -15 -27 -15h-140q-59 0 -94.5 6.5t-64.5 21.5q-45 23 -88.5 70t-111.5 138q-31 41 -80 111.5t-57 80.5q-11 10 -27 10l-130 4q-13 0 -13 -13v-19q0 -218 9 -301q5 -36 15.5 -53t40.5 -21q33 -5 72 -5q7 0 12.5 -5t5.5 -10q0 -15 -30 -15q-50 0 -137 2.5t-90 2.5 q-11 0 -79 -2.5t-100 -2.5q-29 0 -29 15t24 15q52 0 70.5 15.5t23.5 63.5q7 60 7 301v249q0 254 -2 299q-3 46 -31.5 63.5t-89.5 17.5q-24 0 -24 14zM310 1366q0 8 8 16l49 48q12 12 18 12q9 0 28 -19q15 -14 47.5 -42t61 -51t37.5 -29q13 -11 22 -11q13 0 25 8 q95 58 172 122q28 22 37 22q6 0 10 -5t4 -12q0 -10 -14 -25q-13 -14 -106.5 -101t-113.5 -104q-22 -21 -34 -21q-4 0 -30 19q-23 20 -197 149q-24 17 -24 24zM424 544q0 -18 14 -25q42 -13 111 -13q30 0 47.5 2t30 6.5t25.5 14.5q95 67 95 209q0 57 -15 102t-38.5 72.5 t-54 45.5t-59 24.5t-56.5 6.5h-17h-13h-11.5h-11.5t-10.5 -0.5t-10 -1.5t-8.5 -2.5t-7.5 -3.5t-5 -4.5t-4 -5.5t-1.5 -7v-420z" />
<glyph unicode="&#x15a;" horiz-adv-x="964" d="M149 71q0 70 9 217q3 44 19 44q17 0 17 -28q0 -34 15 -85q26 -87 89.5 -127.5t147.5 -40.5q54 0 97.5 17t70 45t40.5 61t14 67q0 68 -33 129t-129 136l-77 59q-133 105 -189 197.5t-56 196.5q0 138 105.5 226t277.5 88q114 0 221 -29q23 -5 23 -20q0 -6 -1 -22.5 t-2.5 -36t-2.5 -57.5t-1 -83q0 -50 -17 -50t-17 30q0 18 -10.5 50t-32.5 60q-65 81 -181 81q-91 0 -144.5 -47.5t-53.5 -123.5q0 -58 37.5 -110t138.5 -128l47 -35q150 -113 210.5 -208.5t60.5 -214.5q0 -82 -36 -158.5t-119 -130.5q-105 -68 -264 -68q-146 0 -242 43 q-20 8 -26 18.5t-6 37.5zM428 1387q0 6 15 22q30 29 91 77t111.5 85.5t64.5 46.5q21 14 34 14q8 0 12 -3.5t10 -15.5q19 -34 49 -100q5 -15 2 -20t-11 -5q-2 0 -10 0.5t-19.5 0.5t-26.5 -1q-63 -8 -146.5 -38.5t-137.5 -59.5q-26 -13 -28 -13t-4 1t-4 3.5t-2 5.5z" />
<glyph unicode="&#x15b;" horiz-adv-x="895" d="M131 62q0 69 8 187q0 16 5 26t14 10q15 0 15 -23q0 -33 12 -73q12 -38 37 -66t57.5 -43.5t67.5 -23t71 -7.5q92 0 147 51.5t55 128.5q0 27 -4.5 47.5t-18.5 46t-44 51.5t-77 54l-85 50q-126 74 -177 148.5t-51 171.5q0 51 18.5 95.5t52.5 78.5t79.5 59t101 37.5 t116.5 12.5q118 0 207 -22q20 -5 20 -19q0 -5 -1 -25t-2.5 -57.5t-1.5 -86.5q0 -45 -18 -45q-15 0 -15 25q0 16 -8.5 42.5t-29.5 50.5q-54 66 -163 66q-82 0 -140.5 -40.5t-58.5 -110.5q0 -52 31 -93.5t124 -92.5l59 -32q138 -77 195.5 -159t57.5 -183q0 -81 -34.5 -145.5 t-111.5 -118.5q-83 -58 -245 -58q-155 0 -236 36q-18 7 -23.5 16t-5.5 33zM369 1201q0 7 14 21q45 43 143 118t124 91q22 16 34 16q8 0 11.5 -4t10.5 -17q19 -34 49 -99q12 -25 -8 -25q-2 0 -10 1t-20 1t-27 -2q-63 -7 -146 -37.5t-137 -60.5q-28 -13 -29 -13q-3 0 -6 3 t-3 7z" />
<glyph unicode="&#x15e;" horiz-adv-x="964" d="M149 71q0 70 9 217q3 44 19 44q17 0 17 -28q0 -34 15 -85q26 -87 89.5 -127.5t147.5 -40.5q54 0 97.5 17t70 45t40.5 61t14 67q0 68 -33 129t-129 136l-77 59q-133 105 -189 197.5t-56 196.5q0 138 105.5 226t277.5 88q114 0 221 -29q23 -5 23 -20q0 -6 -1 -22.5 t-2.5 -36t-2.5 -57.5t-1 -83q0 -50 -17 -50t-17 30q0 18 -10.5 50t-32.5 60q-65 81 -181 81q-91 0 -144.5 -47.5t-53.5 -123.5q0 -58 37.5 -110t138.5 -128l47 -35q150 -113 210.5 -208.5t60.5 -214.5q0 -47 -10.5 -89.5t-29 -75.5t-42.5 -61t-52 -48t-55 -34t-54 -23 l-153 -112q93 -9 144.5 -43.5t51.5 -89.5q0 -22 -8.5 -44.5t-30.5 -46.5t-55.5 -43t-88 -31t-122.5 -12q-28 0 -28 16q0 10 12 16t31 6q21 0 45 7.5t45 21t35 35.5t14 47q0 19 -5.5 35.5t-18.5 35t-40.5 31.5t-66.5 19q-37 5 -37 13q0 5 27 25l120 89q-13 -1 -47 -1 q-146 0 -242 43q-20 8 -26 18.5t-6 37.5z" />
<glyph unicode="&#x15f;" horiz-adv-x="895" d="M131 62q0 69 8 187q0 16 5 26t14 10q15 0 15 -23q0 -33 12 -73q12 -38 37 -66t57.5 -43.5t67.5 -23t71 -7.5q92 0 147 51.5t55 128.5q0 27 -4.5 47.5t-18.5 46t-44 51.5t-77 54l-85 50q-126 74 -177 148.5t-51 171.5q0 51 18.5 95.5t52.5 78.5t79.5 59t101 37.5 t116.5 12.5q118 0 207 -22q20 -5 20 -19q0 -5 -1 -25t-2.5 -57.5t-1.5 -86.5q0 -45 -18 -45q-15 0 -15 25q0 16 -8.5 42.5t-29.5 50.5q-54 66 -163 66q-82 0 -140.5 -40.5t-58.5 -110.5q0 -52 31 -93.5t124 -92.5l59 -32q138 -77 195.5 -159t57.5 -183q0 -81 -34.5 -145.5 t-111.5 -118.5q-47 -35 -133 -50l-135 -99q61 -6 105 -23t67.5 -45t23.5 -65q0 -18 -6.5 -36.5t-20 -39t-37.5 -38.5t-56.5 -32.5t-80 -22.5t-104.5 -8q-28 0 -28 16q0 10 12 16t31 6q21 0 45 7.5t45 21t35 35.5t14 47q0 14 -3 27.5t-11.5 29t-22.5 27.5t-38 22t-56 15 q-37 5 -37 13q0 5 27 25l125 93h-6q-155 0 -236 36q-18 7 -23.5 16t-5.5 33z" />
<glyph unicode="&#x160;" horiz-adv-x="964" d="M149 71q0 70 9 217q3 44 19 44q17 0 17 -28q0 -34 15 -85q26 -87 89.5 -127.5t147.5 -40.5q54 0 97.5 17t70 45t40.5 61t14 67q0 68 -33 129t-129 136l-77 59q-133 105 -189 197.5t-56 196.5q0 138 105.5 226t277.5 88q114 0 221 -29q23 -5 23 -20q0 -6 -1 -22.5 t-2.5 -36t-2.5 -57.5t-1 -83q0 -50 -17 -50t-17 30q0 18 -10.5 50t-32.5 60q-65 81 -181 81q-91 0 -144.5 -47.5t-53.5 -123.5q0 -58 37.5 -110t138.5 -128l47 -35q150 -113 210.5 -208.5t60.5 -214.5q0 -82 -36 -158.5t-119 -130.5q-105 -68 -264 -68q-146 0 -242 43 q-20 8 -26 18.5t-6 37.5zM255 1551q0 7 9 16l48 49q11 11 18 11q10 0 28 -18q21 -21 76 -66.5t71 -56.5q12 -9 21 -9q14 0 25 6q95 58 172 122q28 22 37 22q6 0 10 -4.5t4 -11.5q0 -10 -14 -25q-9 -9 -58.5 -56t-99 -93.5t-61.5 -56.5q-22 -20 -35 -20q-3 0 -30 19 q-18 15 -197 149q-24 16 -24 23z" />
<glyph unicode="&#x161;" horiz-adv-x="895" d="M131 62q0 69 8 187q0 16 5 26t14 10q15 0 15 -23q0 -33 12 -73q12 -38 37 -66t57.5 -43.5t67.5 -23t71 -7.5q92 0 147 51.5t55 128.5q0 27 -4.5 47.5t-18.5 46t-44 51.5t-77 54l-85 50q-126 74 -177 148.5t-51 171.5q0 51 18.5 95.5t52.5 78.5t79.5 59t101 37.5 t116.5 12.5q118 0 207 -22q20 -5 20 -19q0 -5 -1 -25t-2.5 -57.5t-1.5 -86.5q0 -45 -18 -45q-15 0 -15 25q0 16 -8.5 42.5t-29.5 50.5q-54 66 -163 66q-82 0 -140.5 -40.5t-58.5 -110.5q0 -52 31 -93.5t124 -92.5l59 -32q138 -77 195.5 -159t57.5 -183q0 -81 -34.5 -145.5 t-111.5 -118.5q-83 -58 -245 -58q-155 0 -236 36q-18 7 -23.5 16t-5.5 33zM237 1366q0 8 8 16l48 48q12 12 19 12q10 0 28 -19q21 -21 76 -66t70 -56q13 -11 22 -11q12 0 24 8q95 58 173 122q27 22 36 22q3 0 6 -1.5t5 -3.5t3.5 -5.5t1.5 -6.5q0 -9 -16 -25 q-13 -14 -106 -101.5t-113 -103.5q-22 -21 -34 -21q-4 0 -30 19q-23 20 -197 149q-24 17 -24 24z" />
<glyph unicode="&#x162;" horiz-adv-x="1177" d="M23 1050q0 17 15 94t20 97q7 32 20 32q4 0 25.5 -9.5t45.5 -11.5q80 -8 166 -8h657q51 0 114 8q42 8 46 8q8 0 10.5 -7t2.5 -27q0 -17 -2.5 -93.5t-2.5 -98.5q-3 -27 -15 -27q-3 0 -5.5 1t-4 3l-3 4t-2.5 5.5t-2 6t-1.5 7.5t-0.5 8t-0.5 8.5t-0.5 8.5q-3 37 -49 63.5 t-147 28.5l-209 5v-680v-148.5t2 -111t6 -94.5q4 -41 17.5 -63.5t47.5 -26.5q47 -7 85 -7q27 0 27 -14q0 -16 -32 -16q-28 0 -78.5 1t-71.5 1l-149 -111q92 -9 144 -43.5t52 -89.5q0 -22 -8.5 -44.5t-31 -46.5t-55.5 -43t-87.5 -31t-122.5 -12q-29 0 -29 16q0 10 12.5 16 t30.5 6q29 0 60.5 12.5t55.5 39t24 59.5q0 102 -131 121q-37 5 -37 13q0 5 27 25l156 116h-22q-15 0 -93.5 -2.5t-115.5 -2.5q-33 0 -33 16q0 14 27 14q60 0 80.5 19t26.5 79q8 70 8 353v680l-247 -7q-75 -2 -109 -11.5t-52 -35.5q-21 -33 -27 -59q-5 -19 -19 -19 q-8 0 -11.5 5.5t-3.5 20.5z" />
<glyph unicode="&#x163;" horiz-adv-x="1049" d="M20 885q0 15 13.5 86.5t17.5 83.5q5 26 17 26q4 0 23.5 -6.5t39.5 -9.5q57 -6 146 -6h592q56 0 100 6q10 2 19 3.5t13.5 2.5t6.5 1q4 0 6.5 -1.5t4 -5.5t2 -9.5t0.5 -13.5q0 -15 -2 -83.5t-2 -87.5q-3 -23 -13 -23q-4 0 -6.5 1t-4 4t-3 5t-2 7t-1 8t-1 9t-0.5 9 q-3 33 -43 56.5t-130 24.5l-184 3v-570q0 -225 8 -302q4 -34 15.5 -51.5t40.5 -21.5q31 -5 75 -5q11 0 17 -5t6 -10q0 -15 -28 -15q-24 0 -69 1t-64 1l-149 -111q92 -9 144 -43.5t52 -89.5q0 -22 -8.5 -44.5t-31 -46.5t-55.5 -43t-87.5 -31t-122.5 -12q-29 0 -29 16 q0 10 12.5 16t30.5 6q29 0 60.5 12.5t55.5 39t24 59.5q0 19 -5.5 35.5t-18.5 35t-40.5 31.5t-67.5 19q-36 5 -36 13q0 5 27 25l156 116h-14q-13 0 -85.5 -2.5t-104.5 -2.5q-28 0 -28 15t23 15q52 0 70 15t24 64q7 68 7 301v570l-218 -5q-57 -1 -89 -10t-48.5 -27.5 t-28.5 -53.5q-5 -18 -16 -18q-13 0 -13 24z" />
<glyph unicode="&#x164;" horiz-adv-x="1177" d="M23 1050q0 17 15 94t20 97q7 32 20 32q4 0 25.5 -9.5t45.5 -11.5q80 -8 166 -8h657q51 0 114 8q42 8 46 8q8 0 10.5 -7t2.5 -27q0 -17 -2.5 -93.5t-2.5 -98.5q-3 -27 -15 -27q-3 0 -5.5 1t-4 3l-3 4t-2.5 5.5t-2 6t-1.5 7.5t-0.5 8t-0.5 8.5t-0.5 8.5q-3 37 -49 63.5 t-147 28.5l-209 5v-680v-148.5t2 -111t6 -94.5q4 -41 17.5 -63.5t47.5 -26.5q47 -7 85 -7q27 0 27 -14q0 -16 -32 -16q-63 0 -154.5 2.5t-106.5 2.5t-93.5 -2.5t-115.5 -2.5q-33 0 -33 16q0 14 27 14q60 0 80.5 19t26.5 79q8 70 8 353v680l-247 -7q-75 -2 -109 -11.5 t-52 -35.5q-21 -33 -27 -59q-5 -19 -19 -19q-8 0 -11.5 5.5t-3.5 20.5zM337 1551q0 8 8 16l48 49q11 11 18 11q11 0 29 -18q21 -21 76 -66.5t70 -56.5q12 -9 22 -9q13 0 24 6q95 58 172 122q28 22 37 22q6 0 10.5 -4.5t4.5 -11.5q0 -10 -15 -25q-9 -9 -58.5 -56t-99 -93.5 t-61.5 -56.5q-22 -20 -35 -20q-3 0 -30 19q-18 15 -197 149q-23 15 -23 23z" />
<glyph unicode="&#x165;" horiz-adv-x="1049" d="M20 885q0 15 13.5 86.5t17.5 83.5q5 26 17 26q4 0 23.5 -6.5t39.5 -9.5q57 -6 146 -6h592q56 0 100 6q10 2 19 3.5t13.5 2.5t6.5 1q4 0 6.5 -1.5t4 -5.5t2 -9.5t0.5 -13.5q0 -15 -2 -83.5t-2 -87.5q-3 -23 -13 -23q-4 0 -6.5 1t-4 4t-3 5t-2 7t-1 8t-1 9t-0.5 9 q-3 33 -43 56.5t-130 24.5l-184 3v-570q0 -225 8 -302q4 -34 15.5 -51.5t40.5 -21.5q31 -5 75 -5q11 0 17 -5t6 -10q0 -15 -28 -15q-55 0 -138.5 2.5t-97.5 2.5q-13 0 -85.5 -2.5t-104.5 -2.5q-28 0 -28 15t23 15q36 0 54 6.5t27 22.5t13 50q7 68 7 301v570l-218 -5 q-57 -1 -89 -10t-48.5 -27.5t-28.5 -53.5q-5 -18 -16 -18q-13 0 -13 24zM266 1366q0 8 8 16l48 48q12 12 18 12q10 0 29 -19q21 -21 75.5 -66t69.5 -56q14 -11 22 -11q12 0 25 8q94 58 172 122q27 22 36 22q7 0 11.5 -5t4.5 -12q0 -9 -16 -25q-13 -14 -106 -101.5 t-112 -103.5q-23 -21 -35 -21q-3 0 -30 19q-18 16 -198 149q-22 16 -22 24z" />
<glyph unicode="&#x16a;" horiz-adv-x="1412" d="M33 1234q0 15 37 15q49 0 135.5 -2.5t106.5 -2.5q17 0 94 2.5t110 2.5q36 0 36 -15t-26 -15q-58 0 -82 -21t-28 -79q-3 -53 -3 -351v-232q0 -171 32 -262.5t98 -145.5q82 -68 207 -68q61 0 121.5 21.5t106.5 67.5q27 27 45.5 63t28.5 71t15.5 86t6.5 90.5t1 101.5v207 q0 298 -3 351q-3 45 -17.5 66t-54.5 29q-19 5 -60 5q-28 0 -28 15t35 15q17 0 37 -0.5t37.5 -0.5t35 -0.5t32 -1t25.5 -1t17.5 -1l6.5 -0.5q5 0 78 2.5t111 2.5q35 0 35 -15t-30 -15q-58 0 -82 -20.5t-28 -79.5q-3 -53 -3 -351v-178q0 -79 -5.5 -140.5t-20.5 -131t-48 -127 t-83 -99.5q-81 -70 -165.5 -95t-179.5 -25q-45 0 -80.5 2.5t-89 12.5t-105 35t-94.5 64q-45 41 -76 94t-51 141.5t-20 204.5v242q0 298 -3 351q-3 45 -17.5 66t-54.5 29q-19 5 -64 5q-29 0 -29 15zM518 1426.5q-1 2.5 0 6.5l13 60q4 15 18 15h398q19 0 14 -17l-14 -60 q-3 -9 -18 -9h-398q-6 0 -9 1t-4 3.5z" />
<glyph unicode="&#x16b;" horiz-adv-x="1260" d="M30 1048q0 14 32 14q43 0 122 -1.5t96 -1.5q16 0 87.5 1.5t100.5 1.5q31 0 31 -14t-23 -14q-49 0 -71 -17t-25 -64q-3 -45 -3 -299v-198q0 -146 26.5 -221t84.5 -121q71 -56 183 -56q120 0 197 75q29 27 47 63t25.5 85t10 89.5t2.5 105.5v178q0 187 -4 299q-3 36 -15 51 t-46 25q-17 5 -54 5q-25 0 -25 14t30 14h33t34 -0.5l32 -1t29.5 -0.5t23.5 -0.5t16 -0.5h6q3 0 70.5 1.5t100.5 1.5q30 0 30 -14t-25 -14q-15 0 -43 -5q-29 -5 -39.5 -21.5t-12.5 -54.5q-4 -90 -4 -299v-151q0 -68 -4.5 -120.5t-18 -111.5t-43 -108t-73.5 -85 q-121 -101 -309 -101q-39 0 -71 2t-82 10.5t-96.5 29.5t-83.5 54q-63 54 -98 142.5t-35 230.5v208q0 276 -2 299q-3 47 -31 64t-88 17q-25 0 -25 14zM441 1247l13 60q2 6 4 9t5.5 4.5t9.5 1.5h398q18 0 14 -16l-14 -60q-3 -10 -18 -10h-399q-8 0 -11 2.5t-2 8.5z" />
<glyph unicode="&#x16e;" horiz-adv-x="1412" d="M33 1234q0 15 37 15q49 0 135.5 -2.5t106.5 -2.5q17 0 94 2.5t110 2.5q36 0 36 -15t-26 -15q-58 0 -82 -21t-28 -79q-3 -53 -3 -351v-232q0 -171 32 -262.5t98 -145.5q82 -68 207 -68q61 0 121.5 21.5t106.5 67.5q27 27 45.5 63t28.5 71t15.5 86t6.5 90.5t1 101.5v207 q0 298 -3 351q-3 45 -17.5 66t-54.5 29q-19 5 -60 5q-28 0 -28 15t35 15q17 0 37 -0.5t37.5 -0.5t35 -0.5t32 -1t25.5 -1t17.5 -1l6.5 -0.5q5 0 78 2.5t111 2.5q35 0 35 -15t-30 -15q-58 0 -82 -20.5t-28 -79.5q-3 -53 -3 -351v-178q0 -79 -5.5 -140.5t-20.5 -131t-48 -127 t-83 -99.5q-81 -70 -165.5 -95t-179.5 -25q-45 0 -80.5 2.5t-89 12.5t-105 35t-94.5 64q-45 41 -76 94t-51 141.5t-20 204.5v242q0 298 -3 351q-3 45 -17.5 66t-54.5 29q-19 5 -64 5q-29 0 -29 15zM564 1460q0 58 66 101.5t161 43.5q72 0 115 -26t43 -69q0 -44 -37 -79.5 t-90.5 -53t-109.5 -17.5q-67 0 -107.5 28t-40.5 72zM665 1483q0 -35 26 -58t57 -23q41 0 70.5 25.5t29.5 60.5q0 32 -23 54t-65 22q-34 0 -64.5 -21t-30.5 -60z" />
<glyph unicode="&#x16f;" horiz-adv-x="1260" d="M30 1048q0 14 32 14q43 0 122 -1.5t96 -1.5q16 0 87.5 1.5t100.5 1.5q31 0 31 -14t-23 -14q-49 0 -71 -17t-25 -64q-3 -45 -3 -299v-198q0 -146 26.5 -221t84.5 -121q71 -56 183 -56q120 0 197 75q29 27 47 63t25.5 85t10 89.5t2.5 105.5v178q0 187 -4 299q-3 36 -15 51 t-46 25q-17 5 -54 5q-25 0 -25 14t30 14h33t34 -0.5l32 -1t29.5 -0.5t23.5 -0.5t16 -0.5h6q3 0 70.5 1.5t100.5 1.5q30 0 30 -14t-25 -14q-15 0 -43 -5q-29 -5 -39.5 -21.5t-12.5 -54.5q-4 -90 -4 -299v-151q0 -68 -4.5 -120.5t-18 -111.5t-43 -108t-73.5 -85 q-121 -101 -309 -101q-39 0 -71 2t-82 10.5t-96.5 29.5t-83.5 54q-63 54 -98 142.5t-35 230.5v208q0 276 -2 299q-3 47 -31 64t-88 17q-25 0 -25 14zM471 1274q0 58 66 102t161 44q48 0 84 -12.5t55 -34t19 -49.5q1 -45 -36.5 -80t-91 -52.5t-109.5 -17.5q-45 0 -79 13.5 t-51.5 36t-17.5 50.5zM573 1298q0 -36 25.5 -59t56.5 -23q27 0 50 12t36.5 32t13.5 42q0 33 -23 55t-65 22q-21 0 -41.5 -8t-36.5 -27.5t-16 -45.5z" />
<glyph unicode="&#x170;" horiz-adv-x="1412" d="M33 1234q0 15 37 15q49 0 135.5 -2.5t106.5 -2.5q17 0 94 2.5t110 2.5q36 0 36 -15t-26 -15q-58 0 -82 -21t-28 -79q-3 -53 -3 -351v-232q0 -171 32 -262.5t98 -145.5q82 -68 207 -68q61 0 121.5 21.5t106.5 67.5q27 27 45.5 63t28.5 71t15.5 86t6.5 90.5t1 101.5v207 q0 298 -3 351q-3 45 -17.5 66t-54.5 29q-19 5 -60 5q-28 0 -28 15t35 15q17 0 37 -0.5t37.5 -0.5t35 -0.5t32 -1t25.5 -1t17.5 -1l6.5 -0.5q5 0 78 2.5t111 2.5q35 0 35 -15t-30 -15q-58 0 -82 -20.5t-28 -79.5q-3 -53 -3 -351v-178q0 -79 -5.5 -140.5t-20.5 -131t-48 -127 t-83 -99.5q-81 -70 -165.5 -95t-179.5 -25q-45 0 -80.5 2.5t-89 12.5t-105 35t-94.5 64q-45 41 -76 94t-51 141.5t-20 204.5v242q0 298 -3 351q-3 45 -17.5 66t-54.5 29q-19 5 -64 5q-29 0 -29 15zM526.5 1382.5q-2.5 5.5 0.5 10.5q4 7 44 50.5t86 93t53 57.5q4 4 8 8.5 t6.5 7.5t5.5 6.5t5 5.5l4 4l3.5 3.5t3.5 2.5l3 1.5t3 0.5q44 0 107 -54q21 -18 -11 -30q-6 -2 -20 -7l-30 -10q-52 -25 -118.5 -64.5t-106.5 -72.5q-25 -19 -37 -19q-7 0 -9.5 5.5zM814 1382.5q-2 5.5 1 10.5q3 7 43 50.5t86 93t53 57.5q3 3 6.5 7.5t6 7t5.5 6t4.5 5.5t4 4 t4 3.5l3 3t3 2t2.5 1t2 0.5q44 0 108 -55q20 -17 -11 -29q-6 -2 -20 -7l-30 -10q-52 -25 -118.5 -64.5t-107.5 -72.5q-24 -19 -36 -19q-7 0 -9 5.5z" />
<glyph unicode="&#x171;" horiz-adv-x="1260" d="M30 1048q0 14 32 14q43 0 122 -1.5t96 -1.5q16 0 87.5 1.5t100.5 1.5q31 0 31 -14t-23 -14q-49 0 -71 -17t-25 -64q-3 -45 -3 -299v-198q0 -146 26.5 -221t84.5 -121q71 -56 183 -56q120 0 197 75q29 27 47 63t25.5 85t10 89.5t2.5 105.5v178q0 187 -4 299q-3 36 -15 51 t-46 25q-17 5 -54 5q-25 0 -25 14t30 14h33t34 -0.5l32 -1t29.5 -0.5t23.5 -0.5t16 -0.5h6q3 0 70.5 1.5t100.5 1.5q30 0 30 -14t-25 -14q-15 0 -43 -5q-29 -5 -39.5 -21.5t-12.5 -54.5q-4 -90 -4 -299v-151q0 -68 -4.5 -120.5t-18 -111.5t-43 -108t-73.5 -85 q-121 -101 -309 -101q-39 0 -71 2t-82 10.5t-96.5 29.5t-83.5 54q-63 54 -98 142.5t-35 230.5v208q0 276 -2 299q-3 47 -31 64t-88 17q-25 0 -25 14zM382 1197q-2 6 1 11q4 7 43.5 50.5t85.5 92.5t53 58q3 2 7 7q28 32 36 32q43 0 107 -55q8 -7 8.5 -14t-5.5 -8 q-67 -20 -149 -66t-141 -94q-26 -20 -37 -20q-7 0 -9 6zM669.5 1197q-2.5 6 0.5 11q3 7 43 50.5t86 92.5t54 58q3 3 7 8t6.5 7.5t5.5 6t5 5.5l4.5 4.5t4 3.5l3 2t3 1.5t2.5 0.5q20 0 43 -10.5t34.5 -19t30.5 -25.5q8 -7 8.5 -14t-5.5 -8q-45 -13 -99.5 -40t-103.5 -58 t-87 -62q-26 -20 -36 -20q-7 0 -9.5 6z" />
<glyph unicode="&#x172;" horiz-adv-x="1412" d="M33 1234q0 15 37 15q49 0 135.5 -2.5t106.5 -2.5q17 0 94 2.5t110 2.5q36 0 36 -15t-26 -15q-58 0 -82 -21t-28 -79q-3 -53 -3 -351v-232q0 -171 32 -262.5t98 -145.5q82 -68 207 -68q61 0 121.5 21.5t106.5 67.5q27 27 45.5 63t28.5 71t15.5 86t6.5 90.5t1 101.5v207 q0 298 -3 351q-3 45 -17.5 66t-54.5 29q-19 5 -60 5q-28 0 -28 15t35 15q17 0 37 -0.5t37.5 -0.5t35 -0.5t32 -1t25.5 -1t17.5 -1l6.5 -0.5q5 0 78 2.5t111 2.5q35 0 35 -15t-30 -15q-58 0 -82 -20.5t-28 -79.5q-3 -53 -3 -351v-178q0 -79 -5.5 -140.5t-20.5 -131t-48 -127 t-83 -99.5q-19 -17 -42 -32t-40 -24.5t-41 -23t-37 -20.5q-42 -25 -70.5 -83t-28.5 -110q0 -81 96 -81q15 0 29 4t24 10t19.5 13t15.5 13t12 10t9 4q16 0 16 -13q0 -9 -14 -26q-95 -110 -206 -110q-77 0 -113.5 30t-36.5 97q0 51 48 116t102 107q-31 -1 -87 -1 q-45 0 -80.5 2.5t-89 12.5t-105 35t-94.5 64q-69 63 -108 167t-39 273v242q0 298 -3 351q-3 45 -17.5 66t-54.5 29q-19 5 -64 5q-29 0 -29 15z" />
<glyph unicode="&#x173;" horiz-adv-x="1260" d="M30 1048q0 14 32 14q43 0 122 -1.5t96 -1.5q16 0 87.5 1.5t100.5 1.5q31 0 31 -14t-23 -14q-49 0 -71 -17t-25 -64q-3 -45 -3 -299v-198q0 -146 26.5 -221t84.5 -121q71 -56 183 -56q120 0 197 75q29 27 47 63t25.5 85t10 89.5t2.5 105.5v178q0 187 -4 299q-3 36 -15 51 t-46 25q-17 5 -54 5q-25 0 -25 14t30 14h33t34 -0.5l32 -1t29.5 -0.5t23.5 -0.5t16 -0.5h6q3 0 70.5 1.5t100.5 1.5q30 0 30 -14t-25 -14q-15 0 -43 -5q-29 -5 -39.5 -21.5t-12.5 -54.5q-4 -90 -4 -299v-151q0 -68 -4.5 -120.5t-18 -111.5t-43 -108t-73.5 -85 q-21 -18 -44 -31t-53 -27t-43 -22q-47 -25 -78.5 -83.5t-31.5 -115.5q0 -81 97 -81q15 0 29 4t24 10t19 13t15.5 13t12.5 10t9 4q16 0 16 -13q0 -9 -14 -26q-95 -110 -206 -110q-77 0 -114 30t-37 97q0 55 54.5 124t108.5 110q-28 -7 -73 -7q-39 0 -71 2t-82 10.5 t-96.5 29.5t-83.5 54q-63 54 -98 142.5t-35 230.5v208q0 276 -2 299q-3 47 -31 64t-88 17q-25 0 -25 14z" />
<glyph unicode="&#x178;" horiz-adv-x="1111" d="M-81 1234q0 15 32 15q11 0 94.5 -2.5t114.5 -2.5q12 0 73.5 2.5t103.5 2.5q24 0 24 -15q0 -6 -7 -9t-29 -9q-11 -3 -17 -11.5t-6 -18.5q0 -16 20 -56q25 -54 281 -497q9 21 124 227t126 230q23 51 23 86q0 33 -35 41q-30 7 -30 17q0 9 6.5 12t21.5 3q29 0 81.5 -2.5 t74.5 -2.5q19 0 91 2.5t87 2.5q30 0 30 -13q0 -17 -32 -17q-35 0 -73 -19q-24 -12 -41.5 -28.5t-48.5 -53.5q-40 -49 -166.5 -260.5t-149.5 -267.5q-9 -21 -14.5 -41.5t-7.5 -44t-2.5 -38t-0.5 -42.5v-136q0 -95 4 -165q6 -83 69 -91q47 -7 83 -7q27 0 27 -14q0 -16 -35 -16 q-60 0 -150 2.5t-104 2.5q-19 0 -97 -2.5t-111 -2.5q-36 0 -36 16q0 14 26 14q59 0 82.5 20.5t27.5 77.5q5 70 5 165v136q0 43 -6 76t-12.5 51t-19.5 48q-9 20 -129.5 217.5t-162.5 259.5q-60 89 -115 122q-41 21 -70 21q-24 0 -24 15zM345 1455q0 28 20 52t56 24 q33 0 55.5 -19.5t22.5 -51.5q0 -23 -10 -42t-28 -30t-41 -11q-37 0 -56 24t-19 54zM695 1455q0 29 19.5 53.5t56.5 24.5q34 0 56.5 -20t22.5 -53q0 -36 -22.5 -59.5t-58.5 -23.5t-55 24t-19 54z" />
</font>
</defs>
</svg>
